<?xml version="1.0" encoding="UTF-8" standalone="no"?>
<!-- Created with Inkscape (http://www.inkscape.org/) -->

<svg
   xmlns:dc="http://purl.org/dc/elements/1.1/"
   xmlns:cc="http://creativecommons.org/ns#"
   xmlns:rdf="http://www.w3.org/1999/02/22-rdf-syntax-ns#"
   xmlns:svg="http://www.w3.org/2000/svg"
   xmlns="http://www.w3.org/2000/svg"
   xmlns:sodipodi="http://sodipodi.sourceforge.net/DTD/sodipodi-0.dtd"
   xmlns:inkscape="http://www.inkscape.org/namespaces/inkscape"
   width="297mm"
   height="210mm"
   id="svg2985"
   version="1.1"
   inkscape:version="0.48.5 r10040"
   sodipodi:docname="appendix_1_5.svg">
  <defs
     id="defs2987" />
  <sodipodi:namedview
     inkscape:document-units="mm"
     pagecolor="#ffffff"
     bordercolor="#666666"
     borderopacity="1.0"
     inkscape:pageopacity="0.0"
     inkscape:pageshadow="2"
     inkscape:zoom="0.80630809"
     inkscape:cx="635.01678"
     inkscape:cy="478.81704"
     inkscape:current-layer="layer1"
     id="namedview2989"
     showgrid="false"
     showguides="true"
     inkscape:guide-bbox="true"
     inkscape:window-width="1366"
     inkscape:window-height="715"
     inkscape:window-x="0"
     inkscape:window-y="31"
     inkscape:window-maximized="1">
    <sodipodi:guide
       orientation="1,0"
       position="533.19684,736.65353"
       id="guide3008" />
  </sodipodi:namedview>
  <metadata
     id="metadata2991">
    <rdf:RDF>
      <cc:Work
         rdf:about="">
        <dc:format>image/svg+xml</dc:format>
        <dc:type
           rdf:resource="http://purl.org/dc/dcmitype/StillImage" />
        <dc:title></dc:title>
      </cc:Work>
    </rdf:RDF>
  </metadata>
  <g
     inkscape:label="Layer 1"
     inkscape:groupmode="layer"
     id="layer1">
    <text
       xml:space="preserve"
       style="font-size:20px;font-style:normal;font-weight:normal;text-align:center;line-height:125%;letter-spacing:0px;word-spacing:0px;text-anchor:middle;fill:#000000;fill-opacity:1;stroke:none;font-family:Sans"
       x="533.19684"
       y="43.229301"
       id="text2994"
       sodipodi:linespacing="125%"><tspan
         sodipodi:role="line"
         x="533.19684"
         y="43.229301"
         id="tspan2998"
         style="font-size:32px"><tspan
           style="font-size:22px"
           id="tspan3006">П</tspan><tspan
           style="font-size:24px"
           id="tspan3004">риложение 1.Структурная  схема   распределенной АСОИиУ фирмы.</tspan></tspan><tspan
         sodipodi:role="line"
         x="533.19684"
         y="73.229301"
         id="tspan3002"
         style="font-size:24px">Схема второго филиала в графических обозначениях</tspan></text>
    <g
       transform="matrix(1.25,0,0,-1.25,213.6103,618.80888)"
       inkscape:label="ink_ext_XXXXXX"
       id="g4385">
      <g
         transform="scale(0.1,0.1)"
         id="g4387">
        <path
           id="path4389"
           style="fill:#ffffff;fill-opacity:1;fill-rule:nonzero;stroke:none"
           d="m 484.059,3253.55 1640,0 0,445.699 -1640,0 0,-445.699 z"
           inkscape:connector-curvature="0" />
        <path
           id="path4391"
           style="fill:none;stroke:#000000;stroke-width:32;stroke-linecap:butt;stroke-linejoin:miter;stroke-miterlimit:4;stroke-opacity:1;stroke-dasharray:none"
           d="m 484.059,3253.55 1640,0 0,445.699 -1640,0 0,-445.699 z"
           inkscape:connector-curvature="0" />
        <path
           id="path4393"
           style="fill:#ffffff;fill-opacity:1;fill-rule:nonzero;stroke:none"
           d="m 2124.06,3353.55 154.301,0 0,245.699 -154.301,0 0,-245.699 z"
           inkscape:connector-curvature="0" />
        <path
           id="path4395"
           style="fill:none;stroke:#000000;stroke-width:32;stroke-linecap:butt;stroke-linejoin:miter;stroke-miterlimit:4;stroke-opacity:1;stroke-dasharray:none"
           d="m 2124.06,3353.55 154.301,0 0,245.699 -154.301,0 0,-245.699 z"
           inkscape:connector-curvature="0" />
        <path
           id="path4397"
           style="fill:#ffffff;fill-opacity:1;fill-rule:nonzero;stroke:none"
           d="m 329.801,3353.55 154.258,0 0,245.699 -154.258,0 0,-245.699 z"
           inkscape:connector-curvature="0" />
        <path
           id="path4399"
           style="fill:none;stroke:#000000;stroke-width:32;stroke-linecap:butt;stroke-linejoin:miter;stroke-miterlimit:4;stroke-opacity:1;stroke-dasharray:none"
           d="m 329.801,3353.55 154.258,0 0,245.699 -154.258,0 0,-245.699 z"
           inkscape:connector-curvature="0" />
        <g
           transform="scale(10,10)"
           id="g4401">
          <text
             id="text4403"
             transform="matrix(1,0,0,-1,28.9785,371.639)">
            <tspan
               id="tspan4405"
               sodipodi:role="line"
               y="0"
               x="0 11.12"
               style="font-size:16px;font-variant:normal;font-weight:normal;writing-mode:lr-tb;fill:#000000;fill-opacity:1;fill-rule:nonzero;stroke:none;font-family:DejaVu Sans;-inkscape-font-specification:DejaVuSans">RI</tspan>
            <tspan
               id="tspan4407"
               sodipodi:role="line"
               y="-0.57148403"
               x="190.286 201.40601"
               style="font-size:16px;font-variant:normal;font-weight:normal;writing-mode:lr-tb;fill:#000000;fill-opacity:1;fill-rule:nonzero;stroke:none;font-family:DejaVu Sans;-inkscape-font-specification:DejaVuSans">RO</tspan>
            <tspan
               id="tspan4409"
               sodipodi:role="line"
               y="29.718716"
               x="78.983002 88.182999 92.519157 101.04711 111.99111"
               style="font-size:16px;font-variant:normal;font-weight:normal;writing-mode:lr-tb;fill:#000000;fill-opacity:1;fill-rule:nonzero;stroke:none;font-family:DejaVu Sans;-inkscape-font-specification:DejaVuSans">F-TAU</tspan>
          </text>
        </g>
        <path
           id="path4411"
           style="fill:#ffffff;fill-opacity:1;fill-rule:nonzero;stroke:none"
           d="m 3067.85,3253.55 1640,0 0,445.699 -1640,0 0,-445.699 z"
           inkscape:connector-curvature="0" />
        <path
           id="path4413"
           style="fill:none;stroke:#000000;stroke-width:32;stroke-linecap:butt;stroke-linejoin:miter;stroke-miterlimit:4;stroke-opacity:1;stroke-dasharray:none"
           d="m 3067.85,3253.55 1640,0 0,445.699 -1640,0 0,-445.699 z"
           inkscape:connector-curvature="0" />
        <path
           id="path4415"
           style="fill:#ffffff;fill-opacity:1;fill-rule:nonzero;stroke:none"
           d="m 4707.85,3353.55 154.258,0 0,245.699 -154.258,0 0,-245.699 z"
           inkscape:connector-curvature="0" />
        <path
           id="path4417"
           style="fill:none;stroke:#000000;stroke-width:32;stroke-linecap:butt;stroke-linejoin:miter;stroke-miterlimit:4;stroke-opacity:1;stroke-dasharray:none"
           d="m 4707.85,3353.55 154.258,0 0,245.699 -154.258,0 0,-245.699 z"
           inkscape:connector-curvature="0" />
        <path
           id="path4419"
           style="fill:#ffffff;fill-opacity:1;fill-rule:nonzero;stroke:none"
           d="m 2913.55,3353.55 154.301,0 0,245.699 -154.301,0 0,-245.699 z"
           inkscape:connector-curvature="0" />
        <path
           id="path4421"
           style="fill:none;stroke:#000000;stroke-width:32;stroke-linecap:butt;stroke-linejoin:miter;stroke-miterlimit:4;stroke-opacity:1;stroke-dasharray:none"
           d="m 2913.55,3353.55 154.301,0 0,245.699 -154.301,0 0,-245.699 z"
           inkscape:connector-curvature="0" />
        <g
           transform="scale(10,10)"
           id="g4423">
          <text
             id="text4425"
             transform="matrix(1,0,0,-1,287.355,371.639)">
            <tspan
               id="tspan4427"
               sodipodi:role="line"
               y="0"
               x="0 11.12"
               style="font-size:16px;font-variant:normal;font-weight:normal;writing-mode:lr-tb;fill:#000000;fill-opacity:1;fill-rule:nonzero;stroke:none;font-family:DejaVu Sans;-inkscape-font-specification:DejaVuSans">RI</tspan>
            <tspan
               id="tspan4429"
               sodipodi:role="line"
               y="-0.57148403"
               x="190.286 201.40601"
               style="font-size:16px;font-variant:normal;font-weight:normal;writing-mode:lr-tb;fill:#000000;fill-opacity:1;fill-rule:nonzero;stroke:none;font-family:DejaVu Sans;-inkscape-font-specification:DejaVuSans">RO</tspan>
            <tspan
               id="tspan4431"
               sodipodi:role="line"
               y="29.718716"
               x="78.984001 88.183998 92.520157 101.04811 111.99211"
               style="font-size:16px;font-variant:normal;font-weight:normal;writing-mode:lr-tb;fill:#000000;fill-opacity:1;fill-rule:nonzero;stroke:none;font-family:DejaVu Sans;-inkscape-font-specification:DejaVuSans">F-TAU</tspan>
          </text>
        </g>
        <path
           id="path4433"
           style="fill:none;stroke:#000000;stroke-width:8;stroke-linecap:butt;stroke-linejoin:miter;stroke-miterlimit:4;stroke-opacity:1;stroke-dasharray:none"
           d="m 2278.36,3476.39 635.19,0"
           inkscape:connector-curvature="0" />
        <path
           id="path4435"
           style="fill:none;stroke:#000000;stroke-width:8;stroke-linecap:butt;stroke-linejoin:miter;stroke-miterlimit:4;stroke-opacity:1;stroke-dasharray:none"
           d="m 329.801,3476.39 -325.74241,0 0,577.16 5245.74141,0 0,-577.16 -387.69,0"
           inkscape:connector-curvature="0" />
        <path
           id="path4437"
           style="fill:#e8e8e8;fill-opacity:1;fill-rule:nonzero;stroke:none"
           d="m 1697.42,2480.3 c -118.36,67.5 -119.1,69.1 -53.9,115.9 49.06,35.23 36.21,36.99 132.96,-18.56 97.62,-56.05 95.71,-54.57 95.71,-73.24 0,-21.56 -3.6,-25.47 -45.24,-48.86 -47.85,-26.88 -34.41,-29.46 -129.53,24.76 z m 195.98,59.26 c -49.77,18.55 -101.25,49.37 -132.58,79.41 -15.39,14.73 -25.2,165 -12.34,189.03 7.38,13.79 98.16,61.09 117.18,61.09 17,0 126.72,-57.46 168.09,-88.01 12.73,-9.41 18.79,-177.73 6.76,-187.73 -10.9,-9.03 -109.96,-64.03 -115.04,-63.87 -3.09,0.12 -17.54,4.61 -32.07,10.08 z m 85.86,198.01 c 35.86,19.61 34.88,19.96 -52.35,17.81 -74.14,-1.84 -74.14,-1.84 -44.14,-16.25 54.38,-26.13 53.99,-25.98 61.8,-21.09 3.91,2.42 19.49,11.21 34.69,19.53"
           inkscape:connector-curvature="0" />
        <path
           id="path4439"
           style="fill:#d3d3d3;fill-opacity:1;fill-rule:nonzero;stroke:none"
           d="m 1693.98,2484.6 c -109.72,63.16 -110.89,65.74 -48.9,109.76 47.34,33.6 37.03,35.24 135,-21.25 92.73,-53.47 88.47,-49.96 88.55,-72.69 0.04,-18.83 0.12,-18.79 -48.36,-46.41 -38.16,-21.76 -33.28,-22.93 -126.29,30.59 z m 120.36,2.58 c 24.76,14.18 24.88,14.61 5.54,24.64 -9.1,4.73 -19.26,10.82 -22.58,13.48 -3.35,2.7 -10.15,4.1 -15.23,3.13 -6.84,-1.29 -8.67,-0.51 -7.23,3.24 2.11,5.47 -10.89,11.95 -18.32,9.14 -2.81,-1.06 -3.71,0.27 -2.38,3.67 3.83,10.04 -11.17,10.55 -26.44,0.9 -7.82,-4.96 -15.98,-8.99 -18.09,-8.99 -4.77,0 5.94,11.02 15.39,15.86 3.83,1.96 6.76,5.12 6.56,7.07 -0.62,5.9 -16.79,6.02 -21.64,0.2 -5.08,-6.13 -14.26,-7.38 -14.26,-1.95 0,1.95 3.01,3.51 6.68,3.51 7.66,0 13.09,10.2 6.49,12.19 -16.06,4.92 -31.21,4.92 -27.15,0 4.57,-5.47 2.15,-6.52 -12.5,-5.35 -5.39,0.43 -5.94,-0.24 -2.23,-2.74 3.95,-2.65 3.6,-3.94 -1.75,-6.99 -7.19,-4.02 -4.85,-8.4 8.71,-16.05 3.9,-2.19 30.62,-17.89 59.37,-34.89 59.73,-35.27 56.06,-34.37 81.06,-20.07 z m 80.82,54.02 c -48.09,18.16 -96.57,46.6 -129.77,76.17 -21.29,18.95 -27.19,183.24 -7.07,197.11 95.27,65.66 101.21,65.94 199.22,9.26 95.47,-55.24 87.66,-42.93 87.26,-137.31 -0.39,-96.87 4.77,-85.97 -58,-122.65 -57.62,-33.67 -60.43,-34.34 -91.64,-22.58 z m 80.07,191.33 c 42.82,24.26 45.04,18.71 -22.5,56.29 -31.4,17.5 -63.78,35.54 -72.03,40.15 -14.96,8.4 -14.96,8.4 -52.34,-12.3 -43.59,-24.14 -42.58,-22.03 -18.83,-39.38 33.09,-24.18 110.82,-63.79 126.02,-64.22 2.77,-0.07 20.66,8.68 39.68,19.46"
           inkscape:connector-curvature="0" />
        <path
           id="path4441"
           style="fill:#afafaf;fill-opacity:1;fill-rule:nonzero;stroke:none"
           d="m 1695.7,2485.65 c -112.58,64.81 -114.02,76.76 -15.47,130.59 10.94,5.98 168.95,-76.99 184.03,-96.64 15.94,-20.78 5.12,-35.74 -47.5,-65.63 -36.53,-20.74 -24.57,-23.86 -121.06,31.68 z m 118.79,-0.31 c 29.77,16.68 29.73,16.76 -28.01,49.26 -108,60.86 -93.39,56.17 -118.43,38.2 -25.75,-18.48 -26.76,-16.52 22.3,-44.37 15.55,-8.83 43.28,-24.93 61.6,-35.82 39.53,-23.44 34.65,-22.86 62.54,-7.27 z m 85.94,55.98 c -48.79,17.07 -103.09,49.18 -134.65,79.61 -22.93,22.11 -27.5,175.82 -5.7,191.87 27.19,20.04 94.61,55.47 105.51,55.47 10.78,0 157.73,-81.02 170.97,-94.22 8.44,-8.48 7.46,-170.98 -1.05,-178.4 -8.63,-7.5 -104.85,-62.85 -108.83,-62.58 -1.8,0.08 -13.59,3.79 -26.25,8.25 z m 75.86,189.72 c 44.76,25.67 47.69,19.46 -29.96,63.99 -90.78,52.11 -75.16,49.02 -120.24,23.71 -45.39,-25.51 -44.68,-23.67 -16.56,-44.42 26.25,-19.33 110.27,-62.18 126.76,-64.6 1.25,-0.16 19.26,9.41 40,21.32"
           inkscape:connector-curvature="0" />
        <path
           id="path4443"
           style="fill:#919191;fill-opacity:1;fill-rule:nonzero;stroke:none"
           d="m 1693.91,2488.47 c -105.82,60.89 -105.94,61.21 -43.48,105.7 40.66,28.94 63.83,21.25 201.48,-67.03 28.09,-18.05 20.51,-38.83 -23.59,-64.57 -46.84,-27.39 -39.37,-28.83 -134.41,25.9 z m 124.45,-2.9 c 30.08,16.8 29.76,17.35 -23.83,46.49 -14.57,7.93 -43.16,24.02 -63.51,35.82 -20.36,11.8 -38.72,21.44 -40.82,21.44 -5.71,0 -48.09,-32.3 -45.71,-34.84 7.58,-8.05 142.23,-84.26 146.49,-82.93 2.93,0.94 15.23,7.23 27.38,14.02 z m 72.81,60.98 c -48.9,19.3 -92.19,45.7 -125.86,76.8 -41.79,38.63 -15.04,183.2 39.81,215 64.14,37.15 53.55,38.32 149.18,-16.64 95.9,-55.12 87.46,-41.72 87.15,-138.17 -0.32,-91.91 4.84,-81.29 -57.04,-117.11 -58.12,-33.63 -58.28,-33.67 -93.24,-19.88 z m 86.33,183.13 c 21.64,12.22 35.62,22.26 35.08,25.19 -1.06,5.7 -138.32,85.2 -146.92,85.08 -7.77,-0.08 -81.71,-41.72 -81.71,-46.02 0,-12.93 126.67,-83.16 152.03,-84.29 3.04,-0.12 21.72,8.9 41.52,20.04"
           inkscape:connector-curvature="0" />
        <path
           id="path4445"
           style="fill:#5a5a5a;fill-opacity:1;fill-rule:nonzero;stroke:none"
           d="m 1701.05,2486.98 c -97.61,55.59 -99.72,57.42 -87.42,76.33 6.45,9.88 73.25,54.18 78.99,52.34 40.86,-12.97 172.54,-98.94 172.54,-112.69 0,-14.96 -61.72,-61.92 -81.45,-61.92 -1.13,0 -38.32,20.67 -82.66,45.94 z m 115.16,-5.04 c 37.58,21.25 41.06,16.6 -52.62,70.08 -83.86,47.89 -70.35,44.53 -98.36,24.53 -30.07,-21.44 -31.28,-19.8 48.09,-66.41 78.79,-46.28 73.48,-44.84 102.89,-28.2 z m 77.19,66.13 c -50.67,19.22 -120.67,62.86 -135.98,84.77 -7.07,10.08 -7.81,163.75 -0.86,172.62 5.2,6.56 102.46,62.81 108.67,62.81 4.77,0 157.19,-86.56 166.72,-94.69 6.72,-5.7 9.61,-162.77 3.21,-172.89 -3.05,-4.84 -94.96,-58.94 -105.47,-62.15 -3.48,-1.01 -19.81,3.25 -36.29,9.53 z m 80.98,177.58 c 42.1,23.64 46.95,28.28 37.14,35.51 -13.04,9.65 -141.91,82.38 -145.93,82.38 -4.18,0 -77.5,-40.58 -83.09,-46.01 -8.05,-7.78 51.25,-48.24 103.05,-70.31 18.86,-8.05 36.72,-16.06 39.61,-17.82 9.06,-5.35 12.89,-4.1 49.22,16.25"
           inkscape:connector-curvature="0" />
        <path
           id="path4447"
           style="fill:#2b2b2b;fill-opacity:1;fill-rule:nonzero;stroke:none"
           d="m 1697.42,2491.59 c -100.47,57.62 -103.08,85.7 -11.17,120.98 5.27,2.03 152.73,-79.22 169.18,-93.21 17.73,-15.11 9.06,-30.54 -30,-53.47 -45.16,-26.49 -32.66,-28.99 -128.01,25.7 z m 120.9,-10.98 c 37.62,21.53 37.93,21.02 -51.84,72.62 -75.7,43.52 -75.7,43.52 -100.07,26.84 -38.95,-26.6 -42.82,-20.86 50.43,-75.43 76.25,-44.65 68.59,-42.85 101.48,-24.03 z m 83.24,66.33 c -43.75,15.55 -92.65,43.63 -127.42,73.17 -47.42,40.27 -24.22,181.21 35.51,215.43 62.34,35.74 47.15,37.77 145.51,-19.3 77.69,-45.08 77.69,-45.08 77.69,-131.13 0,-96.68 -62.62,-162.58 -131.29,-138.17 z m -8.16,27.62 c 0,1.6 -8.44,6.37 -18.71,10.62 -19.57,8.13 -77.46,44.22 -88.13,54.93 -5.31,5.39 -6.17,13.47 -6.17,58.94 0,32.77 -1.33,52.7 -3.51,52.7 -7.78,0 -4.34,-100.43 3.78,-110.75 17.86,-22.69 112.74,-78.59 112.74,-66.44 z m 82.22,149.02 c 57.97,33.24 60.36,27.7 -35.27,82.58 -84.33,48.36 -68.9,46.17 -119.61,17.11 -56.87,-32.66 -40.74,-55.82 70.86,-101.56 17.5,-7.15 33.32,-14.46 35.16,-16.21 5.86,-5.55 11.01,-3.64 48.86,18.08"
           inkscape:connector-curvature="0" />
        <path
           id="path4449"
           style="fill:#0a0a0a;fill-opacity:1;fill-rule:nonzero;stroke:none"
           d="m 1700.94,2492.57 c -105.32,60.11 -103.17,55.97 -48.99,94.41 41.17,29.14 29.42,31.49 126.68,-24.96 99.49,-57.73 101.45,-61.76 44.96,-94.02 -43.59,-24.93 -31.71,-27.31 -122.65,24.57 z m 119.18,-14.26 c 42.46,24.73 44.26,22.38 -66.37,85.66 -66.13,37.85 -63.52,37.46 -94.3,14.73 -33.94,-25.04 -35.11,-23.4 51.25,-73.2 87.11,-50.24 75.04,-47.23 109.42,-27.19 z m 67.97,76.95 c -46.68,19.34 -76.1,36.84 -112.11,66.72 -39.96,33.2 -23.75,178.01 22.97,204.96 73.94,42.62 56.17,43.83 149.8,-10.08 95.47,-54.96 85.86,-40.15 85.86,-132.18 0,-90.28 5.43,-79.3 -56.64,-114.3 -54.96,-30.94 -52.58,-30.55 -89.88,-15.12 z m 12.34,17.5 c 0,2.54 -11.48,10.08 -25.55,16.8 -37.42,17.81 -87.03,51.68 -89.22,60.9 -0.97,4.26 -2.18,30.78 -2.65,58.94 -0.71,42.78 -1.72,51.17 -6.13,51.17 -7.97,0 -9.69,-108.43 -1.92,-120.27 17.58,-26.87 125.47,-84.92 125.47,-67.54 z m 40.62,62.78 c 0,65.03 0,65.03 38.83,87.03 59.61,33.75 61.8,30.9 -85.58,112.5 -29.53,16.32 -66.88,5.43 -113.13,-33.01 -15.35,-12.77 35.43,-52.19 104.88,-81.41 20.55,-8.63 39.34,-17.3 41.76,-19.22 3.24,-2.57 4.42,-20.74 4.42,-68.67 0,-50.58 0.97,-64.84 4.41,-63.71 3.32,1.09 4.41,17.62 4.41,66.49 z m -22.96,-2.27 c 0,14.45 -1.57,27.27 -3.52,28.44 -2.23,1.4 -3.52,-8.21 -3.52,-26.25 0,-16.64 1.45,-28.48 3.52,-28.48 2.03,0 3.52,11.13 3.52,26.29 z m -2.82,48.59 c -3.28,3.28 -4.22,2.35 -4.22,-4.25 0,-6.61 0.94,-7.54 4.22,-4.22 3.28,3.28 3.28,5.15 0,8.47"
           inkscape:connector-curvature="0" />
        <path
           id="path4451"
           style="fill:#e8e8e8;fill-opacity:1;fill-rule:nonzero;stroke:none"
           d="m 952.23,2479.44 c -118.359,67.5 -119.109,69.1 -53.91,115.9 49.059,35.23 36.211,37.03 132.97,-18.55 97.62,-56.06 95.74,-54.57 95.74,-73.25 0,-21.56 -3.63,-25.47 -45.27,-48.86 -47.85,-26.88 -34.42,-29.46 -129.53,24.76 z m 195.97,59.26 c -49.76,18.55 -101.25,49.41 -132.58,79.41 -15.39,14.73 -25.19,165 -12.34,189.03 7.38,13.79 98.17,61.09 117.19,61.09 16.99,0 126.72,-57.46 168.08,-88.01 12.74,-9.41 18.79,-177.73 6.76,-187.69 -10.9,-9.06 -109.92,-64.06 -115.04,-63.91 -3.08,0.12 -17.5,4.65 -32.07,10.08 z m 85.86,198.01 c 35.86,19.61 34.89,19.96 -52.3,17.81 -74.18,-1.84 -74.18,-1.84 -44.14,-16.25 54.33,-26.09 53.94,-25.98 61.76,-21.09 3.9,2.42 19.49,11.21 34.68,19.53"
           inkscape:connector-curvature="0" />
        <path
           id="path4453"
           style="fill:#d3d3d3;fill-opacity:1;fill-rule:nonzero;stroke:none"
           d="m 948.789,2483.74 c -109.73,63.16 -110.859,65.74 -48.867,109.76 47.348,33.6 36.988,35.24 134.958,-21.25 92.74,-53.47 88.48,-49.96 88.56,-72.69 0.04,-18.83 0.11,-18.79 -48.36,-46.41 -38.17,-21.76 -33.28,-22.93 -126.291,30.59 z m 120.351,2.58 c 24.77,14.18 24.88,14.61 5.59,24.65 -9.11,4.76 -19.3,10.82 -22.62,13.47 -3.36,2.7 -10.16,4.1 -15.2,3.13 -6.87,-1.29 -8.71,-0.47 -7.26,3.24 2.11,5.47 -10.9,11.99 -18.32,9.14 -2.81,-1.06 -3.67,0.27 -2.38,3.67 3.82,10.04 -11.141,10.55 -26.411,0.9 -7.848,-4.96 -16.019,-8.98 -18.129,-8.98 -4.762,0 5.942,11.01 15.391,15.85 3.828,1.96 6.801,5.16 6.57,7.08 -0.633,5.89 -16.762,6.05 -21.641,0.19 -5.082,-6.13 -14.261,-7.38 -14.261,-1.95 0,1.95 3.011,3.51 6.679,3.51 7.653,0 13.082,10.2 6.524,12.23 -16.094,4.88 -31.25,4.88 -27.192,-0.04 4.571,-5.47 2.149,-6.52 -12.5,-5.35 -5.39,0.43 -5.89,-0.2 -2.218,-2.74 3.937,-2.65 3.59,-3.94 -1.762,-6.99 -7.191,-4.02 -4.801,-8.4 8.711,-16.05 3.91,-2.19 30.629,-17.89 59.379,-34.89 59.72,-35.27 56.05,-34.37 81.05,-20.07 z m 80.82,54.02 c -48.08,18.16 -96.56,46.64 -129.76,76.17 -21.29,18.99 -27.149,183.24 -7.08,197.11 95.28,65.67 101.22,65.94 199.22,9.26 95.47,-55.2 87.66,-42.93 87.27,-137.31 -0.39,-96.87 4.77,-85.97 -58.01,-122.65 -57.62,-33.67 -60.43,-34.34 -91.64,-22.58 z m 80.12,191.33 c 42.77,24.26 45,18.71 -22.54,56.33 -31.37,17.46 -63.79,35.5 -72.03,40.11 -14.96,8.4 -14.96,8.4 -52.35,-12.3 -43.55,-24.14 -42.57,-22.03 -18.82,-39.38 33.08,-24.18 110.82,-63.79 126.01,-64.21 2.77,-0.08 20.67,8.67 39.73,19.45"
           inkscape:connector-curvature="0" />
        <path
           id="path4455"
           style="fill:#afafaf;fill-opacity:1;fill-rule:nonzero;stroke:none"
           d="m 950.512,2484.79 c -112.582,64.81 -113.992,76.76 -15.473,130.59 10.941,5.98 168.941,-76.99 184.021,-96.64 15.94,-20.78 5.12,-35.74 -47.5,-65.63 -36.52,-20.74 -24.57,-23.86 -121.048,31.68 z m 118.788,-0.27 c 29.76,16.64 29.72,16.72 -28.01,49.26 -108.009,60.82 -93.399,56.13 -118.438,38.16 -25.743,-18.47 -26.723,-16.52 22.347,-44.37 15.5,-8.83 43.242,-24.93 61.601,-35.82 39.49,-23.4 34.61,-22.86 62.5,-7.23 z m 85.97,55.94 c -48.82,17.07 -103.12,49.18 -134.68,79.65 -22.93,22.07 -27.469,175.78 -5.67,191.87 27.15,20 94.57,55.43 105.47,55.43 10.78,0 157.73,-81.02 170.98,-94.22 8.43,-8.47 7.5,-170.97 -1.06,-178.4 -8.63,-7.5 -104.84,-62.85 -108.83,-62.57 -1.79,0.11 -13.59,3.82 -26.21,8.24 z m 75.86,189.72 c 44.73,25.67 47.66,19.46 -29.96,63.99 -90.82,52.11 -75.19,49.02 -120.27,23.71 -45.39,-25.51 -44.69,-23.67 -16.56,-44.41 26.25,-19.34 110.31,-62.19 126.75,-64.61 1.25,-0.16 19.26,9.41 40.04,21.32"
           inkscape:connector-curvature="0" />
        <path
           id="path4457"
           style="fill:#919191;fill-opacity:1;fill-rule:nonzero;stroke:none"
           d="m 948.711,2487.61 c -105.781,60.89 -105.941,61.25 -43.481,105.7 40.668,28.94 63.872,21.25 201.49,-67.03 28.08,-18.05 20.51,-38.83 -23.56,-64.57 -46.87,-27.39 -39.41,-28.83 -134.449,25.9 z m 124.449,-2.89 c 30.08,16.79 29.81,17.34 -23.82,46.48 -14.57,7.93 -43.13,24.06 -63.52,35.86 -20.351,11.8 -38.711,21.44 -40.82,21.44 -5.699,0 -48.09,-32.34 -45.699,-34.88 7.578,-8.05 142.259,-84.26 146.519,-82.93 2.89,0.94 15.2,7.23 27.34,14.03 z m 72.82,60.97 c -48.91,19.3 -92.19,45.7 -125.82,76.8 -41.84,38.63 -15.08,183.24 39.76,215 64.14,37.15 53.56,38.32 149.18,-16.64 95.9,-55.12 87.46,-41.72 87.15,-138.13 -0.31,-91.95 4.84,-81.33 -57.03,-117.15 -58.13,-33.63 -58.28,-33.67 -93.24,-19.88 z m 86.32,183.17 c 21.65,12.18 35.63,22.22 35.08,25.15 -1.05,5.71 -138.32,85.2 -146.91,85.12 -7.77,-0.12 -81.72,-41.76 -81.72,-46.06 0,-12.89 126.68,-83.16 152.07,-84.29 3.01,-0.12 21.72,8.9 41.48,20.08"
           inkscape:connector-curvature="0" />
        <path
           id="path4459"
           style="fill:#5a5a5a;fill-opacity:1;fill-rule:nonzero;stroke:none"
           d="m 955.859,2486.12 c -97.621,55.59 -99.73,57.42 -87.418,76.33 6.438,9.92 73.278,54.18 79.02,52.34 40.859,-12.97 172.499,-98.94 172.499,-112.69 0,-14.96 -61.72,-61.92 -81.44,-61.92 -1.1,0 -38.32,20.67 -82.661,45.94 z m 115.161,-5.04 c 37.57,21.25 41.09,16.6 -52.62,70.08 -83.869,47.93 -70.31,44.53 -98.361,24.53 -30.078,-21.44 -31.289,-19.8 48.082,-66.4 78.789,-46.29 73.479,-44.85 102.899,-28.21 z m 77.18,66.14 c -50.66,19.21 -120.62,62.89 -135.97,84.76 -7.07,10.08 -7.82,163.75 -0.86,172.62 5.19,6.6 102.46,62.81 108.67,62.81 4.8,0 157.19,-86.52 166.76,-94.69 6.68,-5.7 9.57,-162.77 3.16,-172.89 -3.05,-4.84 -94.92,-58.94 -105.47,-62.11 -3.44,-1.05 -19.8,3.21 -36.29,9.5 z m 80.98,177.57 c 42.11,23.64 46.99,28.28 37.15,35.51 -13.05,9.65 -141.92,82.42 -145.94,82.42 -4.18,0 -77.5,-40.62 -83.09,-46.05 -8.04,-7.78 51.25,-48.2 103.05,-70.31 18.87,-8.05 36.72,-16.06 39.61,-17.78 9.06,-5.39 12.89,-4.14 49.22,16.21"
           inkscape:connector-curvature="0" />
        <path
           id="path4461"
           style="fill:#2b2b2b;fill-opacity:1;fill-rule:nonzero;stroke:none"
           d="m 952.23,2490.73 c -100.468,57.66 -103.05,85.7 -11.14,120.98 5.238,2.03 152.74,-79.22 169.14,-93.21 17.74,-15.07 9.07,-30.54 -30,-53.47 -45.11,-26.49 -32.65,-28.99 -128,25.7 z m 120.89,-10.98 c 37.62,21.53 37.97,21.02 -51.83,72.62 -75.7,43.52 -75.7,43.52 -100.079,26.84 -38.941,-26.6 -42.77,-20.86 50.43,-75.43 76.289,-44.65 68.589,-42.85 101.479,-24.03 z m 83.29,66.33 c -43.79,15.55 -92.66,43.64 -127.43,73.17 -47.46,40.27 -24.21,181.21 35.47,215.43 62.35,35.74 47.19,37.77 145.55,-19.3 77.66,-45.04 77.66,-45.04 77.66,-131.09 0,-96.72 -62.62,-162.62 -131.25,-138.21 z m -8.21,27.62 c 0,1.6 -8.43,6.37 -18.71,10.66 -19.53,8.09 -77.46,44.18 -88.08,54.89 -5.36,5.39 -6.21,13.47 -6.21,58.94 0,32.78 -1.33,52.7 -3.52,52.7 -7.77,0 -4.34,-100.39 3.79,-110.75 17.85,-22.69 112.73,-78.59 112.73,-66.44 z m 82.27,149.02 c 57.93,33.28 60.31,27.7 -35.31,82.58 -84.3,48.4 -68.91,46.17 -119.57,17.11 -56.92,-32.66 -40.79,-55.82 70.86,-101.56 17.46,-7.15 33.28,-14.46 35.11,-16.21 5.86,-5.55 11.02,-3.64 48.91,18.08"
           inkscape:connector-curvature="0" />
        <path
           id="path4463"
           style="fill:#0a0a0a;fill-opacity:1;fill-rule:nonzero;stroke:none"
           d="m 955.781,2491.71 c -105.312,60.11 -103.203,56.01 -49.019,94.41 41.168,29.14 29.41,31.49 126.678,-24.96 99.49,-57.69 101.44,-61.76 44.96,-94.02 -43.6,-24.89 -31.72,-27.27 -122.619,24.57 z m 119.139,-14.26 c 42.46,24.73 44.26,22.38 -66.37,85.66 -66.128,37.86 -63.511,37.46 -94.249,14.73 -33.992,-25.04 -35.16,-23.4 51.25,-73.2 87.069,-50.24 74.999,-47.23 109.369,-27.19 z m 67.97,76.95 c -46.68,19.34 -76.09,36.84 -112.11,66.72 -39.96,33.2 -23.75,178.01 22.97,204.96 73.95,42.66 56.17,43.83 149.8,-10.08 95.51,-54.92 85.86,-40.11 85.86,-132.18 0,-90.28 5.47,-79.3 -56.64,-114.3 -54.96,-30.94 -52.57,-30.55 -89.88,-15.12 z m 12.38,17.5 c 0,2.54 -11.52,10.12 -25.54,16.8 -37.46,17.81 -87.07,51.68 -89.22,60.9 -1.02,4.26 -2.19,30.78 -2.66,58.94 -0.74,42.78 -1.76,51.18 -6.17,51.18 -7.97,0 -9.69,-108.44 -1.91,-120.28 17.57,-26.83 125.5,-84.92 125.5,-67.54 z m 40.59,62.78 c 0,65.04 0,65.04 38.83,87.03 59.61,33.75 61.79,30.9 -85.59,112.5 -29.53,16.33 -66.87,5.43 -113.12,-33.01 -15.36,-12.77 35.47,-52.19 104.88,-81.41 20.55,-8.63 39.34,-17.26 41.76,-19.22 3.24,-2.57 4.41,-20.74 4.41,-68.67 0,-50.58 0.98,-64.84 4.42,-63.71 3.32,1.1 4.41,17.62 4.41,66.49 z m -22.93,-2.27 c 0,14.45 -1.6,27.27 -3.55,28.48 -2.23,1.36 -3.52,-8.21 -3.52,-26.29 0,-16.6 1.44,-28.44 3.52,-28.44 2.03,0 3.55,11.09 3.55,26.25 z m -2.85,48.59 c -3.28,3.29 -4.22,2.35 -4.22,-4.25 0,-6.57 0.94,-7.54 4.22,-4.22 3.32,3.28 3.32,5.15 0,8.47"
           inkscape:connector-curvature="0" />
        <path
           id="path4465"
           style="fill:none;stroke:#000000;stroke-width:8;stroke-linecap:butt;stroke-linejoin:miter;stroke-miterlimit:4;stroke-opacity:1;stroke-dasharray:none"
           d="m 1112.03,2864.13 0,389.42"
           inkscape:connector-curvature="0" />
        <path
           id="path4467"
           style="fill:none;stroke:#000000;stroke-width:8;stroke-linecap:butt;stroke-linejoin:miter;stroke-miterlimit:4;stroke-opacity:1;stroke-dasharray:none"
           d="m 1864.88,2868.23 0,385.32"
           inkscape:connector-curvature="0" />
        <g
           transform="scale(10,10)"
           id="g4469">
          <text
             id="text4471"
             transform="matrix(1,0,0,-1,140.952,266.165)">
            <tspan
               id="tspan4473"
               sodipodi:role="line"
               y="0"
               x="0 5.0879998 10.176"
               style="font-size:16px;font-variant:normal;font-weight:normal;writing-mode:lr-tb;fill:#000000;fill-opacity:1;fill-rule:nonzero;stroke:none;font-family:DejaVu Sans;-inkscape-font-specification:DejaVuSans">...</tspan>
          </text>
        </g>
        <path
           id="path4475"
           style="fill:#e8e8e8;fill-opacity:1;fill-rule:nonzero;stroke:none"
           d="m 3734.88,2479.44 c -118.36,67.5 -119.1,69.1 -53.9,115.9 49.06,35.23 36.21,37.03 132.97,-18.55 97.61,-56.06 95.7,-54.57 95.7,-73.25 0,-21.56 -3.6,-25.47 -45.24,-48.86 -47.85,-26.88 -34.41,-29.46 -129.53,24.76 z m 195.98,59.26 c -49.77,18.55 -101.25,49.41 -132.58,79.41 -15.39,14.73 -25.19,165 -12.34,189.03 7.38,13.79 98.16,61.09 117.18,61.09 17,0 126.72,-57.46 168.09,-88.01 12.74,-9.41 18.79,-177.73 6.76,-187.69 -10.9,-9.06 -109.92,-64.06 -115.04,-63.91 -3.09,0.12 -17.5,4.65 -32.07,10.08 z m 85.86,198.01 c 35.86,19.61 34.88,19.96 -52.34,17.81 -74.15,-1.84 -74.15,-1.84 -44.11,-16.25 54.34,-26.09 53.95,-25.98 61.76,-21.09 3.91,2.42 19.49,11.21 34.69,19.53"
           inkscape:connector-curvature="0" />
        <path
           id="path4477"
           style="fill:#d3d3d3;fill-opacity:1;fill-rule:nonzero;stroke:none"
           d="m 3731.45,2483.74 c -109.73,63.16 -110.9,65.74 -48.91,109.76 47.34,33.6 37.03,35.24 135,-21.25 92.73,-53.47 88.48,-49.96 88.55,-72.69 0.04,-18.83 0.12,-18.79 -48.36,-46.41 -38.16,-21.76 -33.28,-22.93 -126.28,30.59 z m 120.35,2.58 c 24.76,14.18 24.88,14.61 5.58,24.65 -9.1,4.76 -19.29,10.82 -22.61,13.47 -3.36,2.7 -10.16,4.1 -15.24,3.13 -6.83,-1.29 -8.67,-0.47 -7.23,3.24 2.11,5.47 -10.89,11.99 -18.32,9.14 -2.81,-1.06 -3.71,0.27 -2.38,3.67 3.83,10.04 -11.17,10.55 -26.44,0.9 -7.82,-4.96 -15.98,-8.98 -18.09,-8.98 -4.77,0 5.94,11.01 15.39,15.85 3.83,1.96 6.76,5.16 6.56,7.08 -0.62,5.89 -16.75,6.05 -21.64,0.19 -5.08,-6.13 -14.26,-7.38 -14.26,-1.95 0,1.95 3.01,3.51 6.68,3.51 7.66,0 13.09,10.2 6.49,12.23 -16.06,4.88 -31.21,4.88 -27.15,-0.04 4.57,-5.47 2.15,-6.52 -12.5,-5.35 -5.39,0.43 -5.9,-0.2 -2.23,-2.74 3.95,-2.65 3.6,-3.94 -1.75,-6.99 -7.19,-4.02 -4.81,-8.4 8.71,-16.05 3.9,-2.19 30.62,-17.89 59.37,-34.89 59.73,-35.27 56.06,-34.37 81.06,-20.07 z m 80.82,54.02 c -48.09,18.16 -96.57,46.64 -129.77,76.17 -21.29,18.99 -27.19,183.24 -7.07,197.11 95.27,65.67 101.21,65.94 199.22,9.26 95.47,-55.2 87.66,-42.93 87.27,-137.31 -0.39,-96.87 4.76,-85.97 -58.01,-122.65 -57.62,-33.67 -60.43,-34.34 -91.64,-22.58 z m 80.08,191.33 c 42.81,24.26 45.03,18.71 -22.5,56.33 -31.41,17.46 -63.79,35.5 -72.04,40.11 -14.96,8.4 -14.96,8.4 -52.34,-12.3 -43.55,-24.14 -42.58,-22.03 -18.83,-39.38 33.09,-24.18 110.82,-63.79 126.02,-64.21 2.77,-0.08 20.66,8.67 39.69,19.45"
           inkscape:connector-curvature="0" />
        <path
           id="path4479"
           style="fill:#afafaf;fill-opacity:1;fill-rule:nonzero;stroke:none"
           d="m 3733.16,2484.79 c -112.57,64.81 -114.02,76.76 -15.46,130.59 10.93,5.98 168.94,-76.99 184.02,-96.64 15.94,-20.78 5.12,-35.74 -47.5,-65.63 -36.52,-20.74 -24.57,-23.86 -121.06,31.68 z m 118.79,-0.27 c 29.77,16.64 29.73,16.72 -28,49.26 -108.01,60.82 -93.4,56.13 -118.44,38.16 -25.74,-18.47 -26.72,-16.52 22.3,-44.37 15.55,-8.83 43.28,-24.93 61.64,-35.82 39.5,-23.4 34.61,-22.86 62.5,-7.23 z m 85.94,55.94 c -48.79,17.07 -103.09,49.18 -134.65,79.65 -22.93,22.07 -27.46,175.78 -5.66,191.87 27.15,20 94.57,55.43 105.47,55.43 10.78,0 157.73,-81.02 170.97,-94.22 8.44,-8.47 7.46,-170.97 -1.05,-178.4 -8.63,-7.5 -104.85,-62.85 -108.83,-62.57 -1.8,0.11 -13.59,3.82 -26.25,8.24 z m 75.86,189.72 c 44.77,25.67 47.7,19.46 -29.92,63.99 -90.82,52.11 -75.2,49.02 -120.28,23.71 -45.39,-25.51 -44.68,-23.67 -16.56,-44.41 26.25,-19.34 110.28,-62.19 126.76,-64.61 1.25,-0.16 19.26,9.41 40,21.32"
           inkscape:connector-curvature="0" />
        <path
           id="path4481"
           style="fill:#919191;fill-opacity:1;fill-rule:nonzero;stroke:none"
           d="m 3731.37,2487.61 c -105.82,60.89 -105.94,61.25 -43.48,105.7 40.66,28.94 63.83,21.25 201.49,-67.03 28.08,-18.05 20.5,-38.83 -23.56,-64.57 -46.87,-27.39 -39.41,-28.83 -134.45,25.9 z m 124.45,-2.89 c 30.08,16.79 29.8,17.34 -23.83,46.48 -14.57,7.93 -43.16,24.06 -63.51,35.86 -20.36,11.8 -38.71,21.44 -40.82,21.44 -5.71,0 -48.09,-32.34 -45.71,-34.88 7.58,-8.05 142.27,-84.26 146.49,-82.93 2.93,0.94 15.23,7.23 27.38,14.03 z m 72.81,60.97 c -48.9,19.3 -92.18,45.7 -125.82,76.8 -41.83,38.63 -15.08,183.24 39.77,215 64.14,37.15 53.55,38.32 149.18,-16.64 95.9,-55.12 87.46,-41.72 87.15,-138.13 -0.32,-91.95 4.84,-81.33 -57.03,-117.15 -58.13,-33.63 -58.29,-33.67 -93.25,-19.88 z m 86.33,183.17 c 21.64,12.18 35.63,22.22 35.08,25.15 -1.06,5.71 -138.32,85.2 -146.92,85.12 -7.77,-0.12 -81.71,-41.76 -81.71,-46.06 0,-12.89 126.68,-83.16 152.03,-84.29 3.04,-0.12 21.72,8.9 41.52,20.08"
           inkscape:connector-curvature="0" />
        <path
           id="path4483"
           style="fill:#5a5a5a;fill-opacity:1;fill-rule:nonzero;stroke:none"
           d="m 3738.52,2486.12 c -97.62,55.59 -99.73,57.42 -87.43,76.33 6.45,9.92 73.29,54.18 78.99,52.34 40.9,-12.97 172.54,-98.94 172.54,-112.69 0,-14.96 -61.72,-61.92 -81.45,-61.92 -1.09,0 -38.32,20.67 -82.65,45.94 z m 115.15,-5.04 c 37.58,21.25 41.06,16.6 -52.62,70.08 -83.86,47.93 -70.35,44.53 -98.35,24.53 -30.08,-21.44 -31.29,-19.8 48.08,-66.4 78.79,-46.29 73.48,-44.85 102.89,-28.21 z m 77.19,66.14 c -50.66,19.21 -120.66,62.89 -135.98,84.76 -7.07,10.08 -7.81,163.75 -0.86,172.62 5.2,6.6 102.46,62.81 108.68,62.81 4.76,0 157.18,-86.52 166.71,-94.69 6.72,-5.7 9.61,-162.77 3.21,-172.89 -3.05,-4.84 -94.96,-58.94 -105.47,-62.11 -3.48,-1.05 -19.81,3.21 -36.29,9.5 z m 80.98,177.57 c 42.11,23.64 46.95,28.28 37.14,35.51 -13.04,9.65 -141.91,82.42 -145.93,82.42 -4.18,0 -77.5,-40.62 -83.09,-46.05 -8.05,-7.78 51.25,-48.2 103.05,-70.31 18.87,-8.05 36.72,-16.06 39.61,-17.78 9.06,-5.39 12.89,-4.14 49.22,16.21"
           inkscape:connector-curvature="0" />
        <path
           id="path4485"
           style="fill:#2b2b2b;fill-opacity:1;fill-rule:nonzero;stroke:none"
           d="m 3734.88,2490.73 c -100.47,57.66 -103.04,85.7 -11.13,120.98 5.23,2.03 152.7,-79.22 169.14,-93.21 17.73,-15.07 9.06,-30.54 -30,-53.47 -45.16,-26.49 -32.66,-28.99 -128.01,25.7 z m 120.9,-10.98 c 37.62,21.53 37.97,21.02 -51.83,72.62 -75.71,43.52 -75.71,43.52 -100.08,26.84 -38.95,-26.6 -42.78,-20.86 50.43,-75.43 76.25,-44.65 68.59,-42.85 101.48,-24.03 z m 83.28,66.33 c -43.79,15.55 -92.65,43.64 -127.42,73.17 -47.46,40.27 -24.26,181.21 35.47,215.43 62.34,35.74 47.19,37.77 145.55,-19.3 77.65,-45.04 77.65,-45.04 77.65,-131.09 0,-96.72 -62.61,-162.62 -131.25,-138.21 z m -8.2,27.62 c 0,1.6 -8.44,6.37 -18.71,10.66 -19.57,8.09 -77.46,44.18 -88.13,54.89 -5.31,5.39 -6.17,13.47 -6.17,58.94 0,32.78 -1.33,52.7 -3.51,52.7 -7.78,0 -4.34,-100.39 3.78,-110.75 17.86,-22.69 112.74,-78.59 112.74,-66.44 z m 82.23,149.02 c 57.96,33.28 60.35,27.7 -35.28,82.58 -84.33,48.4 -68.9,46.17 -119.57,17.11 -56.91,-32.66 -40.78,-55.82 70.86,-101.56 17.46,-7.15 33.28,-14.46 35.12,-16.21 5.86,-5.55 11.01,-3.64 48.87,18.08"
           inkscape:connector-curvature="0" />
        <path
           id="path4487"
           style="fill:#0a0a0a;fill-opacity:1;fill-rule:nonzero;stroke:none"
           d="m 3738.44,2491.71 c -105.35,60.11 -103.21,56.01 -49.03,94.41 41.18,29.14 29.42,31.49 126.68,-24.96 99.5,-57.69 101.45,-61.76 44.96,-94.02 -43.59,-24.89 -31.71,-27.27 -122.61,24.57 z m 119.14,-14.26 c 42.46,24.73 44.26,22.38 -66.37,85.66 -66.13,37.86 -63.51,37.46 -94.3,14.73 -33.94,-25.04 -35.11,-23.4 51.29,-73.2 87.07,-50.24 75,-47.23 109.38,-27.19 z m 67.97,76.95 c -46.68,19.34 -76.1,36.84 -112.11,66.72 -39.96,33.2 -23.75,178.01 22.97,204.96 73.94,42.66 56.17,43.83 149.8,-10.08 95.47,-54.92 85.86,-40.11 85.86,-132.18 0,-90.28 5.43,-79.3 -56.64,-114.3 -54.96,-30.94 -52.58,-30.55 -89.88,-15.12 z m 12.34,17.5 c 0,2.54 -11.48,10.12 -25.55,16.8 -37.42,17.81 -87.03,51.68 -89.18,60.9 -1.01,4.26 -2.22,30.78 -2.69,58.94 -0.7,42.78 -1.72,51.18 -6.13,51.18 -7.97,0 -9.69,-108.44 -1.92,-120.28 17.58,-26.83 125.47,-84.92 125.47,-67.54 z m 40.63,62.78 c 0,65.04 0,65.04 38.82,87.03 59.61,33.75 61.8,30.9 -85.58,112.5 -29.53,16.33 -66.88,5.43 -113.13,-33.01 -15.35,-12.77 35.43,-52.19 104.89,-81.41 20.54,-8.63 39.33,-17.26 41.75,-19.22 3.25,-2.57 4.42,-20.74 4.42,-68.67 0,-50.58 0.97,-64.84 4.41,-63.71 3.32,1.1 4.42,17.62 4.42,66.49 z m -22.97,-2.27 c 0,14.45 -1.57,27.27 -3.52,28.48 -2.23,1.36 -3.51,-8.21 -3.51,-26.29 0,-16.6 1.44,-28.44 3.51,-28.44 2.03,0 3.52,11.09 3.52,26.25 z m -2.82,48.59 c -3.28,3.29 -4.21,2.35 -4.21,-4.25 0,-6.57 0.93,-7.54 4.21,-4.22 3.29,3.28 3.29,5.15 0,8.47"
           inkscape:connector-curvature="0" />
        <path
           id="path4489"
           style="fill:#e8e8e8;fill-opacity:1;fill-rule:nonzero;stroke:none"
           d="m 2989.69,2478.58 c -118.36,67.5 -119.1,69.14 -53.91,115.9 49.06,35.24 36.21,37.03 132.97,-18.55 97.66,-56.02 95.74,-54.57 95.74,-73.25 0,-21.56 -3.63,-25.43 -45.27,-48.86 -47.81,-26.88 -34.42,-29.46 -129.53,24.76 z m 195.97,59.26 c -49.76,18.55 -101.25,49.41 -132.57,79.41 -15.39,14.73 -25.16,165.04 -12.31,189.03 7.34,13.79 98.13,61.09 117.19,61.09 16.95,0 126.68,-57.46 168.05,-88.01 12.73,-9.41 18.78,-177.73 6.75,-187.69 -10.89,-9.06 -109.92,-64.06 -115.04,-63.91 -3.08,0.12 -17.5,4.65 -32.07,10.08 z m 85.86,198.01 c 35.86,19.65 34.89,19.96 -52.3,17.81 -74.18,-1.84 -74.18,-1.84 -44.14,-16.25 54.33,-26.09 53.94,-25.98 61.8,-21.09 3.86,2.42 19.45,11.21 34.64,19.53"
           inkscape:connector-curvature="0" />
        <path
           id="path4491"
           style="fill:#d3d3d3;fill-opacity:1;fill-rule:nonzero;stroke:none"
           d="m 2986.25,2482.92 c -109.73,63.12 -110.86,65.7 -48.87,109.72 47.35,33.6 37,35.24 134.96,-21.25 92.78,-53.43 88.48,-49.92 88.56,-72.65 0.04,-18.87 0.12,-18.83 -48.32,-46.41 -38.2,-21.79 -33.32,-22.97 -126.33,30.59 z m 120.35,2.54 c 24.77,14.18 24.88,14.61 5.59,24.65 -9.1,4.76 -19.3,10.82 -22.62,13.51 -3.36,2.66 -10.16,4.06 -15.19,3.13 -6.88,-1.33 -8.72,-0.51 -7.27,3.2 2.11,5.47 -10.9,11.99 -18.32,9.14 -2.81,-1.05 -3.67,0.27 -2.38,3.71 3.86,10 -11.14,10.51 -26.41,0.86 -7.85,-4.92 -16.02,-8.98 -18.12,-8.98 -4.77,0 5.93,11.01 15.39,15.86 3.82,1.95 6.79,5.15 6.56,7.07 -0.63,5.89 -16.76,6.05 -21.6,0.19 -5.12,-6.13 -14.3,-7.38 -14.3,-1.95 0,1.95 3.01,3.55 6.68,3.55 7.66,0 13.09,10.16 6.52,12.19 -16.09,4.88 -31.25,4.88 -27.18,-0.04 4.57,-5.47 2.14,-6.52 -12.5,-5.35 -5.4,0.43 -5.9,-0.2 -2.23,-2.7 3.94,-2.69 3.63,-3.98 -1.76,-7.03 -7.19,-4.02 -4.8,-8.4 8.71,-16.01 3.91,-2.23 30.63,-17.93 59.38,-34.92 59.76,-35.28 56.09,-34.38 81.05,-20.08 z m 80.82,54.06 c -48.04,18.12 -96.56,46.6 -129.76,76.13 -21.29,18.99 -27.15,183.24 -7.04,197.11 95.24,65.67 101.18,65.94 199.18,9.26 95.47,-55.2 87.66,-42.93 87.27,-137.3 -0.39,-96.88 4.77,-85.98 -58.01,-122.66 -57.61,-33.63 -60.43,-34.34 -91.64,-22.54 z m 80.12,191.33 c 42.77,24.22 45,18.67 -22.54,56.29 -31.37,17.46 -63.79,35.54 -72.03,40.15 -14.96,8.36 -14.96,8.36 -52.35,-12.34 -43.55,-24.14 -42.57,-22.03 -18.82,-39.38 33.08,-24.18 110.82,-63.78 126.01,-64.21 2.78,-0.08 20.67,8.67 39.73,19.49"
           inkscape:connector-curvature="0" />
        <path
           id="path4493"
           style="fill:#afafaf;fill-opacity:1;fill-rule:nonzero;stroke:none"
           d="m 2987.97,2483.93 c -112.58,64.81 -113.99,76.76 -15.47,130.59 10.94,5.98 168.95,-76.99 184.02,-96.64 15.98,-20.78 5.12,-35.74 -47.5,-65.63 -36.48,-20.74 -24.57,-23.86 -121.05,31.68 z m 118.79,-0.27 c 29.76,16.64 29.72,16.72 -28.01,49.26 -108.01,60.82 -93.4,56.13 -118.44,38.16 -25.74,-18.47 -26.72,-16.52 22.35,-44.37 15.5,-8.83 43.24,-24.92 61.6,-35.82 39.49,-23.4 34.61,-22.85 62.5,-7.23 z m 85.97,55.94 c -48.82,17.11 -103.12,49.22 -134.68,79.65 -22.93,22.07 -27.46,175.78 -5.67,191.87 27.19,20 94.57,55.43 105.47,55.43 10.78,0 157.74,-81.01 170.98,-94.22 8.44,-8.44 7.5,-170.97 -1.06,-178.4 -8.63,-7.5 -104.84,-62.85 -108.82,-62.57 -1.8,0.11 -13.6,3.82 -26.22,8.24 z m 75.86,189.72 c 44.73,25.67 47.66,19.46 -29.96,63.99 -90.82,52.11 -75.19,49.06 -120.27,23.71 -45.35,-25.51 -44.69,-23.67 -16.56,-44.41 26.25,-19.34 110.31,-62.19 126.75,-64.57 1.29,-0.2 19.3,9.37 40.04,21.28"
           inkscape:connector-curvature="0" />
        <path
           id="path4495"
           style="fill:#919191;fill-opacity:1;fill-rule:nonzero;stroke:none"
           d="m 2986.17,2486.75 c -105.78,60.93 -105.94,61.25 -43.47,105.7 40.66,28.98 63.86,21.25 201.48,-67.03 28.09,-18.05 20.51,-38.83 -23.56,-64.57 -46.87,-27.38 -39.37,-28.83 -134.45,25.9 z m 124.45,-2.89 c 30.08,16.79 29.81,17.38 -23.82,46.48 -14.57,7.93 -43.13,24.06 -63.52,35.86 -20.35,11.8 -38.71,21.44 -40.82,21.44 -5.7,0 -48.08,-32.34 -45.7,-34.88 7.58,-8.04 142.26,-84.26 146.52,-82.89 2.89,0.9 15.2,7.23 27.34,13.99 z m 72.82,60.97 c -48.91,19.34 -92.19,45.71 -125.82,76.8 -41.8,38.63 -15.04,183.24 39.76,215 64.14,37.15 53.56,38.32 149.18,-16.64 95.9,-55.12 87.46,-41.72 87.15,-138.13 -0.31,-91.95 4.84,-81.32 -57.03,-117.14 -58.09,-33.64 -58.28,-33.68 -93.24,-19.89 z m 86.33,183.17 c 21.64,12.18 35.62,22.22 35.07,25.15 -1.05,5.71 -138.28,85.2 -146.91,85.12 -7.77,-0.12 -81.72,-41.76 -81.72,-46.05 0,-12.9 126.68,-83.17 152.07,-84.3 3.01,-0.12 21.72,8.9 41.49,20.08"
           inkscape:connector-curvature="0" />
        <path
           id="path4497"
           style="fill:#5a5a5a;fill-opacity:1;fill-rule:nonzero;stroke:none"
           d="m 2993.32,2485.26 c -97.62,55.59 -99.73,57.46 -87.42,76.33 6.44,9.92 73.28,54.18 79.02,52.38 40.86,-13 172.5,-98.98 172.5,-112.73 0,-14.96 -61.72,-61.92 -81.44,-61.92 -1.1,0 -38.32,20.67 -82.66,45.94 z m 115.2,-5.04 c 37.53,21.25 41.05,16.6 -52.62,70.08 -83.91,47.93 -70.35,44.53 -98.4,24.53 -30.08,-21.44 -31.29,-19.8 48.09,-66.4 78.79,-46.29 73.47,-44.81 102.93,-28.21 z m 77.14,66.14 c -50.62,19.21 -120.62,62.89 -135.97,84.76 -7.07,10.08 -7.81,163.75 -0.86,172.62 5.19,6.6 102.46,62.81 108.67,62.81 4.8,0 157.19,-86.52 166.76,-94.69 6.68,-5.7 9.57,-162.77 3.2,-172.85 -3.08,-4.84 -94.96,-58.98 -105.51,-62.15 -3.43,-1.05 -19.8,3.25 -36.29,9.5 z m 80.98,177.61 c 42.11,23.6 46.99,28.25 37.19,35.47 -13.09,9.65 -141.95,82.42 -145.98,82.42 -4.18,0 -77.46,-40.62 -83.08,-46.05 -8.05,-7.77 51.25,-48.2 103.04,-70.31 18.91,-8.05 36.72,-16.06 39.61,-17.78 9.06,-5.39 12.89,-4.14 49.22,16.25"
           inkscape:connector-curvature="0" />
        <path
           id="path4499"
           style="fill:#2b2b2b;fill-opacity:1;fill-rule:nonzero;stroke:none"
           d="m 2989.69,2489.87 c -100.47,57.66 -103.05,85.7 -11.14,120.98 5.28,2.03 152.74,-79.22 169.15,-93.21 17.77,-15.07 9.06,-30.54 -30,-53.47 -45.12,-26.49 -32.62,-28.99 -128.01,25.7 z m 120.9,-10.98 c 37.61,21.53 37.96,21.02 -51.84,72.62 -75.7,43.52 -75.7,43.52 -100.08,26.84 -38.94,-26.6 -42.77,-20.86 50.43,-75.43 76.29,-44.65 68.63,-42.85 101.49,-24.03 z m 83.28,66.33 c -43.79,15.55 -92.66,43.64 -127.42,73.17 -47.47,40.27 -24.22,181.21 35.46,215.43 62.35,35.74 47.19,37.77 145.55,-19.3 77.66,-45.04 77.66,-45.04 77.66,-131.09 0,-96.68 -62.62,-162.62 -131.25,-138.21 z m -8.21,27.62 c 0,1.6 -8.43,6.41 -18.71,10.66 -19.53,8.09 -77.46,44.18 -88.08,54.93 -5.35,5.35 -6.21,13.43 -6.21,58.9 0,32.78 -1.33,52.74 -3.52,52.74 -7.77,0 -4.34,-100.43 3.79,-110.78 17.85,-22.7 112.73,-78.6 112.73,-66.45 z m 82.27,149.02 c 57.93,33.28 60.31,27.7 -35.31,82.58 -84.3,48.4 -68.91,46.17 -119.57,17.11 -56.92,-32.66 -40.78,-55.82 70.86,-101.56 17.46,-7.15 33.28,-14.45 35.11,-16.17 5.86,-5.59 11.02,-3.68 48.91,18.04"
           inkscape:connector-curvature="0" />
        <path
           id="path4501"
           style="fill:#0a0a0a;fill-opacity:1;fill-rule:nonzero;stroke:none"
           d="m 2993.24,2490.89 c -105.31,60.08 -103.2,55.97 -49.02,94.37 41.17,29.18 29.41,31.49 126.68,-24.96 99.49,-57.69 101.44,-61.76 44.96,-94.02 -43.59,-24.89 -31.72,-27.27 -122.62,24.61 z m 119.14,-14.3 c 42.46,24.73 44.26,22.38 -66.36,85.7 -66.14,37.82 -63.52,37.43 -94.26,14.73 -33.99,-25.08 -35.12,-23.4 51.25,-73.24 87.07,-50.24 75,-47.23 109.37,-27.19 z m 67.97,76.95 c -46.68,19.34 -76.09,36.84 -112.11,66.72 -39.96,33.21 -23.75,178.01 22.97,204.96 73.95,42.66 56.17,43.83 149.81,-10.04 95.5,-54.96 85.86,-40.15 85.86,-132.22 0,-90.28 5.46,-79.3 -56.65,-114.26 -54.96,-30.98 -52.57,-30.59 -89.88,-15.16 z m 12.38,17.5 c 0,2.54 -11.52,10.12 -25.54,16.8 -37.46,17.81 -87.07,51.68 -89.22,60.9 -1.02,4.26 -2.19,30.78 -2.66,58.94 -0.74,42.78 -1.76,51.21 -6.17,51.21 -7.93,0 -9.69,-108.47 -1.91,-120.31 17.57,-26.83 125.5,-84.88 125.5,-67.54 z m 40.59,62.78 c 0,65.04 0,65.04 38.83,87.03 59.61,33.79 61.8,30.9 -85.59,112.5 -29.53,16.33 -66.87,5.43 -113.12,-33.01 -15.35,-12.73 35.47,-52.19 104.88,-81.41 20.55,-8.63 39.34,-17.26 41.76,-19.21 3.24,-2.58 4.41,-20.75 4.41,-68.68 0,-50.58 0.98,-64.84 4.42,-63.71 3.32,1.14 4.41,17.62 4.41,66.49 z m -22.93,-2.27 c 0,14.45 -1.6,27.27 -3.55,28.48 -2.23,1.36 -3.52,-8.21 -3.52,-26.29 0,-16.6 1.45,-28.44 3.52,-28.44 2.03,0 3.55,11.09 3.55,26.25 z m -2.85,48.59 c -3.28,3.29 -4.22,2.35 -4.22,-4.25 0,-6.57 0.94,-7.5 4.22,-4.22 3.32,3.28 3.32,5.15 0,8.47"
           inkscape:connector-curvature="0" />
        <path
           id="path4503"
           style="fill:none;stroke:#000000;stroke-width:8;stroke-linecap:butt;stroke-linejoin:miter;stroke-miterlimit:4;stroke-opacity:1;stroke-dasharray:none"
           d="m 3149.53,2863.27 0,389.42"
           inkscape:connector-curvature="0" />
        <path
           id="path4505"
           style="fill:none;stroke:#000000;stroke-width:8;stroke-linecap:butt;stroke-linejoin:miter;stroke-miterlimit:4;stroke-opacity:1;stroke-dasharray:none"
           d="m 3902.34,2867.38 0,385.31"
           inkscape:connector-curvature="0" />
        <g
           transform="scale(10,10)"
           id="g4507">
          <text
             id="text4509"
             transform="matrix(1,0,0,-1,344.698,266.08)">
            <tspan
               id="tspan4511"
               sodipodi:role="line"
               y="0"
               x="0 5.0879998 10.176"
               style="font-size:16px;font-variant:normal;font-weight:normal;writing-mode:lr-tb;fill:#000000;fill-opacity:1;fill-rule:nonzero;stroke:none;font-family:DejaVu Sans;-inkscape-font-specification:DejaVuSans">...</tspan>
          </text>
        </g>
        <path
           id="path4513"
           style="fill:#ffffff;fill-opacity:1;fill-rule:nonzero;stroke:none"
           d="m 4336.95,2467.68 585.859,0 0,400.551 -585.859,0 0,-400.551 z"
           inkscape:connector-curvature="0" />
        <path
           id="path4515"
           style="fill:none;stroke:#000000;stroke-width:32;stroke-linecap:butt;stroke-linejoin:miter;stroke-miterlimit:4;stroke-opacity:1;stroke-dasharray:none"
           d="m 4336.95,2467.68 585.859,0 0,400.551 -585.859,0 0,-400.551 z"
           inkscape:connector-curvature="0" />
        <g
           transform="scale(10,10)"
           id="g4517">
          <text
             id="text4519"
             transform="matrix(1,0,0,-1,448.36,260.973)">
            <tspan
               id="tspan4521"
               sodipodi:role="line"
               y="0"
               x="0 9.776 18.976"
               style="font-size:16px;font-variant:normal;font-weight:normal;writing-mode:lr-tb;fill:#000000;fill-opacity:1;fill-rule:nonzero;stroke:none;font-family:DejaVu Sans;-inkscape-font-specification:DejaVuSans">TFC</tspan>
          </text>
        </g>
        <path
           id="path4523"
           style="fill:#ffffff;fill-opacity:1;fill-rule:nonzero;stroke:none"
           d="m 2217.38,1725.46 1640,0 0,445.699 -1640,0 0,-445.699 z"
           inkscape:connector-curvature="0" />
        <path
           id="path4525"
           style="fill:none;stroke:#000000;stroke-width:32;stroke-linecap:butt;stroke-linejoin:miter;stroke-miterlimit:4;stroke-opacity:1;stroke-dasharray:none"
           d="m 2217.38,1725.46 1640,0 0,445.699 -1640,0 0,-445.699 z"
           inkscape:connector-curvature="0" />
        <path
           id="path4527"
           style="fill:#ffffff;fill-opacity:1;fill-rule:nonzero;stroke:none"
           d="m 3857.38,1825.46 154.301,0 0,245.699 -154.301,0 0,-245.699 z"
           inkscape:connector-curvature="0" />
        <path
           id="path4529"
           style="fill:none;stroke:#000000;stroke-width:32;stroke-linecap:butt;stroke-linejoin:miter;stroke-miterlimit:4;stroke-opacity:1;stroke-dasharray:none"
           d="m 3857.38,1825.46 154.301,0 0,245.699 -154.301,0 0,-245.699 z"
           inkscape:connector-curvature="0" />
        <path
           id="path4531"
           style="fill:#ffffff;fill-opacity:1;fill-rule:nonzero;stroke:none"
           d="m 2063.09,1825.46 154.301,0 0,245.699 -154.301,0 0,-245.699 z"
           inkscape:connector-curvature="0" />
        <path
           id="path4533"
           style="fill:none;stroke:#000000;stroke-width:32;stroke-linecap:butt;stroke-linejoin:miter;stroke-miterlimit:4;stroke-opacity:1;stroke-dasharray:none"
           d="m 2063.09,1825.46 154.301,0 0,245.699 -154.301,0 0,-245.699 z"
           inkscape:connector-curvature="0" />
        <g
           transform="scale(10,10)"
           id="g4535">
          <text
             id="text4537"
             transform="matrix(1,0,0,-1,202.309,218.831)">
            <tspan
               id="tspan4539"
               sodipodi:role="line"
               y="0"
               x="0 11.12"
               style="font-size:16px;font-variant:normal;font-weight:normal;writing-mode:lr-tb;fill:#000000;fill-opacity:1;fill-rule:nonzero;stroke:none;font-family:DejaVu Sans;-inkscape-font-specification:DejaVuSans">RI</tspan>
            <tspan
               id="tspan4541"
               sodipodi:role="line"
               y="-0.57148403"
               x="190.286 201.40601"
               style="font-size:16px;font-variant:normal;font-weight:normal;writing-mode:lr-tb;fill:#000000;fill-opacity:1;fill-rule:nonzero;stroke:none;font-family:DejaVu Sans;-inkscape-font-specification:DejaVuSans">RO</tspan>
            <tspan
               id="tspan4543"
               sodipodi:role="line"
               y="29.718716"
               x="78.984001 89.143997 93.464142 101.9921 112.9361"
               style="font-size:16px;font-variant:normal;font-weight:normal;writing-mode:lr-tb;fill:#000000;fill-opacity:1;fill-rule:nonzero;stroke:none;font-family:DejaVu Sans;-inkscape-font-specification:DejaVuSans">S-TAU</tspan>
          </text>
        </g>
        <path
           id="path4545"
           style="fill:none;stroke:#000000;stroke-width:8;stroke-linecap:butt;stroke-linejoin:miter;stroke-miterlimit:4;stroke-opacity:1;stroke-dasharray:none"
           d="m 4629.88,2868.23 0,385.32"
           inkscape:connector-curvature="0" />
        <path
           id="path4547"
           style="fill:none;stroke:#000000;stroke-width:8;stroke-linecap:butt;stroke-linejoin:miter;stroke-miterlimit:4;stroke-opacity:1;stroke-dasharray:none"
           d="m 4629.88,2467.69 0,-519.39 -618.2,0"
           inkscape:connector-curvature="0" />
        <path
           id="path4549"
           style="fill:#e8e8e8;fill-opacity:1;fill-rule:nonzero;stroke:none"
           d="m 3270.23,952.219 c -118.35,67.501 -119.14,69.141 -53.94,115.891 49.06,35.24 36.25,37.03 133.01,-18.55 97.61,-56.021 95.7,-54.572 95.7,-73.24 0,-21.57 -3.59,-25.468 -45.27,-48.871 -47.82,-26.879 -34.42,-29.449 -129.5,24.77 z m 195.94,59.251 c -49.76,18.56 -101.25,49.42 -132.58,79.42 -15.35,14.72 -25.15,165 -12.3,189.02 7.34,13.79 98.12,61.09 117.19,61.09 16.99,0 126.68,-57.46 168.04,-88 12.74,-9.42 18.83,-177.74 6.76,-187.7 -10.9,-9.06 -109.92,-64.06 -115.04,-63.91 -3.08,0.12 -17.5,4.65 -32.07,10.08 z m 85.86,198.01 c 35.9,19.65 34.88,19.96 -52.3,17.81 -74.14,-1.83 -74.14,-1.83 -44.14,-16.25 54.33,-26.09 53.94,-25.97 61.79,-21.09 3.87,2.42 19.5,11.21 34.65,19.53"
           inkscape:connector-curvature="0" />
        <path
           id="path4551"
           style="fill:#d3d3d3;fill-opacity:1;fill-rule:nonzero;stroke:none"
           d="m 3266.76,956.551 c -109.73,63.129 -110.86,65.699 -48.87,109.729 47.34,33.59 36.99,35.23 134.96,-21.25 92.77,-53.44 88.48,-49.96 88.56,-72.702 0.07,-18.828 0.11,-18.789 -48.32,-46.398 -38.21,-21.758 -33.32,-22.93 -126.33,30.621 z m 120.35,2.539 c 24.8,14.18 24.88,14.609 5.59,24.648 -9.11,4.762 -19.3,10.821 -22.62,13.512 -3.32,2.66 -10.16,4.07 -15.2,3.13 -6.87,-1.329 -8.67,-0.509 -7.26,3.2 2.11,5.47 -10.9,11.99 -18.28,9.14 -2.86,-1.05 -3.72,0.28 -2.43,3.71 3.87,10 -11.13,10.51 -26.4,0.86 -7.85,-4.92 -15.98,-8.98 -18.13,-8.98 -4.72,0 5.98,11.01 15.43,15.86 3.79,1.95 6.76,5.15 6.57,7.07 -0.67,5.9 -16.8,6.05 -21.65,0.19 -5.07,-6.13 -14.29,-7.38 -14.29,-1.95 0,1.95 3.01,3.56 6.72,3.56 7.61,0 13.04,10.15 6.48,12.18 -16.05,4.89 -31.25,4.89 -27.15,-0.04 4.53,-5.46 2.11,-6.52 -12.54,-5.35 -5.39,0.43 -5.9,-0.19 -2.18,-2.69 3.9,-2.7 3.59,-3.99 -1.8,-7.03 -7.15,-4.03 -4.81,-8.4 8.71,-16.02 3.91,-2.23 30.62,-17.93 59.41,-34.918 59.73,-35.281 56.06,-34.383 81.02,-20.082 z m 80.82,54.06 c -48.05,18.13 -96.56,46.6 -129.73,76.14 -21.29,18.98 -27.18,183.24 -7.07,197.1 95.24,65.67 101.17,65.94 199.18,9.26 95.47,-55.19 87.66,-42.93 87.31,-137.3 -0.43,-96.88 4.76,-85.98 -58.05,-122.66 -57.62,-33.63 -60.39,-34.33 -91.64,-22.54 z m 80.12,191.29 c 42.77,24.26 45,18.71 -22.54,56.33 -31.37,17.46 -63.79,35.55 -72.03,40.16 -14.96,8.36 -14.96,8.36 -52.31,-12.35 -43.59,-24.14 -42.58,-22.03 -18.87,-39.37 33.09,-24.18 110.86,-63.79 126.02,-64.22 2.77,-0.08 20.66,8.67 39.73,19.45"
           inkscape:connector-curvature="0" />
        <path
           id="path4553"
           style="fill:#afafaf;fill-opacity:1;fill-rule:nonzero;stroke:none"
           d="m 3268.52,957.57 c -112.62,64.8 -114.03,76.75 -15.51,130.58 10.94,5.98 168.98,-76.99 184.02,-96.638 15.98,-20.782 5.16,-35.742 -47.5,-65.621 -36.48,-20.75 -24.53,-23.871 -121.01,31.679 z m 118.75,-0.281 c 29.76,16.641 29.72,16.723 -28.01,49.261 -108.01,60.82 -93.4,56.13 -118.44,38.17 -25.74,-18.48 -26.72,-16.53 22.34,-44.38 15.55,-8.828 43.25,-24.918 61.61,-35.82 39.49,-23.399 34.61,-22.848 62.5,-7.231 z m 85.97,55.941 c -48.79,17.11 -103.08,49.22 -134.69,79.65 -22.93,22.07 -27.46,175.78 -5.66,191.87 27.19,20 94.57,55.43 105.47,55.43 10.78,0 157.77,-81.01 170.98,-94.21 8.43,-8.44 7.5,-170.98 -1.06,-178.4 -8.63,-7.5 -104.84,-62.85 -108.83,-62.58 -1.79,0.12 -13.59,3.83 -26.21,8.24 z m 75.86,189.73 c 44.77,25.66 47.66,19.45 -29.96,63.98 -90.82,52.11 -75.19,49.06 -120.27,23.71 -45.35,-25.51 -44.69,-23.67 -16.57,-44.41 26.25,-19.34 110.32,-62.19 126.76,-64.61 1.29,-0.16 19.3,9.41 40.04,21.33"
           inkscape:connector-curvature="0" />
        <path
           id="path4555"
           style="fill:#919191;fill-opacity:1;fill-rule:nonzero;stroke:none"
           d="m 3266.68,960.379 c -105.78,60.941 -105.9,61.251 -43.48,105.701 40.67,28.99 63.87,21.25 201.49,-67.029 28.08,-18.051 20.51,-38.832 -23.56,-64.571 -46.87,-27.378 -39.37,-28.832 -134.45,25.899 z m 124.45,-2.891 c 30.08,16.801 29.81,17.34 -23.83,46.482 -14.57,7.93 -43.12,24.07 -63.47,35.86 -20.35,11.8 -38.75,21.45 -40.82,21.45 -5.74,0 -48.13,-32.35 -45.74,-34.89 7.57,-8.04 142.26,-84.249 146.52,-82.89 2.89,0.898 15.23,7.23 27.34,13.988 z m 72.82,60.982 c -48.91,19.29 -92.15,45.7 -125.83,76.79 -41.79,38.63 -15.03,183.24 39.77,215 64.18,37.15 53.56,38.32 149.18,-16.64 95.9,-55.12 87.46,-41.72 87.15,-138.12 -0.31,-91.96 4.88,-81.33 -57.03,-117.15 -58.09,-33.63 -58.28,-33.67 -93.24,-19.88 z m 86.36,183.16 c 21.6,12.19 35.59,22.23 35.04,25.16 -1.05,5.7 -138.28,85.19 -146.91,85.11 -7.78,-0.11 -81.72,-41.76 -81.72,-46.05 0,-12.89 126.72,-83.17 152.07,-84.3 3.05,-0.12 21.72,8.91 41.52,20.08"
           inkscape:connector-curvature="0" />
        <path
           id="path4557"
           style="fill:#5a5a5a;fill-opacity:1;fill-rule:nonzero;stroke:none"
           d="m 3273.83,958.891 c -97.62,55.589 -99.73,57.469 -87.42,76.329 6.44,9.92 73.28,54.18 79.02,52.35 40.86,-12.97 172.5,-98.949 172.5,-112.699 0,-14.961 -61.72,-61.91 -81.41,-61.91 -1.13,0 -38.32,20.66 -82.69,45.93 z m 115.19,-5.032 c 37.58,21.25 41.06,16.602 -52.61,70.071 -83.87,47.93 -70.36,44.54 -98.4,24.54 -30.08,-21.45 -31.25,-19.81 48.08,-66.411 78.83,-46.289 73.52,-44.809 102.93,-28.2 z m 77.15,66.131 c -50.62,19.22 -120.62,62.89 -135.97,84.76 -7.08,10.08 -7.82,163.75 -0.82,172.62 5.15,6.6 102.42,62.81 108.63,62.81 4.8,0 157.19,-86.52 166.76,-94.68 6.68,-5.71 9.61,-162.78 3.2,-172.86 -3.09,-4.84 -94.96,-58.98 -105.51,-62.14 -3.44,-1.06 -19.76,3.24 -36.29,9.49 z m 80.98,177.58 c 42.15,23.63 46.99,28.28 37.19,35.5 -13.05,9.65 -141.96,82.43 -145.98,82.43 -4.18,0 -77.46,-40.63 -83.09,-46.06 -8,-7.77 51.25,-48.2 103.09,-70.31 18.87,-8.05 36.68,-16.06 39.61,-17.77 9.06,-5.39 12.89,-4.14 49.18,16.21"
           inkscape:connector-curvature="0" />
        <path
           id="path4559"
           style="fill:#2b2b2b;fill-opacity:1;fill-rule:nonzero;stroke:none"
           d="m 3270.23,963.5 c -100.5,57.66 -103.08,85.71 -11.17,120.98 5.28,2.03 152.74,-79.22 169.14,-93.199 17.78,-15.082 9.1,-30.551 -30,-53.48 -45.11,-26.481 -32.61,-28.981 -127.97,25.699 z m 120.9,-10.969 c 37.58,21.52 37.93,21.008 -51.83,72.609 -75.71,43.52 -75.71,43.52 -100.12,26.84 -38.95,-26.6 -42.77,-20.86 50.47,-75.429 76.25,-44.653 68.59,-42.852 101.48,-24.02 z m 83.25,66.329 c -43.76,15.54 -92.66,43.63 -127.43,73.16 -47.42,40.27 -24.22,181.21 35.47,215.43 62.38,35.74 47.19,37.77 145.55,-19.3 77.65,-45.04 77.65,-45.04 77.65,-131.09 0,-96.72 -62.61,-162.619 -131.24,-138.2 z m -8.21,27.61 c 0,1.6 -8.4,6.41 -18.71,10.67 -19.53,8.08 -77.42,44.18 -88.08,54.92 -5.36,5.35 -6.18,13.44 -6.18,58.91 0,32.77 -1.32,52.73 -3.55,52.73 -7.77,0 -4.34,-100.43 3.79,-110.78 17.85,-22.7 112.73,-78.6 112.73,-66.45 z m 82.27,149.03 c 57.93,33.28 60.31,27.69 -35.32,82.57 -84.29,48.4 -68.9,46.18 -119.57,17.11 -56.91,-32.65 -40.74,-55.82 70.86,-101.56 17.47,-7.15 33.29,-14.45 35.12,-16.17 5.86,-5.59 11.02,-3.67 48.91,18.05"
           inkscape:connector-curvature="0" />
        <path
           id="path4561"
           style="fill:#0a0a0a;fill-opacity:1;fill-rule:nonzero;stroke:none"
           d="m 3273.75,964.52 c -105.31,60.08 -103.2,55.98 -48.98,94.37 41.13,29.18 29.37,31.49 126.68,-24.96 99.49,-57.692 101.4,-61.75 44.96,-94.02 -43.64,-24.879 -31.76,-27.269 -122.66,24.61 z m 119.18,-14.301 c 42.42,24.73 44.22,22.39 -66.37,85.711 -66.17,37.81 -63.51,37.42 -94.29,14.72 -33.99,-25.08 -35.12,-23.4 51.25,-73.24 87.07,-50.23 75,-47.23 109.41,-27.191 z m 67.97,76.961 c -46.68,19.33 -76.13,36.83 -112.11,66.71 -40,33.21 -23.79,178.01 22.93,204.97 73.98,42.65 56.17,43.82 149.84,-10.08 95.47,-54.92 85.86,-40.12 85.86,-132.19 0,-90.27 5.43,-79.3 -56.68,-114.26 -54.96,-30.97 -52.58,-30.58 -89.84,-15.15 z m 12.34,17.5 c 0,2.54 -11.48,10.11 -25.54,16.79 -37.43,17.82 -87.08,51.68 -89.22,60.9 -0.98,4.26 -2.19,30.78 -2.66,58.95 -0.7,42.77 -1.72,51.17 -6.17,51.17 -7.93,0 -9.69,-108.44 -1.92,-120.27 17.58,-26.84 125.51,-84.93 125.51,-67.54 z m 40.59,62.77 c 0,65.04 0,65.04 38.87,87.03 59.57,33.79 61.75,30.9 -85.63,112.5 -29.49,16.33 -66.87,5.43 -113.12,-33.01 -15.36,-12.73 35.46,-52.18 104.88,-81.4 20.55,-8.64 39.33,-17.27 41.76,-19.22 3.28,-2.58 4.41,-20.74 4.41,-68.67 0,-50.59 1.02,-64.85 4.41,-63.71 3.32,1.13 4.42,17.61 4.42,66.48 z m -22.93,-2.27 c 0,14.46 -1.6,27.27 -3.56,28.48 -2.22,1.37 -3.51,-8.2 -3.51,-26.29 0,-16.6 1.48,-28.44 3.51,-28.44 2.07,0 3.56,11.1 3.56,26.25 z m -2.81,48.6 c -3.32,3.28 -4.26,2.34 -4.26,-4.26 0,-6.56 0.94,-7.5 4.26,-4.22 3.28,3.28 3.28,5.16 0,8.48"
           inkscape:connector-curvature="0" />
        <path
           id="path4563"
           style="fill:#e8e8e8;fill-opacity:1;fill-rule:nonzero;stroke:none"
           d="m 2525.04,951.359 c -118.36,67.501 -119.14,69.141 -53.95,115.891 49.07,35.24 36.25,37.04 133.01,-18.55 97.62,-56.02 95.7,-54.571 95.7,-73.239 0,-21.57 -3.59,-25.43 -45.27,-48.871 -47.81,-26.871 -34.41,-29.449 -129.49,24.769 z m 195.94,59.251 c -49.77,18.56 -101.21,49.42 -132.58,79.42 -15.35,14.76 -25.16,165.04 -12.31,189.02 7.39,13.79 98.13,61.09 117.19,61.09 16.99,0 126.72,-57.46 168.05,-88 12.73,-9.42 18.83,-177.74 6.79,-187.7 -10.93,-9.06 -109.96,-64.02 -115.07,-63.87 -3.05,0.08 -17.5,4.61 -32.07,10.04 z m 85.9,198.01 c 35.85,19.65 34.84,19.96 -52.35,17.81 -74.14,-1.83 -74.14,-1.83 -44.14,-16.25 54.38,-26.09 53.99,-25.97 61.8,-21.09 3.86,2.42 19.49,11.21 34.69,19.53"
           inkscape:connector-curvature="0" />
        <path
           id="path4565"
           style="fill:#d3d3d3;fill-opacity:1;fill-rule:nonzero;stroke:none"
           d="m 2521.56,955.691 c -109.68,63.129 -110.86,65.739 -48.86,109.729 47.34,33.59 36.99,35.23 135,-21.25 92.73,-53.44 88.43,-49.92 88.51,-72.658 0.08,-18.871 0.12,-18.832 -48.32,-46.403 -38.2,-21.757 -33.32,-22.968 -126.33,30.582 z m 120.35,2.539 c 24.81,14.18 24.89,14.61 5.59,24.692 -9.1,4.719 -19.26,10.777 -22.62,13.469 -3.32,2.699 -10.15,4.069 -15.19,3.129 -6.88,-1.329 -8.67,-0.508 -7.23,3.2 2.07,5.47 -10.94,12 -18.32,9.18 -2.85,-1.09 -3.71,0.28 -2.38,3.67 3.83,10 -11.17,10.51 -26.45,0.86 -7.85,-4.92 -15.97,-8.98 -18.12,-8.98 -4.73,0 5.97,11.02 15.43,15.86 3.79,1.95 6.76,5.16 6.56,7.07 -0.63,5.9 -16.8,6.05 -21.64,0.19 -5.08,-6.13 -14.26,-7.38 -14.26,-1.95 0,1.95 3.01,3.56 6.68,3.56 7.66,0 13.05,10.15 6.49,12.18 -16.06,4.89 -31.25,4.89 -27.15,0 4.57,-5.5 2.11,-6.56 -12.5,-5.39 -5.39,0.43 -5.94,-0.19 -2.23,-2.69 3.91,-2.66 3.59,-3.99 -1.76,-7.03 -7.19,-4.03 -4.84,-8.4 8.71,-16.02 3.87,-2.23 30.63,-17.929 59.38,-34.921 59.72,-35.27 56.05,-34.379 81.01,-20.079 z m 80.86,54.06 c -48.08,18.13 -96.56,46.6 -129.76,76.14 -21.29,18.98 -27.19,183.24 -7.07,197.11 95.27,65.66 101.21,65.93 199.18,9.25 95.5,-55.19 87.65,-42.89 87.3,-137.3 -0.39,-96.88 4.77,-85.94 -58.01,-122.62 -57.65,-33.67 -60.43,-34.37 -91.64,-22.58 z m 80.08,191.33 c 42.81,24.22 45,18.67 -22.5,56.29 -31.4,17.46 -63.83,35.55 -72.03,40.16 -15,8.36 -15,8.36 -52.34,-12.35 -43.6,-24.14 -42.58,-22.03 -18.83,-39.37 33.08,-24.18 110.82,-63.79 125.97,-64.22 2.82,-0.08 20.67,8.67 39.73,19.49"
           inkscape:connector-curvature="0" />
        <path
           id="path4567"
           style="fill:#afafaf;fill-opacity:1;fill-rule:nonzero;stroke:none"
           d="m 2523.32,956.711 c -112.62,64.799 -114.02,76.759 -15.51,130.579 10.98,5.98 168.99,-76.99 184.07,-96.642 15.93,-20.777 5.11,-35.738 -47.5,-65.617 -36.53,-20.742 -24.58,-23.871 -121.06,31.68 z m 118.79,-0.281 c 29.77,16.64 29.69,16.718 -28.01,49.26 -108.01,60.86 -93.44,56.13 -118.48,38.17 -25.74,-18.48 -26.71,-16.53 22.35,-44.38 15.55,-8.789 43.24,-24.921 61.6,-35.82 39.49,-23.398 34.61,-22.851 62.54,-7.23 z m 85.94,55.94 c -48.79,17.11 -103.09,49.22 -134.65,79.65 -22.93,22.07 -27.5,175.82 -5.7,191.87 27.18,20 94.57,55.43 105.5,55.43 10.75,0 157.74,-80.97 170.94,-94.21 8.48,-8.44 7.5,-170.94 -1.05,-178.4 -8.64,-7.5 -104.85,-62.85 -108.83,-62.58 -1.8,0.12 -13.6,3.83 -26.21,8.24 z m 75.86,189.73 c 44.76,25.66 47.65,19.45 -29.96,63.98 -90.83,52.11 -75.16,49.06 -120.28,23.71 -45.35,-25.5 -44.69,-23.67 -16.52,-44.41 26.25,-19.34 110.27,-62.15 126.76,-64.57 1.25,-0.2 19.25,9.37 40,21.29"
           inkscape:connector-curvature="0" />
        <path
           id="path4569"
           style="fill:#919191;fill-opacity:1;fill-rule:nonzero;stroke:none"
           d="m 2521.48,959.52 c -105.78,60.94 -105.89,61.25 -43.47,105.7 40.66,28.99 63.87,21.25 201.48,-67.029 28.09,-18.011 20.51,-38.832 -23.55,-64.57 -46.84,-27.383 -39.38,-28.832 -134.46,25.899 z m 124.5,-2.891 c 30.07,16.801 29.76,17.383 -23.87,46.481 -14.53,7.93 -43.13,24.07 -63.48,35.86 -20.35,11.8 -38.75,21.45 -40.82,21.45 -5.74,0 -48.12,-32.35 -45.7,-34.88 7.54,-8.05 142.23,-84.259 146.48,-82.899 2.93,0.898 15.24,7.23 27.39,13.988 z m 72.81,60.981 c -48.95,19.33 -92.19,45.7 -125.86,76.79 -41.8,38.64 -15.04,183.24 39.8,215 64.15,37.15 53.56,38.32 149.15,-16.6 95.93,-55.16 87.5,-41.76 87.14,-138.16 -0.27,-91.96 4.89,-81.33 -57.03,-117.15 -58.08,-33.63 -58.28,-33.67 -93.2,-19.88 z m 86.33,183.16 c 21.6,12.19 35.62,22.23 35.08,25.16 -1.1,5.7 -138.32,85.19 -146.92,85.11 -7.81,-0.07 -81.76,-41.72 -81.76,-46.05 0,-12.89 126.72,-83.13 152.07,-84.3 3.05,-0.12 21.72,8.91 41.53,20.08"
           inkscape:connector-curvature="0" />
        <path
           id="path4571"
           style="fill:#5a5a5a;fill-opacity:1;fill-rule:nonzero;stroke:none"
           d="m 2528.67,958.039 c -97.65,55.621 -99.76,57.461 -87.46,76.321 6.45,9.93 73.28,54.18 79.02,52.39 40.86,-12.97 172.5,-98.988 172.5,-112.699 0,-15 -61.71,-61.949 -81.4,-61.949 -1.13,0 -38.32,20.66 -82.66,45.937 z M 2643.83,953 c 37.58,21.25 41.05,16.602 -52.62,70.11 -83.87,47.89 -70.35,44.5 -98.4,24.5 -30.04,-21.45 -31.25,-19.81 48.13,-66.411 78.79,-46.289 73.47,-44.808 102.89,-28.199 z m 77.15,66.13 c -50.63,19.26 -120.63,62.89 -135.98,84.76 -7.03,10.08 -7.81,163.75 -0.82,172.62 5.16,6.6 102.46,62.81 108.67,62.81 4.77,0 157.19,-86.52 166.72,-94.68 6.72,-5.71 9.61,-162.78 3.2,-172.85 -3.08,-4.85 -94.96,-58.99 -105.47,-62.15 -3.47,-1.06 -19.8,3.24 -36.32,9.49 z m 80.97,177.62 c 42.15,23.59 47,28.24 37.19,35.5 -13.05,9.61 -141.95,82.39 -145.98,82.39 -4.18,0 -77.46,-40.63 -83.08,-46.06 -8.01,-7.77 51.25,-48.2 103.08,-70.31 18.87,-8.05 36.68,-16.05 39.61,-17.77 9.07,-5.39 12.89,-4.14 49.18,16.25"
           inkscape:connector-curvature="0" />
        <path
           id="path4573"
           style="fill:#2b2b2b;fill-opacity:1;fill-rule:nonzero;stroke:none"
           d="m 2525.04,962.641 c -100.51,57.659 -103.09,85.709 -11.17,120.979 5.27,2.03 152.73,-79.22 169.18,-93.198 17.73,-15.082 9.06,-30.551 -30.04,-53.481 -45.12,-26.48 -32.62,-28.98 -127.97,25.7 z m 120.9,-10.969 c 37.58,21.519 37.93,21.008 -51.84,72.618 -75.7,43.51 -75.7,43.51 -100.12,26.83 -38.94,-26.6 -42.77,-20.86 50.47,-75.429 76.25,-44.652 68.6,-42.851 101.49,-24.019 z m 83.24,66.328 c -43.75,15.54 -92.66,43.63 -127.42,73.16 -47.42,40.31 -24.22,181.21 35.51,215.43 62.34,35.74 47.14,37.77 145.5,-19.3 77.7,-45.04 77.7,-45.04 77.7,-131.09 0,-96.68 -62.62,-162.622 -131.29,-138.2 z m -8.2,27.65 c 0,1.57 -8.4,6.37 -18.68,10.63 -19.57,8.08 -77.46,44.18 -88.12,54.92 -5.31,5.35 -6.17,13.44 -6.17,58.91 0,32.81 -1.33,52.73 -3.52,52.73 -7.77,0 -4.33,-100.43 3.79,-110.78 17.85,-22.7 112.7,-78.59 112.7,-66.41 z m 82.26,149.03 c 57.97,33.24 60.35,27.65 -35.31,82.54 -84.3,48.39 -68.87,46.17 -119.57,17.1 -56.91,-32.65 -40.74,-55.78 70.86,-101.52 17.5,-7.19 33.28,-14.49 35.16,-16.21 5.85,-5.59 10.97,-3.67 48.86,18.09"
           inkscape:connector-curvature="0" />
        <path
           id="path4575"
           style="fill:#0a0a0a;fill-opacity:1;fill-rule:nonzero;stroke:none"
           d="m 2528.55,963.66 c -105.31,60.08 -103.16,55.98 -48.98,94.38 41.13,29.18 29.38,31.48 126.68,-24.97 99.49,-57.691 101.41,-61.75 44.96,-93.98 -43.63,-24.918 -31.72,-27.301 -122.66,24.57 z m 119.18,-14.301 c 42.43,24.731 44.26,22.43 -66.36,85.711 -66.14,37.81 -63.52,37.42 -94.3,14.72 -33.95,-25.07 -35.12,-23.4 51.25,-73.239 87.07,-50.192 75.04,-47.231 109.41,-27.192 z m 67.97,76.961 c -46.68,19.33 -76.13,36.83 -112.11,66.72 -40,33.2 -23.79,178 22.93,204.96 73.99,42.65 56.21,43.82 149.85,-10.04 95.47,-54.96 85.86,-40.16 85.86,-132.23 0,-90.27 5.43,-79.3 -56.68,-114.26 -54.93,-30.97 -52.58,-30.58 -89.85,-15.15 z m 12.35,17.54 c 0,2.53 -11.49,10.07 -25.55,16.75 -37.42,17.82 -87.07,51.72 -89.22,60.94 -0.98,4.22 -2.19,30.74 -2.66,58.91 -0.7,42.77 -1.71,51.21 -6.13,51.21 -7.97,0 -9.69,-108.48 -1.95,-120.31 17.62,-26.84 125.51,-84.89 125.51,-67.5 z m 40.62,62.77 c 0,65 0,65 38.83,86.99 59.57,33.79 61.76,30.9 -85.62,112.5 -29.5,16.33 -66.88,5.43 -113.13,-33.01 -15.31,-12.73 35.47,-52.14 104.88,-81.36 20.55,-8.68 39.34,-17.31 41.8,-19.26 3.24,-2.58 4.41,-20.74 4.41,-68.67 0,-50.59 0.98,-64.85 4.42,-63.71 3.32,1.13 4.41,17.61 4.41,66.52 z m -22.97,-2.31 c 0,14.46 -1.6,27.27 -3.51,28.48 -2.27,1.37 -3.56,-8.2 -3.56,-26.29 0,-16.6 1.49,-28.44 3.56,-28.44 2.03,0 3.51,11.1 3.51,26.25 z m -2.81,48.6 c -3.32,3.28 -4.26,2.34 -4.26,-4.26 0,-6.56 0.94,-7.5 4.26,-4.22 3.28,3.28 3.28,5.2 0,8.48"
           inkscape:connector-curvature="0" />
        <path
           id="path4577"
           style="fill:none;stroke:#000000;stroke-width:8;stroke-linecap:butt;stroke-linejoin:miter;stroke-miterlimit:4;stroke-opacity:1;stroke-dasharray:none"
           d="m 2684.84,1336.09 0,389.37"
           inkscape:connector-curvature="0" />
        <path
           id="path4579"
           style="fill:none;stroke:#000000;stroke-width:8;stroke-linecap:butt;stroke-linejoin:miter;stroke-miterlimit:4;stroke-opacity:1;stroke-dasharray:none"
           d="m 3437.66,1340.14 0,385.32"
           inkscape:connector-curvature="0" />
        <g
           transform="scale(10,10)"
           id="g4581">
          <text
             id="text4583"
             transform="matrix(1,0,0,-1,298.232,113.357)">
            <tspan
               id="tspan4585"
               sodipodi:role="line"
               y="0"
               x="0 5.0879998 10.176"
               style="font-size:16px;font-variant:normal;font-weight:normal;writing-mode:lr-tb;fill:#000000;fill-opacity:1;fill-rule:nonzero;stroke:none;font-family:DejaVu Sans;-inkscape-font-specification:DejaVuSans">...</tspan>
          </text>
          <text
             id="text4587"
             transform="matrix(1,0,0,-1,51.694,2.626)">
            <tspan
               id="tspan4589"
               sodipodi:role="line"
               y="0"
               x="0 10.154317 17.355293 25.485806 32.72208"
               style="font-size:11.7663002px;font-variant:normal;font-weight:normal;writing-mode:lr-tb;fill:#000000;fill-opacity:1;fill-rule:nonzero;stroke:none;font-family:DejaVu Sans;-inkscape-font-specification:DejaVuSans">Модем</tspan>
          </text>
        </g>
        <path
           id="path4591"
           style="fill:#fcfcfc;fill-opacity:1;fill-rule:nonzero;stroke:none"
           d="m 246.172,426.82 0,300.551 962.188,0 0,-601.051 -962.188,0"
           inkscape:connector-curvature="0" />
        <path
           id="path4593"
           style="fill:#eaeaea;fill-opacity:1;fill-rule:nonzero;stroke:none"
           d="m 540.859,258.969 c -115.16,60.551 -159.918,86.84 -161.289,94.73 -1.05,5.981 -7.148,13.403 -13.55,16.481 -10.122,4.89 -11.61,11.718 -11.61,53.558 l 0,48.012 184.262,95.891 C 640,620.422 735.391,669.559 750.66,676.82 c 15.238,7.27 36.57,18.211 47.352,24.301 l 19.566,11.059 351.722,-183.051 1.72,-49.379 c 1.56,-45.109 0.7,-49.641 -10.16,-52.73 -6.52,-1.879 -12.74,-8.481 -13.75,-14.731 C 1145.47,402.41 934.801,286.672 780.23,210.77 764.73,203.148 743.09,192.02 732.148,186 704.691,170.93 717.301,166.121 540.859,258.969 z m 387.661,133.25 c 114.21,59.883 207.69,111.051 207.69,113.711 0,9.761 -16.29,4.058 -71.33,-25 l -56.33,-29.731 -100.03,-1.129 -100.079,-1.14 92.61,-2.93 c 124.849,-3.941 103.399,-21.871 -26.172,-21.871 -77.539,0 -101.129,-3.129 -86.481,-11.52 4.411,-2.5 34.961,-4.609 67.852,-4.648 77.031,-0.121 69.922,-9.891 -8.75,-12.031 -41.762,-1.18 -56.68,-3.399 -55.59,-8.36 0.942,-4.218 -5.39,-6.761 -16.949,-6.761 -14.801,0 -17.77,1.832 -15.082,9.453 3.09,8.828 -3.629,9.379 -94.328,8.008 -166.371,-2.5 -160.75,3.91 -48.012,-55.079 53.711,-28.121 97.691,-53.121 97.691,-55.511 0,-7.301 -0.742,-7.649 213.29,104.539 z m -94.258,25.07 c 20.777,1.102 53.277,1.063 72.148,0 18.899,-1.09 1.871,-1.949 -37.82,-1.91 -39.68,0 -55.149,0.859 -34.328,1.91 z m -70.903,-3.98 c 14.762,4.261 14.731,4.332 -3.007,4.961 -10.192,0.351 -15.043,2.339 -11.09,4.57 3.828,2.191 -47.582,3.32 -114.262,2.5 -177.34,-2.192 -187.66,-4.449 -31.02,-6.871 l 138.321,-2.149 -126.281,-3.011 -126.29,-3.047 129.29,-0.66 c 71.14,-0.352 136.058,1.328 144.339,3.707 z M 650.59,449.828 c -43.828,0.942 -115.512,0.942 -159.34,0 -43.828,-0.937 -7.969,-1.68 79.648,-1.68 87.653,0 123.512,0.743 79.692,1.68"
           inkscape:connector-curvature="0" />
        <path
           id="path4595"
           style="fill:#d2d2d2;fill-opacity:1;fill-rule:nonzero;stroke:none"
           d="m 539.34,260.34 c -114.262,60.351 -160.86,87.73 -160.86,94.531 0,5.27 -5.429,12.66 -12.031,16.367 -10.508,5.903 -12.039,12.621 -12.039,53.512 l 0,46.762 196.961,101.527 c 108.32,55.82 210,108.473 225.899,117.07 41.171,22.141 34.679,24.289 221.71,-73.168 l 170.32,-88.75 1.72,-46.441 c 1.56,-41.801 0.5,-47.109 -10.51,-53.32 -6.76,-3.789 -12.27,-10.942 -12.27,-15.899 0,-8.09 -428.978,-237.812 -443.201,-237.351 -2.66,0.121 -77.23,38.398 -165.699,85.16 z m 389.019,130.512 c 112.261,58.867 205.041,109.609 206.171,112.648 1.72,4.648 -80.78,49.262 -291.76,157.738 L 816.988,674.52 609.77,567.68 C 363.871,440.93 371.48,470.301 559.02,372.68 644.84,328 715.078,289.641 715.16,287.41 c 0.192,-7.89 11.051,-2.621 213.199,103.442"
           inkscape:connector-curvature="0" />
        <path
           id="path4597"
           style="fill:#a0a0a0;fill-opacity:1;fill-rule:nonzero;stroke:none"
           d="m 555.551,252.609 c -178.442,94.68 -177.071,93.86 -177.071,105.352 0,5.187 -5.429,12.461 -12.031,16.168 -86.41,48.59 -34.539,88.402 410.742,314.922 43.981,22.379 29.571,27.07 215.899,-70.039 195.15,-101.723 179.18,-89.141 179.18,-141.25 0,-33.871 -2.07,-43.59 -10.51,-49.332 -5.78,-3.95 -13.48,-12 -17.07,-17.93 C 1139.41,401.859 984.922,317.879 793.75,219.719 779.02,212.18 753.871,199.012 737.852,190.5 701.328,171.121 723.238,163.621 555.551,252.609 z M 1023.36,439.09 c 137.54,70.98 141.72,56.289 -43.52,153.32 -161.168,84.41 -164.102,85.59 -184.57,72.699 -7.071,-4.461 -28.942,-16.058 -48.59,-25.75 -125.86,-62.07 -348.789,-180.621 -345.309,-183.668 2.301,-2.031 72.731,-39.531 156.52,-83.32 83.789,-43.832 153.668,-82.769 155.269,-86.519 1.961,-4.653 34.692,9.757 100.238,44.097 C 866.91,358 961.41,407.102 1023.36,439.09"
           inkscape:connector-curvature="0" />
        <path
           id="path4599"
           style="fill:#5c5c5c;fill-opacity:1;fill-rule:nonzero;stroke:none"
           d="m 543.52,260.648 c -112.149,59.071 -162.622,88.563 -164.219,95.903 -1.25,5.82 -7.352,13.828 -13.563,17.738 -13.828,8.711 -16.91,87.731 -3.789,97.34 18.012,13.16 447.93,234.062 455.551,234.062 11.129,0 332.73,-168.082 344.26,-179.921 14.92,-15.309 14.96,-80.661 0.04,-94.059 -5.78,-5.199 -13.21,-14.262 -16.53,-20.121 -3.36,-5.899 -54.76,-36.02 -114.29,-66.988 C 971.449,313.66 901.211,276.859 874.922,262.84 848.59,248.781 814.141,230.809 798.32,222.84 782.5,214.91 755.121,200.969 737.5,191.898 l -32.07,-16.519 -161.91,85.269 z m 394.21,132.661 c 240.24,125.703 235.04,99.8 40.59,201.089 L 817.422,678.148 606.879,569.09 C 479.379,503.07 398.48,458.07 401.84,455.07 c 3,-2.699 70.039,-38.519 148.941,-79.531 78.867,-40.98 148.828,-79.301 155.43,-85.117 7.5,-6.563 15.43,-9.031 21.059,-6.531 4.96,2.23 99.679,51.449 210.46,109.418"
           inkscape:connector-curvature="0" />
        <path
           id="path4601"
           style="fill:#282828;fill-opacity:1;fill-rule:nonzero;stroke:none"
           d="m 582.93,240.609 c -61.168,32.743 -132.231,70.43 -157.852,83.75 -30.117,15.672 -46.598,27.582 -46.598,33.711 0,5.239 -5.429,13.68 -12.031,18.75 -60,46.289 -23.988,84.969 175.699,188.641 93.551,48.551 192.891,100.148 220.782,114.68 44.41,23.129 52.539,25.668 65.429,20.398 8.09,-3.32 87.422,-43.949 176.291,-90.277 L 1166.29,526 l 0,-47.852 c 0,-43.117 -1.21,-48.238 -12.03,-51.328 -6.64,-1.871 -12.03,-7.89 -12.03,-13.351 0,-8.481 -165.98,-100.278 -323.402,-178.91 -9.027,-4.489 -36.25,-18.52 -60.508,-31.129 -56.84,-29.571 -46.41,-31.801 -175.39,37.179 z m 218.281,79.77 C 1204.18,530.609 1178.71,491 978.199,595.648 L 817.191,679.68 647.461,591.629 C 554.102,543.23 457.969,493.309 433.91,480.73 l -43.832,-22.89 159.41,-83.199 159.461,-83.172 1.281,-40.617 c 1.29,-40.313 1.329,-40.391 3.442,-7.813 l 2.066,32.813 85.473,44.527 z m -116.012,-48.32 c 0,5.703 3.242,11.332 7.18,12.543 4.531,1.367 3.402,3.468 -3,5.699 -7.899,2.738 -10.199,0.508 -10.199,-9.84 0,-14.422 -3.95,-16.172 -18.051,-7.973 -7.731,4.492 -7.5,5.274 1.492,5.352 5.777,0.039 10.539,2.5 10.539,5.512 0,8.437 -16.359,6.328 -20.148,-2.582 -3.403,-7.969 10.468,-18.629 24.648,-18.95 4.141,-0.07 7.539,4.539 7.539,10.239"
           inkscape:connector-curvature="0" />
        <path
           id="path4603"
           style="fill:#171717;fill-opacity:1;fill-rule:nonzero;stroke:none"
           d="M 542.422,263.039 C 415.66,329.48 383.789,348.5 379.02,360.5 c -3.282,8.199 -8.79,14.879 -12.258,14.879 -3.953,0 -6.332,17.891 -6.332,47.543 l 0,47.539 192.769,100 C 659.219,625.5 762.109,678.66 781.84,688.66 l 35.859,18.129 348.591,-181.719 0,-45 c 0,-39.14 -1.6,-45.898 -12.03,-51.8 -6.64,-3.711 -12.03,-10.508 -12.03,-15.122 0,-5.226 -59.18,-39.328 -157.851,-91.007 -86.84,-45.43 -161.957,-84.852 -166.918,-87.539 -120.781,-65.864 -88.91,-69.18 -275.039,28.437 z m 189.769,-33.75 c 8.86,0.031 29.649,7.301 46.207,16.133 l 30.043,16.047 -46.601,0.121 c -53.91,0.121 -59.809,6.801 -22.82,25.82 20.082,10.309 32.582,12.192 81.8,12.192 54.02,0 60.7,1.207 94.84,17.578 l 36.719,17.609 -56.25,1.57 c -58.008,1.602 -68.008,16.75 -11.359,17.18 22.261,0.199 35.621,7.973 21.441,12.539 -4.141,1.332 -6.211,3.602 -4.531,5.043 3.199,2.809 172.3,91.449 215.2,112.77 14.88,7.429 25.03,16.14 24.06,20.711 -2.42,11.089 -317.928,175 -329.338,171.128 -26.442,-9.058 -420,-216.839 -416.372,-219.839 2.391,-1.922 62.469,-34.141 133.598,-71.571 71.094,-37.422 140.781,-74.179 154.844,-81.679 l 25.547,-13.629 0.82,-42.114 c 0.473,-23.117 1.992,-36.597 3.441,-29.878 1.911,8.98 6.829,12.191 18.711,12.269 z m -33.953,32.531 c 1.883,17.539 -0.148,23.289 -10.269,29.258 -11.719,6.922 -12.5,6.453 -11.489,-6.949 0.59,-7.891 -0.07,-10.27 -1.48,-5.309 -3.32,11.75 -19.879,17.61 -19.879,7.071 0,-4.379 -2.621,-7.969 -5.82,-7.969 -3.211,0 -4.301,3.668 -2.391,8.117 2.93,6.801 -4.531,8.133 -46.289,8.133 -27.383,0 -47.891,-1.684 -45.621,-3.711 51.211,-46.141 139.531,-63.75 143.238,-28.641 z m -74.527,50.711 c -0.742,8.039 -4.102,11.91 -8.941,10.231 -10.79,-3.711 -9.77,-23.16 1.171,-23.16 5.778,0 8.547,4.609 7.77,12.929 z m -135.039,68.668 c -6.094,5.473 -8.942,-21.64 -3.473,-32.89 2.5,-5.161 4.762,-1.489 6.172,10.16 1.25,10.07 0,20.312 -2.699,22.73 z m -27.973,-12.027 c 8.68,-6.453 9.692,-2.813 4.379,15.039 -2.808,9.41 -24.34,23.668 -35.777,23.668 -1.492,0 -2.699,-8.32 -2.699,-18.52 0,-18.429 10,-27.57 20.589,-18.82 3.118,2.531 9.098,1.949 13.508,-1.367"
           inkscape:connector-curvature="0" />
        <path
           id="path4605"
           style="fill:#010101;fill-opacity:1;fill-rule:nonzero;stroke:none"
           d="m 543.98,263.23 c -98.859,52.27 -158.781,87.192 -163.199,95.122 -3.793,6.91 -9.961,15.269 -13.633,18.589 -3.828,3.438 -6.679,24.649 -6.597,49.61 l 0.07,43.59 193.25,100.199 C 660.16,625.422 763.09,678.469 782.578,688.191 l 35.473,17.661 174.097,-90.551 174.142,-90.582 0,-44.688 c 0,-39.14 -1.52,-45.429 -12.03,-50.472 -6.64,-3.2 -12.07,-10 -12.07,-15.118 0,-6.402 -46.45,-33.402 -150.979,-87.769 C 908.199,283.469 811.48,233 776.25,214.441 697.109,172.84 726.68,166.629 543.98,263.23 z m 278.008,3.051 c 139.102,73.117 215.042,112.848 255.592,133.75 25.9,13.36 40.58,24.367 40.58,30.43 0,5.23 5.39,12.148 12.04,15.309 9.92,4.8 11.99,11.25 11.79,36.761 l -0.19,30.938 -157.269,81.25 c -86.48,44.64 -161.722,81.211 -167.152,81.211 -28.859,0 -428.16,-216.289 -414.68,-224.61 7.379,-4.531 74.602,-40.39 149.449,-79.691 74.801,-39.301 140.782,-74.059 146.563,-77.231 8.519,-4.648 10.508,-13.507 10.508,-46.757 l 0,-41.012 19.57,10.473 c 10.742,5.738 52.691,27.847 93.199,49.179 z M 697.191,253.539 c 0,13.402 0.231,26.211 0.508,28.441 0.539,4.809 -123.679,69.301 -143.32,74.379 -10.981,2.852 -13.52,1.36 -13.52,-7.929 0,-6.289 -7.187,-17.039 -15.937,-23.789 L 508.98,312.289 526.41,301.16 c 104.141,-66.41 170.781,-85 170.781,-47.621 z M 492.73,358.82 c 0,11.75 -2.691,22.852 -6.011,24.68 -3.321,1.84 -6.059,-1.051 -6.098,-6.441 -0.07,-8.047 -1.09,-8.399 -5.621,-1.918 -3.051,4.3 -4.449,9.379 -3.16,11.289 2.031,2.929 -34.57,21.449 -42.461,21.449 -17.348,0 0.109,-39.02 20.82,-46.488 12.961,-4.68 25.031,-11.95 26.871,-16.211 6.481,-15.231 15.66,-7.258 15.66,13.64"
           inkscape:connector-curvature="0" />
        <g
           transform="scale(10,10)"
           id="g4607">
          <text
             id="text4609"
             transform="matrix(1,0,0,-1,24.4551,128.643)">
            <tspan
               id="tspan4611"
               sodipodi:role="line"
               y="0"
               x="0 11.250422 24.089453 35.413769 47.218399 58.579666 70.735191 82.872307 97.466454"
               style="font-size:18.47360039px;font-variant:normal;font-weight:normal;writing-mode:lr-tb;fill:#000000;fill-opacity:1;fill-rule:nonzero;stroke:none;font-family:DejaVu Sans;-inkscape-font-specification:DejaVuSans">Удаленный</tspan>
            <tspan
               id="tspan4613"
               sodipodi:role="line"
               y="23.092199"
               x="-22.460501 -8.5314054 2.7929113 14.523647 31.519289 43.250023 54.186398 64.956505 77.038406 86.866356 98.190674 108.96078 120.26663"
               style="font-size:18.47360039px;font-variant:normal;font-weight:normal;writing-mode:lr-tb;fill:#000000;fill-opacity:1;fill-rule:nonzero;stroke:none;font-family:DejaVu Sans;-inkscape-font-specification:DejaVuSans">маршрутизатор</tspan>
          </text>
        </g>
        <path
           id="path4615"
           style="fill:#fcfcfc;fill-opacity:1;fill-rule:nonzero;stroke:none"
           d="m 196.328,1916.63 0,473.12 1198.202,0 0,-946.25 -1198.202,0"
           inkscape:connector-curvature="0" />
        <path
           id="path4617"
           style="fill:#eaeaea;fill-opacity:1;fill-rule:nonzero;stroke:none"
           d="m 882.031,1514.09 c -55.312,32.93 -68.832,37.3 -128.16,41.33 -116.883,7.93 -228.051,78.05 -275.941,173.98 -13.828,27.78 -29.809,41.8 -79.258,69.53 -50.473,28.32 -61.871,38.48 -61.871,55.08 0,11.21 -3.711,20.35 -8.281,20.35 -5.122,0 -8.25,45.86 -8.25,120.71 l 0,120.66 156.531,94.77 c 189.41,114.64 149.758,115.74 359.097,-9.77 95.903,-57.46 236.682,-141.87 312.772,-187.54 l 138.44,-83.05 0,-114.88 c 0,-63.2 -3.36,-118.55 -7.46,-122.97 -4.1,-4.41 -8.75,-15 -10.35,-23.51 -2.97,-16.17 -288.991,-191.06 -312.89,-191.33 -6.922,-0.08 -40.39,16.41 -74.379,36.64 z m 243.949,308.16 c 40.9,25.24 82.97,51.37 93.51,58.05 48.05,30.39 12.27,36.45 -204.02,34.45 l -203.521,-1.91 202.461,-4.69 202.47,-4.65 -202.47,-3.75 -202.461,-3.78 190.041,-4.46 c 265.39,-6.25 209.92,-17.15 -87.15,-17.15 -218.281,0 -246.442,-1.48 -242.141,-12.93 2.961,-7.89 10.621,-11.01 19.801,-8.04 9.262,3 17.969,-0.71 22.93,-9.77 6.09,-11.17 20.39,-15 60.511,-16.17 50.309,-1.48 175.188,-58.75 193.239,-88.63 5.121,-8.44 26.8,3.12 156.8,83.43 z m -377.742,92.15 c -25.968,1.68 -70.578,1.68 -99.179,0.04 -28.59,-1.64 -7.34,-3.01 47.191,-3.05 54.531,0 77.93,1.33 51.988,3.01 z m -8.59,25.39 c -30.699,1.6 -80.898,1.6 -111.558,0 -30.668,-1.64 -5.59,-2.97 55.781,-2.97 61.359,0 86.438,1.33 55.777,2.97 z m 342.462,0.04 c -51.37,1.49 -133.161,1.49 -181.801,0 -48.59,-1.48 -6.559,-2.69 93.441,-2.69 100,0 139.77,1.21 88.36,2.69"
           inkscape:connector-curvature="0" />
        <path
           id="path4619"
           style="fill:#a4a4a4;fill-opacity:1;fill-rule:nonzero;stroke:none"
           d="m 882.191,1515.54 c -46.019,27.85 -70.742,37.53 -95.98,37.65 -127.383,0.55 -235.512,61.99 -305.27,173.52 -21.371,34.18 -40.472,51.72 -82.39,75.66 -30,17.15 -56.442,37.54 -58.75,45.27 -2.34,7.74 -7.653,20.67 -11.871,28.72 -20.629,39.49 -8.95,232.5 15.082,249.61 45.039,32.1 296.437,179.29 306.207,179.29 9.179,0 603.941,-354.22 627.541,-373.71 13.86,-11.44 13.98,-197.62 0.19,-242.81 -9.68,-31.64 -17.65,-37.66 -161.87,-122.38 -175.779,-103.17 -154.139,-98.44 -232.889,-50.82 z M 1111.95,1811 c 133.44,81.06 137.85,85.63 102.78,106.29 -12.46,7.35 -144.57,86.53 -293.601,175.9 -149.02,89.42 -273.859,161.33 -277.418,159.85 -25.941,-10.86 -257.34,-154.22 -257.34,-159.42 0,-3.63 23.508,-20.04 52.301,-36.48 40.898,-23.4 55.508,-37.23 67.226,-63.83 17.071,-38.63 40.821,-63.91 52.93,-56.25 4.492,2.85 10.391,1.56 13.051,-2.81 2.652,-4.42 0.973,-10.43 -3.719,-13.4 -14.762,-9.34 -1.281,-19.03 20.469,-14.77 21.371,4.14 29.141,-9.41 10.551,-18.36 -5.7,-2.77 0.351,-2.89 13.441,-0.27 20.738,4.1 23.238,2.5 19.488,-12.23 -3.828,-15 -1.371,-16.36 20.981,-11.79 21.789,4.45 24.488,3.12 19.68,-9.77 -4.45,-11.8 -2.54,-13.75 8.949,-9.18 8.011,3.2 16.402,6.49 18.672,7.31 2.269,0.82 4.808,-2.19 5.589,-6.65 2.34,-13.08 28.43,-20.23 76.321,-20.85 44.539,-0.59 182.5,-66.53 182.5,-87.23 0,-13.36 19.609,-3.52 147.149,73.94"
           inkscape:connector-curvature="0" />
        <path
           id="path4621"
           style="fill:#636363;fill-opacity:1;fill-rule:nonzero;stroke:none"
           d="m 882.109,1519.44 c -50.16,30.16 -76.058,40.98 -90.82,37.97 -95.59,-19.37 -254.961,68.79 -306.719,169.69 -16.05,31.29 -30.82,44.65 -80.191,72.62 -33.328,18.86 -62.391,40.5 -64.649,48.12 -2.269,7.62 -7.582,20.47 -11.8,28.52 -4.219,8.08 -7.66,64.06 -7.66,124.37 l 0,109.73 161.679,98.08 c 102.66,62.27 166.571,96.18 174.961,92.89 12.43,-4.88 349.77,-206.25 535.16,-319.41 95.59,-58.36 134.73,-189.88 85.47,-287.3 -5.24,-10.4 -11.92,-24.22 -14.84,-30.75 -4.46,-9.92 -293.321,-185.82 -306.22,-186.48 -2.3,-0.12 -35.781,18.79 -74.371,41.95 z m 356.641,376.06 c 0.98,4.64 -55.63,43 -125.74,85.19 -70.16,42.23 -201.291,121.13 -291.408,175.31 -195.352,117.5 -154.723,114.85 -312.622,20.39 -151.992,-90.89 -143.75,-78.94 -80.152,-116.13 27.813,-16.29 56.25,-39.1 63.242,-50.7 37.461,-62.38 48.52,-75.94 61.989,-75.98 9.531,-0.04 13.992,-5.35 12.421,-14.84 -1.832,-11.06 2.469,-14.26 17.071,-12.62 14.418,1.6 18.25,-1.13 14.73,-10.55 -3.48,-9.21 0.778,-12.73 15.348,-12.73 15.32,0 18.871,-3.36 14.891,-13.95 -4.34,-11.64 -1.411,-12.96 17.851,-8 19.18,4.92 22.18,3.59 17.891,-7.89 -4.301,-11.41 -1.102,-12.86 18.547,-8.44 17.312,3.91 25.082,1.8 28.671,-7.77 3.75,-9.97 17.661,-13.09 58.008,-13.09 53.133,0 178.133,-56.76 197.543,-89.65 6.641,-11.29 268.129,144.1 271.719,161.45"
           inkscape:connector-curvature="0" />
        <path
           id="path4623"
           style="fill:#089908;fill-opacity:1;fill-rule:nonzero;stroke:none"
           d="m 882.27,1519.72 c -63.29,37.92 -75.122,42.07 -120.321,42.07 -106.398,0 -204.25,56.13 -267.461,153.47 -29.879,46.02 -46.519,61.96 -92.066,88.21 -74.332,42.77 -82.192,61.36 -82.031,194.14 0.16,118.75 30.699,147.96 311.718,298.24 16.641,8.9 49.961,-8.99 332.461,-178.32 l 313.98,-188.24 -0.23,-114.07 c -0.31,-156.44 8.09,-144.22 -171.48,-249.33 -83.25,-48.71 -152.039,-88.52 -152.891,-88.4 -0.828,0.12 -33.09,19.1 -71.679,42.23 z m 228.98,287.1 c 71.17,44.15 130.51,84.03 131.87,88.68 2.04,7.11 -561.909,352.22 -589.14,360.5 -11.011,3.32 -275.859,-152.26 -275.859,-162.11 0,-3.75 23.789,-20.46 52.899,-37.1 43.32,-24.77 57.531,-38.64 78.55,-76.76 17.969,-32.54 30.739,-46.53 42.5,-46.53 11.45,0 16.051,-4.72 14.41,-14.76 -1.789,-10.9 2.469,-14.26 16.141,-12.77 10.231,1.09 18.59,-1.76 18.59,-6.33 0,-4.61 -3.91,-8.36 -8.75,-8.36 -4.801,0 -6.441,-3.83 -3.59,-8.48 2.809,-4.69 15.039,-5.98 27.34,-2.81 20.738,5.27 21.367,4.61 9.809,-9.85 -11.68,-14.6 -10.79,-15.19 15.351,-9.88 23.399,4.73 26.91,3.48 22.578,-8.12 -4.301,-11.41 -0.937,-12.85 19.762,-8.64 18.711,3.83 24.961,2 24.961,-7.34 0,-9.73 11.988,-12.46 54.726,-12.46 48.59,0 61.872,-3.95 117.774,-35.08 96.367,-53.67 91.637,-45.66 93.707,-158.44 l 1.762,-97.96 2.621,97.18 2.578,97.23"
           inkscape:connector-curvature="0" />
        <path
           id="path4625"
           style="fill:#282828;fill-opacity:1;fill-rule:nonzero;stroke:none"
           d="m 882.27,1519.72 c -63.29,37.92 -75.122,42.07 -120.321,42.07 -106.398,0 -204.25,56.13 -267.461,153.47 -29.879,46.02 -46.519,61.96 -92.066,88.21 -74.332,42.77 -82.192,61.36 -82.031,194.14 0.16,118.75 30.699,147.96 311.718,298.24 16.641,8.9 49.961,-8.99 332.461,-178.32 l 313.98,-188.24 -0.23,-114.07 c -0.31,-156.44 8.09,-144.22 -171.48,-249.33 -83.25,-48.71 -152.039,-88.52 -152.891,-88.4 -0.828,0.12 -33.09,19.1 -71.679,42.23 z m 228.98,287.1 c 71.17,44.15 130.51,84.03 131.87,88.68 2.04,7.11 -561.909,352.22 -589.14,360.5 -11.011,3.32 -275.859,-152.26 -275.859,-162.11 0,-3.75 23.481,-20.27 52.188,-36.71 52.351,-29.93 124.031,-124.18 104.07,-136.8 -10.75,-6.8 -9.418,-79.81 1.441,-79.81 5.508,0 7.891,13.99 6.211,35.9 -2.152,27.58 0.117,35.94 9.61,35.94 10.039,0 11.839,-10.43 9.531,-54.92 -1.602,-30.2 0.117,-51.92 3.789,-48.24 3.668,3.71 5.629,21.75 4.301,40.15 -1.684,24.07 0.859,33.44 9.136,33.44 8.942,0 10.704,-11.29 7.891,-50.7 -2.379,-33.99 -0.508,-50.71 5.66,-50.71 5.43,0 9.262,15.24 9.262,36.61 0,39.29 4.34,48.9 19.41,43 6.18,-2.42 8.559,-21.52 6.719,-54.33 -1.789,-32.62 0.39,-50.63 6.211,-50.63 5.277,0 8.988,17.42 8.988,42.27 0,34.57 2.621,42.22 14.449,42.26 12.192,0 14.34,-7.65 13.711,-48.59 -0.66,-41.76 -0.308,-42.93 2.5,-8.48 1.879,22.97 7.5,40.55 13.172,41.06 78.199,7.15 136.359,-3.75 195.82,-36.72 95.149,-52.74 90.618,-45 92.688,-157.7 l 1.762,-97.96 2.621,97.18 2.578,97.23"
           inkscape:connector-curvature="0" />
        <path
           id="path4627"
           style="fill:#046204;fill-opacity:1;fill-rule:nonzero;stroke:none"
           d="m 886.172,1521.04 c -51.992,31.8 -64.883,35.86 -130.121,41.14 -118.352,9.57 -233.121,82.93 -273.75,174.96 -11.52,26.17 -25.891,38.63 -75.66,65.74 -47.77,26.05 -61.442,37.62 -61.52,52.07 -0.043,10.23 -4.73,21.64 -10.391,25.35 -7.781,5.08 -9.3,34.92 -6.21,120.67 l 4.14,113.94 157.031,94.26 c 132.219,79.41 159.61,92.89 173.508,85.43 26.602,-14.26 149.731,-87.66 388.401,-231.53 l 223.09,-134.49 2.34,-113.04 c 1.41,-69.5 -0.98,-116.37 -6.21,-121.72 -4.69,-4.77 -8.59,-14.57 -8.67,-21.8 -0.16,-13.48 -284.572,-186.29 -306.638,-186.29 -6.371,0 -37.582,15.9 -69.34,35.31 z m 95.199,28.05 c 0,7.15 7.379,12.7 16.91,12.7 9.339,0 28.829,6.64 43.399,14.76 l 26.44,14.81 -43.39,2.53 c -41.96,2.47 -43.359,3.4 -43.359,27.47 l 0,24.92 169.369,0.08 -26.4,25.31 c -24.18,23.16 -31.33,25.31 -84.69,25.31 -91.681,0 -81.291,15.31 74.33,109.81 163.01,98.9 181.25,68.67 -168.468,279.02 l -296.133,178.12 -139.688,-82.85 c -162.929,-96.6 -153.793,-83.2 -84.031,-123.4 74.539,-42.93 106.449,-95.5 102.309,-168.51 -1.918,-33.44 0.269,-48.6 7.031,-48.6 6.449,0 8.871,12.27 7.031,35.94 -2.152,27.54 0.117,35.9 9.61,35.9 10.039,0 11.839,-10.43 9.531,-54.92 -1.602,-30.2 0.117,-51.92 3.789,-48.2 3.668,3.67 5.629,21.71 4.301,40.11 -1.684,24.07 0.859,33.44 9.136,33.44 8.942,0 10.704,-11.29 7.891,-50.7 -2.379,-33.99 -0.508,-50.71 5.66,-50.71 5.43,0 9.262,15.24 9.262,36.64 0,39.26 4.34,48.87 19.41,42.97 6.18,-2.38 8.559,-21.48 6.719,-54.33 -1.789,-32.62 0.39,-50.59 6.211,-50.59 5.277,0 8.988,17.38 8.988,42.23 0,34.61 2.621,42.22 14.449,42.26 12.422,0 14.063,-6.75 11.602,-47.34 -1.602,-26.02 0.281,-50.59 4.14,-54.53 3.829,-3.95 5.711,13.55 4.18,38.87 -2.109,34.14 0.039,46.25 8.25,46.71 98.668,5.47 133.281,-1.83 205.43,-43.39 82.34,-47.46 80,-42.5 78.98,-166.33 -0.351,-43.01 2.192,-78.17 5.59,-78.17 3.391,0 6.211,5.71 6.211,12.7 l 0,-0.04 z m -36.293,53.4 c -22.187,36.72 -96.098,60.66 -184.648,59.84 -95.629,-0.9 -90.629,-13.55 6.05,-15.39 46.219,-0.9 61.84,-5.66 111.571,-34.22 51.64,-29.68 81.558,-34.25 67.027,-10.23 z m 3.203,60.66 c 0,14.81 -5.39,16.88 -43.359,16.57 l -43.402,-0.36 28.949,-16.21 c 38.203,-21.36 57.812,-21.36 57.812,0 z m -4.101,50.71 c 3.32,5.5 -43.129,8.16 -133.828,7.61 -82.422,-0.5 -130.512,-3.59 -118.243,-7.61 30.7,-10.04 245.981,-10.04 252.071,0"
           inkscape:connector-curvature="0" />
        <path
           id="path4629"
           style="fill:#070707;fill-opacity:1;fill-rule:nonzero;stroke:none"
           d="m 886.172,1521.04 c -51.992,31.8 -64.883,35.86 -130.121,41.14 -118.352,9.57 -233.121,82.93 -273.75,174.96 -11.52,26.17 -25.891,38.63 -75.66,65.74 -47.77,26.05 -61.442,37.62 -61.52,52.07 -0.043,10.23 -4.73,21.64 -10.391,25.35 -7.781,5.08 -9.3,34.92 -6.21,120.67 l 4.14,113.94 157.031,94.26 c 132.219,79.41 159.61,92.89 173.508,85.43 26.602,-14.26 149.731,-87.66 388.401,-231.53 l 223.09,-134.49 2.34,-113.04 c 1.41,-69.5 -0.98,-116.37 -6.21,-121.72 -4.69,-4.77 -8.59,-14.57 -8.67,-21.8 -0.16,-13.48 -284.572,-186.29 -306.638,-186.29 -6.371,0 -37.582,15.9 -69.34,35.31 z m 95.199,28.05 c 0,7.15 7.379,12.7 16.91,12.7 9.339,0 28.829,6.64 43.399,14.76 l 26.44,14.81 -43.39,2.53 c -41.96,2.47 -43.359,3.4 -43.359,27.47 l 0,24.92 169.369,0.08 -26.4,25.31 c -24.18,23.16 -31.33,25.31 -84.69,25.31 -91.681,0 -81.291,15.31 74.33,109.81 163.01,98.9 181.25,68.67 -168.468,279.02 l -296.133,178.12 -139.688,-82.85 c -162.929,-96.6 -153.793,-83.16 -84.031,-123.63 59.809,-34.69 120.551,-115.98 101.371,-135.59 -9.301,-9.49 -11.332,-55.27 -3.441,-76.36 9.648,-25.67 19.808,-13.05 19.808,24.64 0,29.46 3.012,38.05 13.403,38.05 10.66,0 11.398,-2.46 3.629,-12.03 -11.52,-14.18 -8.481,-93.59 3.59,-93.59 4.57,0 9.421,18.04 10.781,40.11 1.41,22.07 5.121,40.16 8.289,40.16 3.16,0 4.488,-25.12 2.93,-55.86 -2.231,-43.94 -0.43,-55.04 8.281,-51.95 7.609,2.73 10.269,16.17 8.59,43.2 -2.231,34.81 -0.59,39.26 14.531,39.26 14.418,0 15.547,-2.35 7.539,-15.51 -10.781,-17.62 -2.77,-94.34 9.84,-94.34 4.258,0 7.738,20.94 7.738,46.49 0,31.52 3.32,46.48 10.352,46.48 7.148,0 10.308,-16.01 10.308,-52.07 0,-34.1 3.563,-53.28 10.321,-55.62 7.46,-2.58 10.351,9.61 10.351,43.59 l 0,47.19 66.25,0 c 64.219,0 68.508,-1.33 139.41,-42.19 83.52,-48.12 81.059,-42.93 80.039,-166.91 -0.351,-43.01 2.192,-78.17 5.59,-78.17 3.391,0 6.211,5.71 6.211,12.7 l 0,-0.04 z m -36.293,53.4 c -22.187,36.72 -96.098,60.66 -184.648,59.84 -95.629,-0.9 -90.629,-13.55 6.05,-15.39 46.219,-0.9 61.84,-5.66 111.571,-34.22 51.64,-29.68 81.558,-34.25 67.027,-10.23 z m 3.203,60.66 c 0,14.81 -5.39,16.88 -43.359,16.57 l -43.402,-0.36 28.949,-16.21 c 38.203,-21.36 57.812,-21.36 57.812,0 z m -4.101,50.71 c 3.32,5.5 -43.129,8.16 -133.828,7.61 -82.422,-0.5 -130.512,-3.59 -118.243,-7.61 30.7,-10.04 245.981,-10.04 252.071,0"
           inkscape:connector-curvature="0" />
        <path
           id="path4631"
           style="fill:none;stroke:#000000;stroke-width:8;stroke-linecap:butt;stroke-linejoin:miter;stroke-miterlimit:4;stroke-opacity:1;stroke-dasharray:none"
           d="m 649.379,2263.94 0,989.61"
           inkscape:connector-curvature="0" />
        <path
           id="path4633"
           style="fill:none;stroke:#000000;stroke-width:8;stroke-linecap:butt;stroke-linejoin:miter;stroke-miterlimit:4;stroke-opacity:1;stroke-dasharray:none"
           d="m 647.461,591.625 0,468.135"
           inkscape:connector-curvature="0" />
      </g>
    </g>
  </g>
</svg>
