<?xml version="1.0" encoding="UTF-8" standalone="no"?>
<!-- Created with Inkscape (http://www.inkscape.org/) -->

<svg
   xmlns:dc="http://purl.org/dc/elements/1.1/"
   xmlns:cc="http://creativecommons.org/ns#"
   xmlns:rdf="http://www.w3.org/1999/02/22-rdf-syntax-ns#"
   xmlns:svg="http://www.w3.org/2000/svg"
   xmlns="http://www.w3.org/2000/svg"
   xmlns:sodipodi="http://sodipodi.sourceforge.net/DTD/sodipodi-0.dtd"
   xmlns:inkscape="http://www.inkscape.org/namespaces/inkscape"
   width="645.276"
   height="583.7243"
   id="svg2"
   version="1.1"
   inkscape:version="0.48.5 r10040"
   sodipodi:docname="Router.svg">
  <defs
     id="defs4">
    <inkscape:perspective
       sodipodi:type="inkscape:persp3d"
       inkscape:vp_x="0 : 526.18109 : 1"
       inkscape:vp_y="0 : 1000 : 0"
       inkscape:vp_z="744.09448 : 526.18109 : 1"
       inkscape:persp3d-origin="372.04724 : 350.78739 : 1"
       id="perspective2998" />
  </defs>
  <sodipodi:namedview
     id="base"
     pagecolor="#ffffff"
     bordercolor="#666666"
     borderopacity="1.0"
     inkscape:pageopacity="0.0"
     inkscape:pageshadow="2"
     inkscape:zoom="0.98994949"
     inkscape:cx="361.31359"
     inkscape:cy="289.69409"
     inkscape:document-units="px"
     inkscape:current-layer="layer1"
     showgrid="false"
     showguides="true"
     inkscape:guide-bbox="true"
     inkscape:object-paths="true"
     inkscape:snap-intersection-paths="false"
     inkscape:object-nodes="true"
     inkscape:snap-smooth-nodes="true"
     inkscape:snap-midpoints="true"
     inkscape:snap-object-midpoints="true"
     inkscape:snap-center="true"
     inkscape:window-width="1366"
     inkscape:window-height="666"
     inkscape:window-x="0"
     inkscape:window-y="31"
     inkscape:window-maximized="1"
     fit-margin-top="0"
     fit-margin-left="0"
     fit-margin-right="0"
     fit-margin-bottom="0"
     inkscape:snap-nodes="true">
    <sodipodi:guide
       orientation="0,1"
       position="424.81416,181.33327"
       id="guide3020" />
    <sodipodi:guide
       orientation="1,0"
       position="322.63799,382.52877"
       id="guide3066" />
  </sodipodi:namedview>
  <metadata
     id="metadata7">
    <rdf:RDF>
      <cc:Work
         rdf:about="">
        <dc:format>image/svg+xml</dc:format>
        <dc:type
           rdf:resource="http://purl.org/dc/dcmitype/StillImage" />
        <dc:title />
      </cc:Work>
    </rdf:RDF>
  </metadata>
  <g
     inkscape:label="Layer 1"
     inkscape:groupmode="layer"
     id="layer1"
     transform="translate(184.09988,-7.1140458)">
    <text
       xml:space="preserve"
       style="font-size:20px;font-style:normal;font-weight:normal;line-height:125%;letter-spacing:0px;word-spacing:0px;fill:#000000;fill-opacity:1;stroke:none;font-family:Sans"
       x="28.928572"
       y="120.62442"
       id="text3382"
       sodipodi:linespacing="125%"
       transform="translate(179.29616,369.57904)"><tspan
         sodipodi:role="line"
         id="tspan3384"
         x="28.928572"
         y="120.62442" /></text>
    <text
       xml:space="preserve"
       style="font-size:78.55934143px;font-style:normal;font-weight:normal;text-align:center;line-height:125%;letter-spacing:0px;word-spacing:0px;text-anchor:middle;fill:#000000;fill-opacity:1;stroke:none;font-family:Sans"
       x="137.11884"
       y="476.29819"
       id="text3386"
       sodipodi:linespacing="125%"><tspan
         sodipodi:role="line"
         id="tspan3388"
         x="137.11885"
         y="476.29819">Удаленный</tspan><tspan
         sodipodi:role="line"
         x="137.11882"
         y="574.49738"
         id="tspan3518">маршрутизатор</tspan></text>
    <g
       id="g3500"
       transform="matrix(3.5140919,0,0,3.5927769,1953.8853,-454.71091)">
      <path
         style="fill:#fcfcfc"
         d="m -589.0907,184.54262 0,-56 72.5,0 72.5,0 0,56 0,56 -72.5,0 -72.5,0 0,-56 z"
         id="path3516"
         inkscape:connector-curvature="0" />
      <path
         style="fill:#eaeaea"
         d="m -506.11161,232.18633 c -6.68968,-3.89648 -8.32667,-4.41265 -15.50927,-4.89037 -14.1425,-0.94061 -27.59531,-9.23836 -33.38864,-20.59422 -1.67749,-3.28815 -3.61082,-4.94693 -9.59109,-8.22909 -6.11051,-3.35364 -7.49009,-4.55463 -7.49009,-6.52042 0,-1.32528 -0.45,-2.40961 -1,-2.40961 -0.61999,0 -1,-5.4279 -1,-14.28371 l 0,-14.28371 18.94327,-11.21629 c 22.91991,-13.57085 18.12459,-13.69815 43.45732,1.15366 11.60467,6.80348 28.63691,16.79317 37.84941,22.19931 l 16.75,9.82935 0,13.60069 c 0,7.48039 -0.40632,14.0282 -0.90294,14.5507 -0.49661,0.5225 -1.05911,1.77595 -1.25,2.78545 -0.36226,1.91583 -34.97296,22.61537 -37.86797,22.64761 -0.8365,0.009 -4.8865,-1.94339 -9,-4.33935 z m 29.52091,-36.47255 c 4.95,-2.99086 10.04261,-6.08301 11.31692,-6.87144 5.81637,-3.59869 1.48571,-4.31374 -24.68936,-4.07657 l -24.62756,0.22315 24.5,0.5537 24.5,0.5537 -24.5,0.44477 -24.5,0.44477 23,0.52838 c 32.11594,0.7378 25.40313,2.02838 -10.5504,2.02838 -26.41399,0 -29.81862,0.17776 -29.29979,1.5298 0.35995,0.93802 1.28619,1.3079 2.3944,0.95617 1.12311,-0.35646 2.17384,0.0812 2.77538,1.15614 0.73969,1.32175 2.46734,1.77286 7.32422,1.91241 6.08885,0.17496 21.19815,6.95369 23.38458,10.49141 0.61577,0.99634 3.2408,-0.36999 18.97161,-9.87477 z m -45.71081,-10.90898 c -3.14095,-0.19781 -8.54095,-0.19942 -12,-0.004 -3.45906,0.19583 -0.88919,0.35767 5.71081,0.35965 6.6,0.002 9.43013,-0.15825 6.28919,-0.35605 z m -1.03919,-3.00373 c -3.7125,-0.19241 -9.7875,-0.19241 -13.5,0 -3.7125,0.19241 -0.675,0.34983 6.75,0.34983 7.425,0 10.4625,-0.15742 6.75,-0.34983 z m 41.44458,-0.006 c -6.21799,-0.17571 -16.11799,-0.17509 -22,10e-4 -5.88202,0.17649 -0.79458,0.32027 11.30542,0.31951 12.1,-7.5e-4 16.91256,-0.14515 10.69458,-0.32089 z"
         id="path3514"
         inkscape:connector-curvature="0" />
      <path
         style="fill:#a4a4a4"
         d="m -506.0907,232.01444 c -5.56884,-3.2955 -8.55918,-4.44262 -11.61351,-4.45507 -15.41411,-0.0628 -28.49832,-7.33647 -36.94248,-20.53683 -2.58731,-4.04462 -4.8989,-6.12141 -9.97,-8.95733 -3.63097,-2.03055 -6.83086,-4.44131 -7.11088,-5.35725 -0.28002,-0.91594 -0.92628,-2.44673 -1.43613,-3.40177 -2.49331,-4.6704 -1.08346,-27.51836 1.823,-29.54351 5.45282,-3.79938 35.87546,-21.22006 37.05771,-21.22006 1.11053,0 73.08663,41.9235 75.94229,44.23367 1.67451,1.35464 1.68991,23.3883 0.0201,28.73863 -1.16941,3.74693 -2.13309,4.45947 -19.58935,14.48425 -21.26896,12.21432 -18.65004,11.6553 -28.18075,6.01527 z m 27.80339,-34.97182 c 16.14926,-9.59402 16.68459,-10.1354 12.44029,-12.5808 -1.50903,-0.86944 -17.49876,-10.23858 -35.53274,-20.82031 -18.03399,-10.58173 -33.14052,-19.09537 -33.57008,-18.9192 -3.13685,1.28649 -31.14086,18.25661 -31.14086,18.87101 0,0.42744 2.84689,2.36924 6.32642,4.3151 4.9534,2.7701 6.7197,4.41007 8.13851,7.55643 2.0627,4.57425 4.93806,7.56478 6.40296,6.65942 0.54665,-0.33785 1.25735,-0.18803 1.57932,0.33294 0.32198,0.52097 0.12073,1.2344 -0.44721,1.58541 -1.78577,1.10367 -0.15887,2.25303 2.47613,1.74931 2.58333,-0.49383 3.52467,1.11219 1.27387,2.17334 -0.6875,0.32412 0.0461,0.33835 1.63016,0.0316 2.50844,-0.48573 2.81247,-0.29886 2.35568,1.44788 -0.46315,1.77109 -0.16645,1.93398 2.53768,1.39315 2.63844,-0.52769 2.96818,-0.36753 2.38298,1.15748 -0.53564,1.39584 -0.30693,1.62504 1.08216,1.08447 0.96874,-0.37698 1.98634,-0.76458 2.26134,-0.86133 0.275,-0.0967 0.5792,0.25652 0.676,0.78505 0.28377,1.54938 3.44258,2.39352 9.23823,2.46875 5.38597,0.0699 22.08577,7.87514 22.08577,10.32254 0,1.58167 2.36924,0.41694 17.80339,-8.75225 z"
         id="path3512"
         inkscape:connector-curvature="0" />
      <path
         style="fill:#636363"
         d="m -506.09876,231.55252 c -6.06976,-3.56676 -9.20502,-4.84853 -10.99194,-4.49378 -11.56534,2.29601 -30.85226,-8.13941 -37.11826,-20.08328 -1.94352,-3.70462 -3.72927,-5.28643 -9.70566,-8.59723 -4.02816,-2.23153 -7.54851,-4.79493 -7.823,-5.69646 -0.27449,-0.90153 -0.91623,-2.42054 -1.42608,-3.37558 -0.50985,-0.95504 -0.927,-7.57962 -0.927,-14.72129 l 0,-12.98487 19.56718,-11.60991 c 12.42023,-7.36938 20.15362,-11.38488 21.17278,-10.99379 1.50022,0.57569 42.32601,24.40892 64.76004,37.80555 11.56526,6.90627 16.30132,22.47448 10.34457,34.00431 -0.63548,1.23004 -1.44494,2.86849 -1.79879,3.64101 -0.53709,1.17255 -35.4949,21.99475 -37.05384,22.07068 -0.27944,0.0136 -4.32944,-2.2208 -9,-4.96536 z m 43.15789,-44.5099 c 0.11688,-0.55 -6.73151,-5.0886 -15.21866,-10.08577 -8.48714,-4.99717 -24.35518,-14.33467 -35.26231,-20.75 -23.63956,-13.90426 -18.72434,-13.59058 -37.82954,-2.41423 -18.39544,10.76114 -17.39711,9.34618 -9.70129,13.75 3.364,1.925 6.80714,4.625 7.65142,6 4.5349,7.3856 5.87115,8.98695 7.50439,8.99317 1.15187,0.004 1.68868,0.6331 1.5,1.75683 -0.21985,1.30933 0.30042,1.68511 2.0661,1.49231 1.74755,-0.19082 2.20981,0.13354 1.78138,1.25 -0.41805,1.08944 0.0976,1.50769 1.85868,1.50769 1.85387,0 2.28571,0.39486 1.80419,1.64968 -0.52889,1.37828 -0.17389,1.53443 2.15787,0.9492 2.32049,-0.58241 2.68547,-0.42573 2.1654,0.92956 -0.51829,1.35064 -0.13319,1.52191 2.24673,0.99919 2.09067,-0.45919 3.03424,-0.20864 3.46763,0.92076 0.45255,1.17932 2.13667,1.55161 7.01895,1.55161 6.42949,0 21.55703,6.7141 23.90586,10.6102 0.80375,1.33323 32.44669,-17.05619 32.8832,-19.1102 z"
         id="path3510"
         inkscape:connector-curvature="0" />
      <path
         style="fill:#089908"
         d="m -506.08263,231.51957 c -7.65851,-4.48849 -9.08707,-4.97695 -14.55583,-4.97695 -12.88035,0 -24.71795,-6.64313 -32.36785,-18.16448 -3.61927,-5.45089 -5.62921,-7.33383 -11.14478,-10.4406 -8.99465,-5.06642 -9.94449,-7.2659 -9.9243,-22.98094 0.0181,-14.05454 3.71596,-17.51506 37.72225,-35.30076 2.01322,-1.05294 6.04713,1.06341 40.23377,21.10825 l 37.99621,22.27853 -0.0289,13.5 c -0.0396,18.51716 0.97795,17.07016 -20.7539,29.51321 -10.07339,5.76773 -18.39838,10.47642 -18.5,10.46374 -0.10162,-0.0127 -4.00613,-2.26267 -8.67669,-5 z m 27.71232,-33.98311 c 8.61363,-5.22161 15.79413,-9.94384 15.95667,-10.49384 0.24891,-0.84229 -67.99903,-41.69023 -71.29042,-42.66894 -1.33416,-0.39672 -33.38664,18.02309 -33.38664,19.18652 0,0.44566 2.8804,2.4211 6.40088,4.38986 5.24509,2.93323 6.96202,4.57387 9.50855,9.08607 2.1749,3.85372 3.71856,5.50649 5.14296,5.50649 1.38364,0 1.9412,0.56031 1.74145,1.75 -0.21613,1.28719 0.3012,1.687 1.95616,1.51179 1.2375,-0.13102 2.25,0.20648 2.25,0.75 0,0.54351 -0.47656,0.98821 -1.05902,0.98821 -0.58246,0 -0.77988,0.45165 -0.43871,1.00367 0.34325,0.55539 1.82119,0.70462 3.30902,0.33413 2.51093,-0.62528 2.58953,-0.54825 1.18871,1.16498 -1.41355,1.7288 -1.30661,1.79622 1.85549,1.16978 2.8344,-0.56152 3.25867,-0.41245 2.73204,0.95993 -0.51767,1.34903 -0.11139,1.52228 2.39451,1.0211 2.26604,-0.45321 3.01796,-0.2361 3.01796,0.87141 0,1.15161 1.45291,1.475 6.62689,1.475 5.88054,0 7.48545,0.4675 14.25,4.15091 11.66251,6.35044 11.09057,5.40441 11.33814,18.75408 l 0.21504,11.59501 0.31459,-11.50616 0.31459,-11.50616 15.66114,-9.49384 z"
         id="path3508"
         inkscape:connector-curvature="0" />
      <path
         style="fill:#282828"
         d="m -506.08263,231.51957 c -7.65851,-4.48849 -9.08707,-4.97695 -14.55583,-4.97695 -12.88035,0 -24.71795,-6.64313 -32.36785,-18.16448 -3.61927,-5.45089 -5.62921,-7.33383 -11.14478,-10.4406 -8.99465,-5.06642 -9.94449,-7.2659 -9.9243,-22.98094 0.0181,-14.05454 3.71596,-17.51506 37.72225,-35.30076 2.01322,-1.05294 6.04713,1.06341 40.23377,21.10825 l 37.99621,22.27853 -0.0289,13.5 c -0.0396,18.51716 0.97795,17.07016 -20.7539,29.51321 -10.07339,5.76773 -18.39838,10.47642 -18.5,10.46374 -0.10162,-0.0127 -4.00613,-2.26267 -8.67669,-5 z m 27.71232,-33.98311 c 8.61363,-5.22161 15.79413,-9.94384 15.95667,-10.49384 0.24891,-0.84229 -67.99903,-41.69023 -71.29042,-42.66894 -1.33416,-0.39672 -33.38664,18.02309 -33.38664,19.18652 0,0.44566 2.84344,2.40043 6.31875,4.34393 6.33336,3.54182 15.00852,14.70016 12.59059,16.19452 -1.30095,0.80403 -1.13934,9.44397 0.17665,9.44397 0.66367,0 0.95533,-1.65273 0.75,-4.25 -0.25776,-3.26044 0.0133,-4.25 1.16401,-4.25 1.21525,0 1.43381,1.23391 1.1513,6.5 -0.19179,3.575 0.0149,6.14333 0.45926,5.7074 0.44438,-0.43593 0.67939,-2.57343 0.52224,-4.75 -0.20572,-2.84923 0.10357,-3.9574 1.10454,-3.9574 1.08079,0 1.29367,1.33567 0.95628,6 -0.29084,4.0208 -0.0645,6 0.68619,6 0.65458,0 1.12019,-1.80115 1.12019,-4.33333 0,-4.64731 0.52487,-5.78499 2.34777,-5.08884 0.74721,0.28536 1.03313,2.54597 0.81341,6.4311 -0.21834,3.86065 0.0484,5.99107 0.75,5.99107 0.63992,0 1.08882,-2.06142 1.08882,-5 0,-4.09454 0.31691,-5.00033 1.75,-5.00182 1.47495,-10e-4 1.7352,0.90221 1.65581,5.75 -0.0809,4.94088 -0.0383,5.08212 0.30226,1.00182 0.22665,-2.71555 0.90945,-4.79586 1.59419,-4.85707 9.46416,-0.84605 16.50529,0.44445 23.69774,4.34332 11.51681,6.243 10.96764,5.32885 11.21503,18.66874 l 0.21504,11.59501 0.31459,-11.50616 0.31459,-11.50616 15.66114,-9.49384 z"
         id="path3506"
         inkscape:connector-curvature="0" />
      <path
         style="fill:#046204"
         d="m -505.60657,231.36462 c -6.2918,-3.76384 -7.85303,-4.24662 -15.7495,-4.87029 -14.32367,-1.13128 -28.21174,-9.81293 -33.12396,-20.70629 -1.39688,-3.09773 -3.13452,-4.57457 -9.15884,-7.78423 -5.78259,-3.08088 -7.43676,-4.45017 -7.44335,-6.1615 -0.005,-1.21017 -0.57111,-2.56017 -1.25876,-3 -0.941,-0.60187 -1.12653,-4.13547 -0.75,-14.28431 l 0.50028,-13.48461 19,-11.15943 c 16.00386,-9.39967 19.31538,-10.99409 21,-10.11097 3.22052,1.68829 18.12101,10.37649 47,27.40486 l 27,15.92042 0.28021,13.37697 c 0.17236,8.2287 -0.11628,13.77345 -0.75,14.40717 -0.56662,0.56662 -1.0383,1.72771 -1.04818,2.58021 -0.0185,1.59786 -34.43764,22.05 -37.10818,22.05 -0.77307,0 -4.54845,-1.8801 -8.38972,-4.178 z m 11.51587,-3.322 c 0,-0.84545 0.89441,-1.5 2.04966,-1.5 1.12731,0 3.48981,-0.7875 5.25,-1.75 l 3.20034,-1.75 -5.25,-0.30226 c -5.07762,-0.29234 -5.25,-0.39904 -5.25,-3.25 l 0,-2.94774 10.25,-0.005 10.25,-0.005 -3.19577,-2.99537 c -2.92551,-2.74212 -3.79231,-2.99543 -10.25,-2.99543 -11.09599,0 -9.83864,-1.81616 8.99781,-12.9967 19.72478,-11.70781 21.93231,-8.13165 -20.38813,-33.02829 l -35.83608,-21.08196 -16.90378,9.80347 c -19.71639,11.43468 -18.61238,9.8494 -10.17165,14.60572 9.02183,5.08375 12.88488,11.30771 12.38107,19.94776 -0.23083,3.95861 0.0345,5.75 0.85161,5.75 0.78239,0 1.07239,-1.44846 0.85091,-4.25 -0.25776,-3.26044 0.0133,-4.25 1.16401,-4.25 1.21525,0 1.43381,1.23391 1.1513,6.5 -0.19179,3.575 0.0149,6.14333 0.45926,5.7074 0.44438,-0.43593 0.67939,-2.57343 0.52224,-4.75 -0.20572,-2.84923 0.10357,-3.9574 1.10454,-3.9574 1.08079,0 1.29367,1.33567 0.95628,6 -0.29084,4.0208 -0.0645,6 0.68619,6 0.65458,0 1.12019,-1.80115 1.12019,-4.33333 0,-4.64731 0.52487,-5.78499 2.34777,-5.08884 0.74721,0.28536 1.03313,2.54597 0.81341,6.4311 -0.21834,3.86065 0.0484,5.99107 0.75,5.99107 0.63992,0 1.08882,-2.06142 1.08882,-5 0,-4.09472 0.31685,-5.00025 1.75,-5.00136 1.50002,-0.001 1.70023,0.79898 1.40156,5.60156 -0.19164,3.08161 0.0334,5.98609 0.5,6.45441 0.46664,0.46832 0.69429,-1.60238 0.50589,-4.60156 -0.25385,-4.04108 0.005,-5.472 1,-5.52622 11.94182,-0.65081 16.12649,0.21368 24.85648,5.13494 9.96691,5.61855 9.68185,5.0316 9.56182,19.68815 -0.0417,5.08746 0.26175,9.24996 0.67425,9.25 0.4125,5e-5 0.75,-0.67492 0.75,-1.49992 z m -4.38716,-6.31743 c -2.68728,-4.3481 -11.62913,-7.18214 -22.34769,-7.08289 -11.57246,0.10715 -10.9683,1.60459 0.73485,1.82135 5.58862,0.10351 7.48129,0.67151 13.49863,4.05105 6.2512,3.51089 9.86954,4.05068 8.11421,1.21049 z m 0.38716,-7.18257 c 0,-1.75135 -0.65269,-1.99479 -5.25,-1.95808 l -5.25,0.0419 3.5,1.91617 c 4.62384,2.53145 7,2.53145 7,0 z m -0.5,-6 c 0.40356,-0.65298 -5.21508,-0.96541 -16.19098,-0.90032 -9.97795,0.0592 -15.79304,0.42506 -14.30902,0.90032 3.71244,1.18893 29.7652,1.18893 30.5,0 z"
         id="path3504"
         inkscape:connector-curvature="0" />
      <path
         style="fill:#070707"
         d="m -505.60657,231.36462 c -6.2918,-3.76384 -7.85303,-4.24662 -15.7495,-4.87029 -14.32367,-1.13128 -28.21174,-9.81293 -33.12396,-20.70629 -1.39688,-3.09773 -3.13452,-4.57457 -9.15884,-7.78423 -5.78259,-3.08088 -7.43676,-4.45017 -7.44335,-6.1615 -0.005,-1.21017 -0.57111,-2.56017 -1.25876,-3 -0.941,-0.60187 -1.12653,-4.13547 -0.75,-14.28431 l 0.50028,-13.48461 19,-11.15943 c 16.00386,-9.39967 19.31538,-10.99409 21,-10.11097 3.22052,1.68829 18.12101,10.37649 47,27.40486 l 27,15.92042 0.28021,13.37697 c 0.17236,8.2287 -0.11628,13.77345 -0.75,14.40717 -0.56662,0.56662 -1.0383,1.72771 -1.04818,2.58021 -0.0185,1.59786 -34.43764,22.05 -37.10818,22.05 -0.77307,0 -4.54845,-1.8801 -8.38972,-4.178 z m 11.51587,-3.322 c 0,-0.84545 0.89441,-1.5 2.04966,-1.5 1.12731,0 3.48981,-0.7875 5.25,-1.75 l 3.20034,-1.75 -5.25,-0.30226 c -5.07762,-0.29234 -5.25,-0.39904 -5.25,-3.25 l 0,-2.94774 10.25,-0.005 10.25,-0.005 -3.19577,-2.99537 c -2.92551,-2.74212 -3.79231,-2.99543 -10.25,-2.99543 -11.09599,0 -9.83864,-1.81616 8.99781,-12.9967 19.72478,-11.70781 21.93231,-8.13165 -20.38813,-33.02829 l -35.83608,-21.08196 -16.90378,9.80347 c -19.71742,11.43528 -18.61086,9.84333 -10.17165,14.63336 7.23698,4.10764 14.59056,13.72716 12.26864,16.04908 -1.12255,1.12255 -1.37096,6.54559 -0.41405,9.03925 1.1667,3.04036 2.39301,1.5449 2.39301,-2.91821 0,-3.48427 0.36621,-4.5 1.62245,-4.5 1.2894,0 1.38013,0.29196 0.44203,1.42231 -1.39448,1.68024 -1.02502,11.07769 0.43552,11.07769 0.55,0 1.13716,-2.1375 1.30479,-4.75 0.16764,-2.6125 0.61764,-4.75094 1,-4.7521 0.38237,-10e-4 0.54205,2.9749 0.35486,6.61345 -0.26757,5.20083 -0.0537,6.51536 1,6.14703 0.92342,-0.32279 1.24701,-1.91338 1.04027,-5.11345 -0.26614,-4.11949 -0.0672,-4.64493 1.75847,-4.64493 1.74694,0 1.88499,0.27793 0.91195,1.83601 -1.30259,2.08578 -0.33416,11.16399 1.19093,11.16399 0.5163,0 0.93873,-2.475 0.93873,-5.5 0,-3.73236 0.40174,-5.50059 1.25,-5.50182 0.86499,-0.001 1.25,1.89652 1.25,6.16144 0,4.03894 0.43084,6.30868 1.25,6.58516 0.90112,0.30414 1.25,-1.13644 1.25,-5.16145 l 0,-5.58333 8.01735,0 c 7.76989,0 8.29068,0.15409 16.87347,4.99237 10.1056,5.69673 9.8051,5.08371 9.68493,19.75755 -0.0417,5.08746 0.26175,9.24996 0.67425,9.25 0.4125,5e-5 0.75,-0.67492 0.75,-1.49992 z m -4.38716,-6.31743 c -2.68728,-4.3481 -11.62913,-7.18214 -22.34769,-7.08289 -11.57246,0.10715 -10.9683,1.60459 0.73485,1.82135 5.58862,0.10351 7.48129,0.67151 13.49863,4.05105 6.2512,3.51089 9.86954,4.05068 8.11421,1.21049 z m 0.38716,-7.18257 c 0,-1.75135 -0.65269,-1.99479 -5.25,-1.95808 l -5.25,0.0419 3.5,1.91617 c 4.62384,2.53145 7,2.53145 7,0 z m -0.5,-6 c 0.40356,-0.65298 -5.21508,-0.96541 -16.19098,-0.90032 -9.97795,0.0592 -15.79304,0.42506 -14.30902,0.90032 3.71244,1.18893 29.7652,1.18893 30.5,0 z"
         id="path3502"
         inkscape:connector-curvature="0" />
    </g>
  </g>
</svg>
