<?xml version="1.0" encoding="UTF-8" standalone="no"?>
<!-- Created with Inkscape (http://www.inkscape.org/) -->

<svg
   xmlns:dc="http://purl.org/dc/elements/1.1/"
   xmlns:cc="http://creativecommons.org/ns#"
   xmlns:rdf="http://www.w3.org/1999/02/22-rdf-syntax-ns#"
   xmlns:svg="http://www.w3.org/2000/svg"
   xmlns="http://www.w3.org/2000/svg"
   xmlns:sodipodi="http://sodipodi.sourceforge.net/DTD/sodipodi-0.dtd"
   xmlns:inkscape="http://www.inkscape.org/namespaces/inkscape"
   width="642.41888"
   height="478.95831"
   id="svg2"
   version="1.1"
   inkscape:version="0.48.5 r10040"
   sodipodi:docname="Modem.svg">
  <defs
     id="defs4">
    <inkscape:perspective
       sodipodi:type="inkscape:persp3d"
       inkscape:vp_x="0 : 526.18109 : 1"
       inkscape:vp_y="0 : 1000 : 0"
       inkscape:vp_z="744.09448 : 526.18109 : 1"
       inkscape:persp3d-origin="372.04724 : 350.78739 : 1"
       id="perspective2998" />
  </defs>
  <sodipodi:namedview
     id="base"
     pagecolor="#ffffff"
     bordercolor="#666666"
     borderopacity="1.0"
     inkscape:pageopacity="0.0"
     inkscape:pageshadow="2"
     inkscape:zoom="0.7"
     inkscape:cx="380.67306"
     inkscape:cy="200.80109"
     inkscape:document-units="px"
     inkscape:current-layer="layer1"
     showgrid="false"
     showguides="true"
     inkscape:guide-bbox="true"
     inkscape:object-paths="true"
     inkscape:snap-intersection-paths="false"
     inkscape:object-nodes="true"
     inkscape:snap-smooth-nodes="true"
     inkscape:snap-midpoints="true"
     inkscape:snap-object-midpoints="true"
     inkscape:snap-center="true"
     inkscape:window-width="1366"
     inkscape:window-height="666"
     inkscape:window-x="0"
     inkscape:window-y="31"
     inkscape:window-maximized="1"
     fit-margin-top="0"
     fit-margin-left="0"
     fit-margin-right="0"
     fit-margin-bottom="0"
     inkscape:snap-nodes="true">
    <sodipodi:guide
       orientation="0,1"
       position="423.38565,77.648719"
       id="guide3020" />
    <sodipodi:guide
       orientation="1,0"
       position="321.20948,278.84422"
       id="guide3066" />
  </sodipodi:namedview>
  <metadata
     id="metadata7">
    <rdf:RDF>
      <cc:Work
         rdf:about="">
        <dc:format>image/svg+xml</dc:format>
        <dc:type
           rdf:resource="http://purl.org/dc/dcmitype/StillImage" />
        <dc:title></dc:title>
      </cc:Work>
    </rdf:RDF>
  </metadata>
  <g
     inkscape:label="Layer 1"
     inkscape:groupmode="layer"
     id="layer1"
     transform="translate(182.67137,-8.1954981)">
    <text
       xml:space="preserve"
       style="font-size:20px;font-style:normal;font-weight:normal;line-height:125%;letter-spacing:0px;word-spacing:0px;fill:#000000;fill-opacity:1;stroke:none;font-family:Sans"
       x="28.928572"
       y="120.62442"
       id="text3382"
       sodipodi:linespacing="125%"
       transform="translate(179.29616,369.57904)"><tspan
         sodipodi:role="line"
         id="tspan3384"
         x="28.928572"
         y="120.62442" /></text>
    <text
       xml:space="preserve"
       style="font-size:78.55934143px;font-style:normal;font-weight:normal;text-align:center;line-height:125%;letter-spacing:0px;word-spacing:0px;text-anchor:middle;fill:#000000;fill-opacity:1;stroke:none;font-family:Sans"
       x="137.11884"
       y="476.29819"
       id="text3386"
       sodipodi:linespacing="125%"><tspan
         sodipodi:role="line"
         x="137.11884"
         y="476.29819"
         id="tspan3518">Модем</tspan></text>
    <g
       id="g3661"
       transform="matrix(4.015118,0,0,3.6154016,2019.1616,-568.90962)">
      <path
         style="fill:#fcfcfc"
         d="m -548.38562,215.12407 0,-55.5 80,0 80,0 0,55.5 0,55.5 -80,0 -80,0 0,-55.5 z"
         id="path3677"
         inkscape:connector-curvature="0" />
      <path
         style="fill:#eaeaea"
         d="m -499.38562,246.12586 c -19.14809,-11.18675 -26.58873,-16.04013 -26.81984,-17.49404 -0.17591,-1.10667 -1.18841,-2.47698 -2.25,-3.04513 -1.68394,-0.90122 -1.93016,-2.16331 -1.93016,-9.89386 l 0,-8.86086 30.63875,-17.71491 c 16.85131,-9.7432 32.71381,-18.81514 35.25,-20.15988 2.53619,-1.34474 6.07805,-3.36374 7.8708,-4.48667 l 3.25956,-2.0417 29.24044,16.90119 29.24045,16.9012 0.28648,9.11747 c 0.26182,8.33274 0.11666,9.17137 -1.68664,9.74371 -1.08522,0.34444 -2.11414,1.56557 -2.28648,2.71362 -0.2749,1.83121 -35.3028,23.20096 -61.00384,37.2171 -2.57976,1.40689 -6.17976,3.46596 -8,4.57573 -4.56306,2.78203 -2.4656,3.67041 -31.80952,-13.47297 z m 64.46162,-24.6089 c 18.99611,-11.05891 34.53838,-20.50891 34.53838,-21 0,-1.80348 -2.70809,-0.74926 -11.86263,4.61792 l -9.36262,5.48919 -16.63738,0.21029 -16.63737,0.21029 15.39535,0.53971 c 20.76071,0.7278 17.19647,4.03971 -4.34749,4.03971 -12.89291,0 -16.81779,0.57962 -14.38171,2.12385 0.73362,0.46504 5.81135,0.85241 11.28385,0.86084 12.80503,0.0197 11.62151,1.82392 -1.45929,2.2246 -6.9392,0.21255 -9.4235,0.62676 -9.24071,1.54071 0.15653,0.78266 -0.89681,1.25 -2.81739,1.25 -2.46663,0 -2.95841,-0.34274 -2.51094,-1.75 0.51673,-1.62511 -0.60251,-1.73047 -15.68261,-1.4764 -27.66484,0.4661 -26.73142,-0.72249 -7.98906,10.17306 8.9375,5.19567 16.25,9.80817 16.25,10.25 0,1.34556 -0.12531,1.41377 35.46162,-19.30377 z m -15.67243,-4.6343 c 3.45905,-0.19583 8.85905,-0.19422 12,0.004 3.14094,0.1978 0.31081,0.35803 -6.28919,0.35605 -6.6,-0.002 -9.16987,-0.16382 -5.71081,-0.35965 z m -11.78919,0.74141 c 2.45604,-0.78656 2.44725,-0.80266 -0.5,-0.91563 -1.69575,-0.065 -2.49698,-0.4344 -1.84296,-0.84968 0.63637,-0.40408 -7.91363,-0.61117 -19,-0.4602 -29.49171,0.4016 -31.20624,0.82386 -5.15704,1.27009 l 23,0.39399 -21,0.56143 -21,0.56143 21.5,0.1196 c 11.825,0.0658 22.625,-0.24068 24,-0.68103 z m -18.75,-6.7474 c -7.2875,-0.17086 -19.2125,-0.17086 -26.5,0 -7.2875,0.17086 -1.325,0.31066 13.25,0.31066 14.575,0 20.5375,-0.1398 13.25,-0.31066 z"
         id="path3675"
         inkscape:connector-curvature="0" />
      <path
         style="fill:#d2d2d2"
         d="m -499.63562,245.87185 c -19.00406,-11.14882 -26.75,-16.20524 -26.75,-17.46192 0,-0.9729 -0.9,-2.33097 -2,-3.01793 -1.7492,-1.0924 -2,-2.33203 -2,-9.88562 l 0,-8.63659 32.75,-18.74234 c 18.0125,-10.30829 34.9174,-20.03858 37.56645,-21.62286 6.84348,-4.09281 5.76372,-4.48852 36.86288,13.50959 l 28.32067,16.39011 0.28846,8.5774 c 0.25965,7.72071 0.0849,8.70454 -1.75,9.85043 -1.12115,0.70018 -2.03846,2.02047 -2.03846,2.93399 0,1.49556 -71.32947,43.91569 -73.6974,43.82836 -0.44143,-0.0163 -12.8401,-7.09146 -27.5526,-15.72262 z m 64.68793,-24.10075 c 18.66587,-10.87604 34.09313,-20.24022 34.28282,-20.80929 0.28507,-0.8552 -13.43404,-9.09179 -48.51262,-29.1257 l -4.29186,-2.45115 -34.45814,19.72701 c -40.89077,23.40965 -39.62004,17.98643 -8.43804,36.0121 14.2714,8.25 25.95518,15.3375 25.96396,15.75 0.031,1.45749 1.84152,0.48196 35.45388,-19.10297 z"
         id="path3673"
         inkscape:connector-curvature="0" />
      <path
         style="fill:#a0a0a0"
         d="m -496.93889,247.29805 c -29.6769,-17.48784 -29.44673,-17.33576 -29.44673,-19.45649 0,-0.95502 -0.9,-2.29846 -2,-2.98542 -14.37062,-8.9746 -5.74299,-16.32113 68.30187,-58.15988 7.31519,-4.13342 4.91376,-4.99879 35.90101,12.93706 32.44935,18.78214 29.79712,16.45996 29.79712,26.08903 0,6.24718 -0.34628,8.04989 -1.75,9.11023 -0.9625,0.72706 -2.2404,2.21508 -2.83978,3.30671 -0.87442,1.59256 -26.56494,17.10315 -58.35769,35.23332 -2.44611,1.39492 -6.62841,3.82215 -9.29401,5.39384 -6.07574,3.58239 -2.42948,4.96194 -30.31179,-11.4684 z m 77.78851,-34.43634 c 22.87235,-13.10873 23.56457,-10.39952 -7.23524,-28.31721 -26.79839,-15.58987 -27.29142,-15.80547 -30.69425,-13.42203 -1.17659,0.82412 -4.81109,2.96162 -8.07665,4.75 -20.93187,11.4633 -57.99797,33.36274 -57.42057,33.92528 0.38031,0.37053 12.09147,7.29396 26.02481,15.3854 13.93334,8.09144 25.5521,15.28179 25.81948,15.97855 0.32745,0.85334 5.76759,-1.80616 16.66665,-8.14775 8.89929,-5.17803 24.61139,-14.24654 34.91577,-20.15224 z"
         id="path3671"
         inkscape:connector-curvature="0" />
      <path
         style="fill:#5c5c5c"
         d="m -498.94251,245.81194 c -18.64886,-10.90593 -27.04316,-16.34963 -27.30457,-17.707 -0.20759,-1.07794 -1.22369,-2.55264 -2.25799,-3.27709 -2.29611,-1.60826 -2.80814,-16.2048 -0.63055,-17.97508 2.99477,-2.43462 74.48451,-43.2287 75.75629,-43.2287 1.84666,0 55.3246,31.04235 57.24371,33.22827 2.48088,2.82579 2.48529,14.89358 0.006,17.37252 -0.959,0.959 -2.1965,2.63161 -2.75,3.71691 -0.55314,1.08529 -9.106,6.64975 -19.006,12.36547 -9.9,5.71571 -21.57786,12.51275 -25.95079,15.10452 -4.37294,2.59177 -10.10394,5.91306 -12.73556,7.38065 -2.63162,1.46759 -7.18296,4.04046 -10.11409,5.71748 l -5.32932,3.04913 -26.92713,-15.74708 z m 65.55689,-24.4999 c 39.94727,-23.20888 39.0796,-18.43164 6.74385,-37.13051 l -26.75615,-15.47235 -35.01044,20.14085 c -21.20249,12.19739 -34.64915,20.50215 -34.09436,21.05694 0.50385,0.50385 11.64882,7.11283 24.7666,14.68661 13.11777,7.57378 24.7505,14.64817 25.8505,15.72088 1.24568,1.21477 2.56574,1.66945 3.5,1.20553 0.825,-0.40967 16.575,-9.50325 35,-20.20795 z"
         id="path3669"
         inkscape:connector-curvature="0" />
      <path
         style="fill:#282828"
         d="m -492.38562,249.51188 c -10.175,-6.04542 -21.9875,-13.0054 -26.25,-15.46662 -5.0119,-2.89393 -7.75,-5.09353 -7.75,-6.22582 0,-0.96299 -0.9,-2.52149 -2,-3.46334 -9.97974,-8.54492 -3.98789,-15.68751 29.21899,-34.83049 15.55456,-8.96684 32.07505,-18.49802 36.7122,-21.1804 7.38212,-4.27021 8.73547,-4.73842 10.87659,-3.76286 1.34497,0.61281 14.53843,8.11434 29.31881,16.67007 l 26.87341,15.55588 0,8.8405 c 0,7.96224 -0.19869,8.90356 -2,9.47527 -1.1,0.34913 -2,1.46153 -2,2.472 0,1.56205 -27.59743,18.516 -53.77827,33.03765 -1.49695,0.83031 -6.02376,3.41781 -10.05957,5.75 -9.44993,5.46087 -7.71831,5.86891 -29.16216,-6.87184 z m 36.29271,-14.73236 c 67.01258,-38.81907 62.77809,-31.50643 29.43422,-50.83055 l -26.77307,-15.51608 -28.22693,16.25672 c -15.52481,8.94119 -31.50564,18.15835 -35.51295,20.48257 l -7.28603,4.22585 26.51244,15.36302 26.51243,15.36302 0.21627,7.5 c 0.21475,7.4474 0.21872,7.45752 0.5663,1.44272 l 0.35004,-6.05727 14.20728,-8.23 z m -19.29271,8.92788 c 0,-1.05416 0.53975,-2.09658 1.19944,-2.31648 0.75023,-0.25007 0.56297,-0.64405 -0.5,-1.05195 -1.31642,-0.50515 -1.69944,-0.0958 -1.69944,1.81648 0,2.66278 -0.65557,2.9837 -3,1.46862 -1.2819,-0.82843 -1.24555,-0.9716 0.25,-0.98469 0.9625,-0.008 1.75,-0.46531 1.75,-1.01531 0,-1.55859 -2.7191,-1.17439 -3.35148,0.47355 -0.56538,1.47337 1.74018,3.4386 4.10148,3.49604 0.6875,0.0167 1.25,-0.83209 1.25,-1.88626 z"
         id="path3667"
         inkscape:connector-curvature="0" />
      <path
         style="fill:#171717"
         d="m -499.12269,245.37407 c -21.07945,-12.27499 -26.38055,-15.78648 -27.17362,-18 -0.5419,-1.5125 -1.45868,-2.75 -2.03729,-2.75 -0.65612,0 -1.05202,-3.30296 -1.05202,-8.77688 l 0,-8.77687 32.05271,-18.47313 c 17.62899,-10.16021 34.73762,-19.98076 38.01916,-21.82343 l 5.96645,-3.35032 28.98084,16.78038 28.98084,16.78037 0,8.31147 c 0,7.22845 -0.26061,8.47421 -2,9.56048 -1.1,0.68696 -2,1.94394 -2,2.79329 0,0.96551 -9.83786,7.26429 -26.25,16.8068 -14.4375,8.3944 -26.925,15.67126 -27.75,16.1708 -20.08611,12.16218 -14.78508,12.77101 -45.73707,-5.25296 z m 31.55662,6.23295 c 1.47425,-0.009 4.93045,-1.35171 7.68045,-2.98295 l 5,-2.9659 -7.75,-0.0171 c -8.96495,-0.0197 -9.94709,-1.2537 -3.79418,-4.76705 3.33832,-1.9062 5.41677,-2.25 13.60232,-2.25 8.98112,0 10.09225,-0.229 15.76943,-3.25 l 6.10753,-3.25 -9.35488,-0.28934 c -9.64625,-0.29836 -11.30993,-3.09768 -1.88924,-3.17886 3.70128,-0.0319 5.91966,-1.4689 3.56525,-2.30949 -0.69093,-0.24667 -1.03123,-0.66657 -0.75623,-0.9331 0.53546,-0.51898 28.65487,-16.88497 35.78416,-20.82702 2.47751,-1.36991 4.16433,-2.98265 4,-3.82433 -0.39952,-2.0463 -52.86547,-32.31896 -54.76422,-31.59875 -4.39409,1.66669 -69.8357,40.03649 -69.2318,40.59206 0.39152,0.36018 10.38686,6.3087 22.21186,13.21892 11.825,6.91022 23.4125,13.69728 25.75,15.08235 l 4.25,2.51832 0.13618,7.77462 c 0.0749,4.27604 0.3312,6.76212 0.56955,5.52462 0.31974,-1.66006 1.13618,-2.25447 3.11382,-2.26705 z m -5.64533,-6.01258 c 0.30903,-3.24057 -0.0252,-4.29796 -1.70709,-5.39995 -1.94832,-1.27659 -2.07907,-1.18906 -1.91141,1.27963 0.099,1.45747 -0.0119,1.9005 -0.24635,0.9845 -0.55519,-2.16893 -3.30937,-3.25347 -3.30937,-1.30317 0,0.80774 -0.43588,1.46862 -0.96862,1.46862 -0.53273,0 -0.70959,-0.675 -0.39301,-1.5 0.48307,-1.25885 -0.75453,-1.5 -7.69805,-1.5 -4.55051,0 -7.9647,0.30895 -7.58709,0.68656 8.515,8.515 23.20216,11.77281 23.82099,5.28381 z m -12.3943,-9.35883 c -0.12349,-1.49218 -0.68217,-2.20254 -1.4888,-1.89301 -1.7924,0.6878 -1.62648,4.28147 0.19768,4.28147 0.95802,0 1.41832,-0.85152 1.29112,-2.38846 z m -22.45708,-12.68767 c -1.01114,-1.00989 -1.48854,4.00274 -0.57869,6.07613 0.41885,0.95447 0.7934,0.27176 1.02989,-1.87716 0.2044,-1.85743 10e-4,-3.74697 -0.4512,-4.19897 z m -4.64663,2.22237 c 1.43648,1.19217 1.61086,0.52524 0.72538,-2.77434 -0.46694,-1.73998 -4.04808,-4.3719 -5.94864,-4.3719 -0.24912,0 -0.45295,1.5375 -0.45295,3.41667 0,3.40504 1.66681,5.09905 3.42621,3.48212 0.51581,-0.47404 1.51276,-0.3644 2.25,0.24745 z"
         id="path3665"
         inkscape:connector-curvature="0" />
      <path
         style="fill:#010101"
         d="m -498.86581,245.33864 c -16.43677,-9.65042 -26.4041,-16.10385 -27.13419,-17.56827 -0.63469,-1.27307 -1.65611,-2.81679 -2.2698,-3.43048 -0.63919,-0.63919 -1.10921,-4.55443 -1.10033,-9.16582 l 0.0155,-8.05 32.13497,-18.5 c 17.67424,-10.175 34.78829,-19.96883 38.03122,-21.76407 l 5.89624,-3.26407 28.9533,16.72661 28.9533,16.72661 0,8.25228 c 0,7.22882 -0.24804,8.38502 -2,9.32264 -1.1,0.5887 -2.00174,1.84203 -2.00386,2.78518 -0.003,1.18757 -7.72153,6.17313 -25.10448,16.21482 -13.80534,7.975 -29.8911,17.29865 -35.74614,20.71922 -13.15809,7.68709 -8.24536,8.83238 -38.62571,-9.00465 z m 46.23019,-0.56271 c 23.13326,-13.50579 35.76056,-20.8455 42.5,-24.70343 4.30611,-2.465 6.75,-4.50013 6.75,-5.62102 0,-0.96638 0.9,-2.23871 2,-2.82741 1.64949,-0.88278 1.99366,-2.07193 1.96384,-6.78518 l -0.0362,-5.71482 -26.14954,-15 c -14.38225,-8.25 -26.88976,-15 -27.79446,-15 -4.79892,0 -71.19997,39.94397 -68.95425,41.47986 1.22247,0.83608 12.40346,7.45857 24.84663,14.71664 12.44317,7.25808 23.41144,13.67439 24.37394,14.25848 1.41913,0.86118 1.75,2.49382 1.75,8.63505 l 0,7.57309 3.25,-1.9297 c 1.7875,-1.06133 8.7625,-5.14803 15.5,-9.08156 z m -20.75,2.34814 c 0,-2.475 0.0354,-4.8375 0.0787,-5.25 0.0931,-0.88714 -20.56483,-12.7956 -23.8287,-13.73629 -1.8286,-0.52703 -2.25,-0.25231 -2.25,1.46687 0,1.16344 -1.19184,3.14053 -2.64853,4.39353 l -2.64854,2.27817 2.89854,2.0533 c 17.31193,12.26367 28.39853,15.69695 28.39853,8.79442 z m -34,-19.44098 c 0,-2.16754 -0.45,-4.2191 -1,-4.55902 -0.55,-0.33992 -1.00689,0.19602 -1.01531,1.19098 -0.0126,1.48773 -0.17848,1.55109 -0.93402,0.35677 -0.50529,-0.79874 -0.74267,-1.73709 -0.52752,-2.08522 0.33677,-0.5449 -5.74986,-3.96253 -7.05708,-3.96253 -2.8871,0 0.0152,7.20878 3.45676,8.5858 2.15755,0.86328 4.16843,2.20964 4.46861,2.9919 1.08079,2.81649 2.60856,1.34136 2.60856,-2.51868 z"
         id="path3663"
         inkscape:connector-curvature="0" />
    </g>
  </g>
</svg>
