<?xml version="1.0" encoding="UTF-8" standalone="no"?>
<!-- Created with Inkscape (http://www.inkscape.org/) -->

<svg
   xmlns:dc="http://purl.org/dc/elements/1.1/"
   xmlns:cc="http://creativecommons.org/ns#"
   xmlns:rdf="http://www.w3.org/1999/02/22-rdf-syntax-ns#"
   xmlns:svg="http://www.w3.org/2000/svg"
   xmlns="http://www.w3.org/2000/svg"
   xmlns:sodipodi="http://sodipodi.sourceforge.net/DTD/sodipodi-0.dtd"
   xmlns:inkscape="http://www.inkscape.org/namespaces/inkscape"
   width="509.78326"
   height="486.49347"
   id="svg2"
   version="1.1"
   inkscape:version="0.48.5 r10040"
   sodipodi:docname="Switch.svg">
  <defs
     id="defs4">
    <inkscape:perspective
       sodipodi:type="inkscape:persp3d"
       inkscape:vp_x="0 : 526.18109 : 1"
       inkscape:vp_y="0 : 1000 : 0"
       inkscape:vp_z="744.09448 : 526.18109 : 1"
       inkscape:persp3d-origin="372.04724 : 350.78739 : 1"
       id="perspective2998" />
  </defs>
  <sodipodi:namedview
     id="base"
     pagecolor="#ffffff"
     bordercolor="#666666"
     borderopacity="1.0"
     inkscape:pageopacity="0.0"
     inkscape:pageshadow="2"
     inkscape:zoom="0.98994949"
     inkscape:cx="75.830586"
     inkscape:cy="269.89197"
     inkscape:document-units="px"
     inkscape:current-layer="layer1"
     showgrid="false"
     showguides="true"
     inkscape:guide-bbox="true"
     inkscape:object-paths="true"
     inkscape:snap-intersection-paths="false"
     inkscape:object-nodes="true"
     inkscape:snap-smooth-nodes="true"
     inkscape:snap-midpoints="true"
     inkscape:snap-object-midpoints="true"
     inkscape:snap-center="true"
     inkscape:window-width="1366"
     inkscape:window-height="666"
     inkscape:window-x="0"
     inkscape:window-y="31"
     inkscape:window-maximized="1"
     fit-margin-top="0"
     fit-margin-left="0"
     fit-margin-right="0"
     fit-margin-bottom="0"
     inkscape:snap-nodes="false">
    <sodipodi:guide
       orientation="0,1"
       position="355.26421,84.144251"
       id="guide3020" />
  </sodipodi:namedview>
  <metadata
     id="metadata7">
    <rdf:RDF>
      <cc:Work
         rdf:about="">
        <dc:format>image/svg+xml</dc:format>
        <dc:type
           rdf:resource="http://purl.org/dc/dcmitype/StillImage" />
        <dc:title />
      </cc:Work>
    </rdf:RDF>
  </metadata>
  <g
     inkscape:label="Layer 1"
     inkscape:groupmode="layer"
     id="layer1"
     transform="translate(114.54993,-7.1558457)">
    <text
       xml:space="preserve"
       style="font-size:20px;font-style:normal;font-weight:normal;line-height:125%;letter-spacing:0px;word-spacing:0px;fill:#000000;fill-opacity:1;stroke:none;font-family:Sans"
       x="28.928572"
       y="120.62442"
       id="text3382"
       sodipodi:linespacing="125%"
       transform="translate(179.29616,369.57904)"><tspan
         sodipodi:role="line"
         id="tspan3384"
         x="28.928572"
         y="120.62442" /></text>
    <text
       xml:space="preserve"
       style="font-size:78.55934143px;font-style:normal;font-weight:normal;line-height:125%;letter-spacing:0px;word-spacing:0px;fill:#000000;fill-opacity:1;stroke:none;font-family:Sans"
       x="-114.80376"
       y="477.30835"
       id="text3386"
       sodipodi:linespacing="125%"><tspan
         sodipodi:role="line"
         id="tspan3388"
         x="-114.80376"
         y="477.30835">Коммутатор</tspan></text>
    <g
       id="g2999"
       transform="matrix(2.454813,0,0,2.1685008,745.08802,-176.06093)">
      <path
         style="fill:#fdfdfd"
         d="m -350.36975,177.47156 c 0,-92.500002 0,-92.500002 104.5,-92.500002 104.5,0 104.5,0 104.5,92.500002 0,92.5 0,92.5 -104.5,92.5 -104.5,0 -104.5,0 -104.5,-92.5 z"
         id="path3015"
         inkscape:connector-curvature="0" />
      <path
         style="fill:#e9e9e9"
         d="m -227.86975,229.90138 c -22.55,-13.14868 -55.9533,-32.57439 -74.22957,-43.16826 -27.20917,-15.77183 -33.23327,-19.64982 -33.25,-21.40457 -0.0112,-1.17866 -0.69543,-2.40204 -1.52043,-2.71862 -2.42088,-0.92898 -2.19379,-30.73845 0.25,-32.81646 2.44431,-2.07845 35.17767,-20.82191 36.36313,-20.82191 0.53313,0 28.83295,16.0875 62.88849,35.75 34.05554,19.6625 64.29948,37.05805 67.20877,38.65677 24.99861,13.73738 23.78961,12.2621 23.78961,29.02912 0,12.39713 -0.28612,15.55668 -1.5,16.56411 -0.825,0.68469 -1.5,2.03469 -1.5,3 0,2.63036 -31.80823,22.10895 -35.79217,21.91825 -0.93931,-0.045 -20.15783,-10.83975 -42.70783,-23.98843 z m 68.25,-22.67317 c 18.50721,-9.52157 -4.61013,-19.3719 -44.64103,-19.0216 -30.27772,0.26495 -30.27772,0.26495 -5.44334,14.59818 13.6589,7.88327 25.26619,14.94559 25.79396,15.69404 0.77104,1.09343 2.53948,0.48628 9,-3.08991 4.42223,-2.44791 11.30291,-6.12922 15.29041,-8.18071 z"
         id="path3013"
         inkscape:connector-curvature="0" />
      <path
         style="fill:#d5d5d5"
         d="m -224.90035,231.35971 c -21.43317,-12.43652 -49.0944,-28.48182 -61.4694,-35.65622 -43.58557,-25.26873 -48.48561,-28.29946 -48.85498,-30.21741 -0.1984,-1.03019 -0.98719,-2.49955 -1.75287,-3.26523 -3.0348,-3.0348 -1.89413,-30.7665 1.35785,-33.01191 14.59252,-10.07578 35.48433,-20.53195 38.0652,-19.0513 21.69844,12.44839 111.98348,64.40048 118.6848,68.29396 4.95,2.87596 13.95,8.06896 20,11.53999 6.05,3.47103 11.33061,6.799 11.73469,7.39547 1.48495,2.192 0.88488,30.24037 -0.67466,31.53468 -0.79198,0.65728 -1.57948,2.16558 -1.75,3.35176 -0.30095,2.09352 -32.08023,21.69806 -35.17291,21.69806 -0.65908,0 -18.73455,-10.17533 -40.16772,-22.61185 z m 68.27235,-25.57807 c 6.67127,-3.63321 5.85599,-4.73038 -10.49175,-14.11925 -140.7786,-80.85227 -131.69523,-77.02568 -153.38133,-64.61568 -11.04053,6.31801 -11.4119,5.20526 4.88133,14.62632 7.5625,4.37279 40.075,23.16936 72.25,41.77017 32.175,18.60081 58.93421,34.40773 59.46492,35.1265 0.93633,1.26813 4.74939,-0.51953 27.27683,-12.78806 z"
         id="path3011"
         inkscape:connector-curvature="0" />
      <path
         style="fill:#9d9d9d"
         d="m -246.86975,218.49876 c -88.35042,-51.28478 -88.5,-51.37514 -88.5,-53.46301 0,-1.00062 -0.68637,-2.38894 -1.52527,-3.08517 -13.11819,-10.88713 20.93862,-58.49146 37.49643,-52.4122 2.57707,0.94618 149.45394,85.62511 151.27884,87.2168 2.88358,2.51507 2.56878,27.01982 -0.4286,33.36337 -2.0263,4.28838 -32.1106,23.97181 -36.40813,23.82095 -0.5023,-0.0176 -28.36327,-15.96596 -61.91327,-35.44074 z m 79.80603,-6.88041 c 19.45702,-10.32013 20.2632,-8.42241 -11.30603,-26.61371 -133.18197,-76.74411 -120.37279,-71.00887 -136.96229,-61.32413 -8.27074,4.82836 -15.03539,9.00658 -15.03255,9.28494 0.003,0.27836 32.7067,19.40611 72.67527,42.50611 39.96856,23.1 73.15374,42.54413 73.74484,43.20918 0.5911,0.66505 1.29973,1.11505 1.57473,1 0.275,-0.11505 7.16271,-3.74313 15.30603,-8.06239 z"
         id="path3009"
         inkscape:connector-curvature="0" />
      <path
         style="fill:#5f5f5f"
         d="m -209.36975,240.08052 c -31.19052,-18.23618 -93.41598,-54.34086 -98.71227,-57.27521 -17.04958,-9.44609 -27.28773,-16.14442 -27.28773,-17.85304 0,-1.02447 -0.45,-2.14079 -1,-2.48071 -14.29829,-8.83683 14.91459,-51.62141 36,-52.72486 0.825,-0.0432 22.425,11.98138 48,26.72124 25.575,14.73986 59.55,34.28853 75.5,43.4415 27.40088,15.72411 42.03393,41.46828 28.02639,49.30729 -0.83952,0.46982 -1.52983,1.84435 -1.53404,3.05452 -0.007,1.99587 -30.10111,20.7111 -34.37054,21.37466 -0.61699,0.0959 -11.69681,-6.00853 -24.62181,-13.56539 z m 42.5,-28.42154 c 18.93364,-10.19022 18.95289,-9.65618 -0.75149,-20.8496 -8.38668,-4.76421 -41.52148,-23.77671 -73.63288,-42.25001 -32.11141,-18.4733 -58.66141,-33.57899 -59,-33.56821 -4.25169,0.13537 -31.04967,17.97122 -28.97496,19.28477 2.13021,1.34868 16.59114,9.72946 54.35933,31.50373 67.22774,38.75841 89.21638,51.59102 90.48218,52.80555 1.79528,1.72256 0.48732,2.2397 17.51782,-6.92623 z"
         id="path3007"
         inkscape:connector-curvature="0" />
      <path
         style="fill:#282828"
         d="m -194.89649,248.08892 c -67.15354,-39.08763 -112.40896,-65.11736 -113.21335,-65.11736 -0.5446,0 -2.27108,-1.0125 -3.83661,-2.25 -1.56552,-1.2375 -7.10816,-4.725 -12.31697,-7.75 -22.09648,-12.83246 -19.73071,-38.32168 4.89367,-52.72519 21.73709,-12.71465 15.1312,-13.38729 46.5,4.73488 18.3054,10.57527 88.26869,50.73293 94.5,54.24128 32.68631,18.40304 31,16.56764 31,33.74063 0,12.73422 -0.2756,15.90018 -1.42244,16.34026 -0.78234,0.30021 -1.56984,1.55706 -1.75,2.79298 -0.31673,2.17286 -6.09957,5.92878 -28.3543,18.41597 -6.02675,3.38162 -6.02675,3.38162 -16,-2.42345 z m 39.26849,-42.30193 c 2.33296,-1.27349 4.24546,-3.05165 4.25,-3.95146 0.009,-1.86307 0.16304,-1.76907 -49.99175,-30.58692 -20.075,-11.53466 -50.36494,-28.94343 -67.31098,-38.68616 -16.94603,-9.74273 -31.39122,-17.57384 -32.10042,-17.40247 -1.81852,0.43942 -30.57619,17.20384 -30.55396,17.81158 0.0101,0.275 12.94388,7.95762 28.74182,17.07249 99.80898,57.58633 118.22354,68.44148 118.22354,69.6913 0,1.24105 8.25084,-2.76308 28.74175,-13.94836 z"
         id="path3005"
         inkscape:connector-curvature="0" />
      <path
         style="fill:#171717"
         d="m -194.86975,248.0758 c -16.12527,-9.7427 -109.10732,-63.45531 -112.53117,-65.00548 -1.94214,-0.87932 -4.19214,-2.19142 -5,-2.91579 -0.80785,-0.72436 -6.08133,-3.99708 -11.71883,-7.2727 -7.39526,-4.29694 -10.25,-6.49253 -10.25,-7.88328 0,-1.06019 -0.68719,-2.31219 -1.5271,-2.78222 -14.48636,-8.10698 15.60942,-52.24477 35.6236,-52.24477 0.56234,0 28.08633,15.57391 61.16443,34.60869 33.07809,19.03478 60.83883,34.86054 61.69053,35.16836 0.8517,0.30781 3.34854,1.75131 5.54854,3.20776 2.2,1.45646 8.6125,5.2919 14.25,8.5232 9.89996,5.67446 15.97554,31.49533 8.81003,37.44217 -0.79198,0.65728 -1.57948,2.1116 -1.75,3.23181 -0.33816,2.22153 -31.30718,20.84507 -34.56643,20.78688 -0.95898,-0.0171 -5.3436,-2.2062 -9.7436,-4.86463 z m 27.5,-35.79856 c 12.83035,-6.84577 15.5,-8.65088 15.5,-10.48045 0,-2.14831 -144.54852,-86.76451 -148.29554,-86.80963 -1.57372,-0.019 -31.20446,16.96528 -31.20446,17.88629 0,0.62399 19.09007,11.77837 107.23883,62.65992 39.73882,22.93819 39.73882,22.93819 39.95683,37.93819 0.218,15 0.218,15 0.76117,1.03794 0.54317,-13.96206 0.54317,-13.96206 16.04317,-22.23226 z m -69,-21.10165 c 0,-0.86435 -21.51259,-13.39702 -22.60832,-13.17101 -0.36744,0.0758 -1.04899,-0.46314 -1.51456,-1.19761 -0.5021,-0.7921 -0.85272,2.02113 -0.86181,6.91459 -0.0153,8.25 -0.0153,8.25 12.48469,8.25 6.875,0 12.5,-0.35819 12.5,-0.79597 z"
         id="path3003"
         inkscape:connector-curvature="0" />
      <path
         style="fill:#040404"
         d="m -247.36975,217.42224 c -33.275,-19.44083 -61.2875,-35.37031 -62.25,-35.39883 -0.9625,-0.0285 -1.75,-0.457 -1.75,-0.95219 0,-0.49518 -5.175,-3.90542 -11.5,-7.5783 -8.19306,-4.75765 -11.5,-7.21628 -11.5,-8.54998 0,-1.0296 -0.68719,-2.25658 -1.5271,-2.72661 -14.39603,-8.05643 15.69115,-52.24477 35.57268,-52.24477 0.43653,0 27.26735,15.21029 59.62405,33.80065 32.3567,18.59036 60.85537,34.94846 63.33037,36.35134 17.30527,9.80897 26.74208,15.37526 28.25,16.66324 2.43171,2.07702 2.65011,30.19286 0.25,32.18477 -0.825,0.68469 -1.5,2.04375 -1.5,3.02014 0,1.96017 -31.8888,21.06134 -34.85631,20.87869 -0.90403,-0.0556 -28.86869,-16.00731 -62.14369,-35.44815 z m 78.32571,21.98916 c 6.82572,-3.93984 6.82572,-3.93984 -4,-4.49217 -10.82571,-0.55232 -10.82571,-0.55232 -1.1575,-0.75 13.25117,-0.27093 15.3224,-1.29934 10.58179,-5.25411 -1.8155,-1.51455 -3.93971,-1.88345 -11,-1.91029 -8.07224,-0.0307 -8.75,-0.18819 -8.75,-2.03327 0,-1.80952 0.66667,-2 7,-2 3.85,0 7,-0.38026 7,-0.84501 0,-1.39928 -3.35396,-3.94971 -5.67292,-4.31381 -1.5578,-0.2446 1.20225,-2.11688 9.75,-6.6139 11.92292,-6.27271 11.92292,-6.27271 12.09225,4.5 0.16933,10.77272 0.16933,10.77272 0.83605,-2.22728 0.81901,-15.96936 10.99823,-8.10144 -72.50538,-56.04225 -39.05,-22.41925 -71.92034,-41.36013 -73.0452,-42.09083 -2.00391,-1.30174 -33.4548,15.21979 -33.4548,17.57421 0,0.42587 33.06104,19.85083 73.46898,43.16659 73.46898,42.39228 73.46898,42.39228 73.5,57.22777 0.035,16.73886 -1.8022,16.00857 15.35673,6.10435 z m -17.32571,-15.28485 c 0,-5.04492 0.99064,-4.314 -31,-22.87245 -77.32664,-44.85882 -112.86036,-65.28283 -114.58774,-65.86255 -1.05174,-0.35297 4.49557,3.12063 12.32736,7.71912 9.67341,5.6798 14.24295,8.92206 14.25,10.11089 0.006,0.99014 0.77024,1.75665 1.76038,1.76531 1.05474,0.009 1.32373,0.3072 0.67706,0.75 -1.88382,1.28993 -2.50666,4.23469 -0.89567,4.23469 0.87716,0 1.4403,0.90613 1.39832,2.25 -0.0671,2.1469 -0.10966,2.15835 -0.92971,0.25 -0.82005,-1.90836 -0.86265,-1.8969 -0.92971,0.25 -0.0387,1.2375 0.37971,2.25 0.92971,2.25 0.55,0 1,0.47656 1,1.05901 0,0.58246 -0.43681,0.78906 -0.97068,0.45911 -1.30402,-0.80593 -2.24203,3.27961 -1.84891,8.05301 0.36458,4.42674 0.82152,4.72338 57.81959,37.53574 30.09403,17.32438 61,23.42862 61,12.04812 z"
         id="path3001"
         inkscape:connector-curvature="0" />
    </g>
  </g>
</svg>
